<svg width="8585" height="6339" viewBox="0 0 8585 6339" fill="none" xmlns="http://www.w3.org/2000/svg">
<g clip-path="url(#clip0_121_2)">
<path d="M3659.74 4298.51C3659.74 4298.51 4799.85 4161.72 5198.88 3945.13C5597.92 3728.54 8562.2 3625.94 8562.2 4298.51C8562.2 4971.07 5153.28 5267.46 5153.28 5267.46L3363.31 5164.86L3659.74 4298.51Z" fill="#FBBEBE"/>
<path opacity="0.1" d="M3659.74 4298.51C3659.74 4298.51 4799.85 4161.72 5198.88 3945.13C5597.92 3728.54 8562.2 3625.94 8562.2 4298.51C8562.2 4971.07 5153.28 5267.46 5153.28 5267.46L3363.31 5164.86L3659.74 4298.51Z" fill="black"/>
<path d="M3990.37 4173.11L3750.95 4868.48L0 4914.08V3888.13C0 3888.13 1436.53 3557.55 2576.64 4264.31C2576.64 4264.31 3921.97 4104.72 3990.37 4173.11Z" fill="#FF6666"/>
<path opacity="0.1" d="M3990.37 4171.99L3750.95 4867.36L0 4912.95V3887.01C0 3887.01 1436.53 3556.43 2576.64 4263.19C2576.64 4263.19 3921.97 4103.6 3990.37 4171.99Z" fill="black"/>
<path d="M8278.85 3882.43C8278.85 3921.28 8191.71 3950.13 8183.14 3987.6C8174.65 4024.78 8226.42 4081.3 8210.04 4116.8C8193.1 4153.1 8173.09 4187.89 8150.24 4220.79C8128.77 4251.51 8062.48 4247.02 8035.29 4275.84C8008.68 4302 7980.49 4326.52 7950.87 4349.24C7922.03 4373.22 7882.95 4378.25 7850.15 4400.33C7818.97 4421.33 7822.74 4498.34 7788.24 4517.45C7755.28 4535.72 7704.81 4521.03 7669.06 4537.45C7634.73 4553.21 7616.63 4610.21 7579.94 4624.15C7544.55 4637.6 7500.75 4631.81 7463.33 4643.46C7427.12 4654.73 7386.61 4652.9 7348.67 4662.39C7311.82 4671.6 7283.68 4726.82 7245.35 4734.27C7208.01 4741.52 7164.25 4722.17 7125.63 4727.67C7087.92 4733.03 7044.07 4685.31 7005.28 4688.93C6967.31 4692.46 6931.53 4714.55 6892.65 4716.34C6854.52 4718.09 6816.83 4734.88 6777.93 4734.88C6739.05 4734.88 6698.91 4771.35 6660.79 4769.6C6621.91 4767.82 6586.71 4712.53 6548.74 4708.99C6509.95 4705.38 6463.67 4763.14 6425.96 4757.77C6387.35 4752.28 6356.77 4695.74 6319.42 4688.49C6281.08 4681.04 6231.57 4721.45 6194.71 4712.23C6156.77 4702.74 6134.24 4636.98 6098.03 4625.7C6060.62 4614.06 6014.24 4629.83 5978.85 4616.39C5942.15 4602.44 5897.45 4604.68 5863.12 4588.92C5827.36 4572.5 5801.69 4533.64 5768.73 4515.37C5734.23 4496.25 5718.32 4448.84 5687.13 4427.84C5654.33 4405.76 5604.36 4408.58 5575.51 4384.59C5545.05 4359.27 5488 4357.95 5462.3 4330.7C5435.11 4301.88 5424.11 4253.5 5402.65 4222.77C5380.05 4190.41 5424.41 4121.99 5408.63 4087.78C5392.26 4052.28 5323.79 4037.86 5315.3 4000.7C5306.54 3961.88 5302.04 3922.22 5301.89 3882.43C5301.89 3843.58 5360.44 3813.89 5369.01 3776.41C5377.51 3739.24 5334.41 3685.85 5350.79 3650.35C5366.58 3616.14 5364.56 3563.55 5387.17 3531.18C5408.63 3500.46 5462.19 3488.41 5489.37 3459.6C5515.07 3432.36 5561.07 3424.76 5591.52 3399.44C5620.37 3375.45 5616.69 3303.12 5649.49 3281.04C5680.68 3260.05 5724.22 3250.47 5758.72 3231.35C5791.69 3213.08 5838.34 3216.16 5874.1 3199.74C5908.42 3183.98 5962.18 3215.04 5998.88 3201.1C6034.26 3187.65 6062.97 3158.27 6100.38 3146.62C6136.59 3135.35 6153.6 3049.4 6191.55 3039.92C6228.39 3030.7 6273.73 3046 6312.06 3038.55C6349.4 3031.3 6399.65 3099.11 6438.26 3093.61C6475.97 3088.25 6504.17 2997.72 6542.96 2994.11C6580.93 2990.58 6623.74 3037.46 6662.63 3035.68C6700.75 3033.93 6739.04 3061.4 6777.93 3061.4C6816.82 3061.4 6855.57 3023.7 6893.69 3025.45C6932.57 3027.23 6966.85 3077.06 7004.82 3080.59C7043.61 3084.2 7091.24 3008.42 7128.95 3013.78C7167.56 3019.27 7197.4 3077.86 7234.74 3085.11C7273.08 3092.56 7321.1 3056.19 7357.95 3065.4C7395.9 3074.89 7418.73 3137.16 7454.95 3148.43C7492.36 3160.08 7515.41 3204.01 7550.8 3217.45C7587.5 3231.39 7655.67 3166.16 7690 3181.92C7725.76 3198.35 7756.64 3226.76 7789.61 3245.03C7824.11 3264.15 7878.95 3254.54 7910.14 3275.53C7942.94 3297.62 7951 3356.89 7979.85 3380.88C8010.3 3406.2 8060.54 3413.83 8086.24 3441.07C8113.42 3469.89 8117.2 3521.52 8138.66 3552.25C8161.26 3584.62 8160.55 3629.46 8176.33 3663.66C8192.71 3699.16 8236.42 3726 8244.92 3763.17C8253.48 3800.64 8278.85 3843.59 8278.85 3882.43Z" fill="#3F3D56"/>
<path d="M4172.79 4594.89C4172.79 4594.89 5461.11 3933.73 6293.39 4184.51C7125.66 4435.3 8288.57 4002.12 8425.39 4150.32C8562.2 4298.51 8756.02 5894.42 7114.26 5985.62C5472.51 6076.81 4070.18 5712.03 4070.18 5712.03L4172.79 4594.89Z" fill="#FBBEBE"/>
<path d="M3869.39 4524.48C3869.39 4524.48 4378.01 4492.3 4355.21 4674.69C4332.4 4857.08 4309.6 6270.6 4172.79 6304.8C4035.98 6339 2952.88 6339 2508.23 6339H0V4153.59C0 4153.59 1778.57 4047.72 2667.85 4492.3C2667.85 4492.3 3737.01 4476.86 3869.39 4524.48Z" fill="#FF6666"/>
<path d="M6252.12 1106.19C6203.52 1108.94 6156.65 1125.16 6116.76 1153.05C6076.86 1180.94 6045.53 1219.39 6026.27 1264.08C5969.79 1400.58 6042.51 1560.91 6151.67 1660.44C6260.83 1759.98 6401.05 1816.87 6528.45 1891.65C6699.58 1992.09 6853.35 2131.53 6938.97 2310.51C7024.59 2489.49 7033.7 2711.2 6933.05 2882.19C6839.64 3040.89 6669.78 3135.88 6507.77 3223.48" stroke="#3F3D56" stroke-miterlimit="10"/>
<path d="M6708.16 274.035C6659.57 276.78 6612.69 293.006 6572.8 320.895C6532.91 348.783 6501.57 387.231 6482.31 431.928C6425.84 568.422 6498.55 728.755 6607.71 828.288C6716.87 927.821 6857.09 984.714 6984.5 1059.49C7155.62 1159.94 7309.39 1299.37 7395.01 1478.35C7480.64 1657.33 7489.74 1879.04 7389.1 2050.03C7295.68 2208.74 7125.82 2303.72 6963.81 2391.33" stroke="#3F3D56" stroke-miterlimit="10"/>
<path d="M8207.6 465.427C8167.49 437.85 8120.49 421.99 8071.87 419.624C8023.25 417.259 7974.93 428.481 7932.34 452.033C7804.11 525.395 7763.44 696.682 7788.82 842.2C7814.19 987.718 7890.23 1118.53 7945.19 1255.65C8019 1439.81 8055.22 1644.18 8013.34 1838.12C7971.46 2032.05 7842.92 2212.93 7658.64 2286.53C7487.61 2354.85 7295.14 2325.99 7113.4 2296.09" stroke="#3F3D56" stroke-miterlimit="10"/>
<path d="M6886.24 2185.71C7037.36 2185.71 7159.87 2126.22 7159.87 2052.83C7159.87 1979.44 7037.36 1919.94 6886.24 1919.94C6735.12 1919.94 6612.62 1979.44 6612.62 2052.83C6612.62 2126.22 6735.12 2185.71 6886.24 2185.71Z" fill="#00786A"/>
<path d="M6852.04 2162.91C7003.16 2162.91 7125.66 2103.42 7125.66 2030.03C7125.66 1956.64 7003.16 1897.14 6852.04 1897.14C6700.92 1897.14 6578.41 1956.64 6578.41 2030.03C6578.41 2103.42 6700.92 2162.91 6852.04 2162.91Z" stroke="#3F3D56" stroke-miterlimit="10"/>
<path d="M7479.1 2071.72C7630.22 2071.72 7752.72 2012.22 7752.72 1938.83C7752.72 1865.44 7630.22 1805.95 7479.1 1805.95C7327.98 1805.95 7205.47 1865.44 7205.47 1938.83C7205.47 2012.22 7327.98 2071.72 7479.1 2071.72Z" fill="#00786A"/>
<path d="M7444.89 2048.92C7596.01 2048.92 7718.52 1989.42 7718.52 1916.03C7718.52 1842.64 7596.01 1783.15 7444.89 1783.15C7293.77 1783.15 7171.27 1842.64 7171.27 1916.03C7171.27 1989.42 7293.77 2048.92 7444.89 2048.92Z" stroke="#3F3D56" stroke-miterlimit="10"/>
<path d="M7570.31 2573.29C7721.42 2573.29 7843.93 2513.8 7843.93 2440.41C7843.93 2367.02 7721.42 2307.52 7570.31 2307.52C7419.19 2307.52 7296.68 2367.02 7296.68 2440.41C7296.68 2513.8 7419.19 2573.29 7570.31 2573.29Z" fill="#00786A"/>
<path d="M7536.1 2550.49C7687.22 2550.49 7809.73 2491 7809.73 2417.61C7809.73 2344.22 7687.22 2284.72 7536.1 2284.72C7384.98 2284.72 7262.48 2344.22 7262.48 2417.61C7262.48 2491 7384.98 2550.49 7536.1 2550.49Z" stroke="#3F3D56" stroke-miterlimit="10"/>
<path d="M7513.3 1319.36C7664.42 1319.36 7786.93 1259.86 7786.93 1186.47C7786.93 1113.08 7664.42 1053.59 7513.3 1053.59C7362.18 1053.59 7239.67 1113.08 7239.67 1186.47C7239.67 1259.86 7362.18 1319.36 7513.3 1319.36Z" fill="#00786A"/>
<path d="M7479.1 1296.56C7630.22 1296.56 7752.72 1237.06 7752.72 1163.67C7752.72 1090.28 7630.22 1030.79 7479.1 1030.79C7327.98 1030.79 7205.47 1090.28 7205.47 1163.67C7205.47 1237.06 7327.98 1296.56 7479.1 1296.56Z" stroke="#3F3D56" stroke-miterlimit="10"/>
<path d="M6829.24 1239.56C6980.36 1239.56 7102.86 1180.07 7102.86 1106.68C7102.86 1033.29 6980.36 973.793 6829.24 973.793C6678.12 973.793 6555.61 1033.29 6555.61 1106.68C6555.61 1180.07 6678.12 1239.56 6829.24 1239.56Z" fill="#00786A"/>
<path d="M6795.03 1216.76C6946.15 1216.76 7068.66 1157.27 7068.66 1083.88C7068.66 1010.49 6946.15 950.994 6795.03 950.994C6643.91 950.994 6521.41 1010.49 6521.41 1083.88C6521.41 1157.27 6643.91 1216.76 6795.03 1216.76Z" stroke="#3F3D56" stroke-miterlimit="10"/>
<path d="M7137.07 954.577C7288.18 954.577 7410.69 895.082 7410.69 821.692C7410.69 748.302 7288.18 688.808 7137.07 688.808C6985.95 688.808 6863.44 748.302 6863.44 821.692C6863.44 895.082 6985.95 954.577 7137.07 954.577Z" fill="#00786A"/>
<path d="M7102.86 931.778C7253.98 931.778 7376.49 872.284 7376.49 798.893C7376.49 725.503 7253.98 666.009 7102.86 666.009C6951.74 666.009 6829.24 725.503 6829.24 798.893C6829.24 872.284 6951.74 931.778 7102.86 931.778Z" stroke="#3F3D56" stroke-miterlimit="10"/>
<path d="M7809.73 1011.57C7960.85 1011.57 8083.35 952.079 8083.35 878.689C8083.35 805.299 7960.85 745.805 7809.73 745.805C7658.61 745.805 7536.1 805.299 7536.1 878.689C7536.1 952.079 7658.61 1011.57 7809.73 1011.57Z" fill="#00786A"/>
<path d="M7775.52 988.775C7926.64 988.775 8049.15 929.281 8049.15 855.891C8049.15 782.5 7926.64 723.006 7775.52 723.006C7624.4 723.006 7501.9 782.5 7501.9 855.891C7501.9 929.281 7624.4 988.775 7775.52 988.775Z" stroke="#3F3D56" stroke-miterlimit="10"/>
<path d="M8311.37 1387.75C8462.49 1387.75 8585 1328.26 8585 1254.87C8585 1181.48 8462.49 1121.98 8311.37 1121.98C8160.26 1121.98 8037.75 1181.48 8037.75 1254.87C8037.75 1328.26 8160.26 1387.75 8311.37 1387.75Z" fill="#00786A"/>
<path d="M8277.17 1364.95C8428.29 1364.95 8550.8 1305.46 8550.8 1232.07C8550.8 1158.68 8428.29 1099.19 8277.17 1099.19C8126.05 1099.19 8003.55 1158.68 8003.55 1232.07C8003.55 1305.46 8126.05 1364.95 8277.17 1364.95Z" stroke="#3F3D56" stroke-miterlimit="10"/>
<path d="M6544.21 726.589C6695.33 726.589 6817.84 667.094 6817.84 593.704C6817.84 520.314 6695.33 460.82 6544.21 460.82C6393.09 460.82 6270.58 520.314 6270.58 593.704C6270.58 667.094 6393.09 726.589 6544.21 726.589Z" fill="#00786A"/>
<path d="M6510.01 703.79C6661.13 703.79 6783.63 644.296 6783.63 570.906C6783.63 497.516 6661.13 438.021 6510.01 438.021C6358.89 438.021 6236.38 497.516 6236.38 570.906C6236.38 644.296 6358.89 703.79 6510.01 703.79Z" stroke="#3F3D56" stroke-miterlimit="10"/>
<path d="M6715.23 293.412C6866.34 293.412 6988.85 233.917 6988.85 160.527C6988.85 87.1372 6866.34 27.6428 6715.23 27.6428C6564.11 27.6428 6441.6 87.1372 6441.6 160.527C6441.6 233.917 6564.11 293.412 6715.23 293.412Z" fill="#00786A"/>
<path d="M6681.02 270.613C6832.14 270.613 6954.65 211.118 6954.65 137.728C6954.65 64.3384 6832.14 4.84399 6681.02 4.84399C6529.9 4.84399 6407.4 64.3384 6407.4 137.728C6407.4 211.118 6529.9 270.613 6681.02 270.613Z" stroke="#3F3D56" stroke-miterlimit="10"/>
<path d="M8299.97 612.595C8451.09 612.595 8573.6 553.1 8573.6 479.71C8573.6 406.32 8451.09 346.826 8299.97 346.826C8148.85 346.826 8026.35 406.32 8026.35 479.71C8026.35 553.1 8148.85 612.595 8299.97 612.595Z" fill="#00786A"/>
<path d="M8265.77 589.796C8416.89 589.796 8539.4 530.302 8539.4 456.912C8539.4 383.521 8416.89 324.027 8265.77 324.027C8114.65 324.027 7992.15 383.521 7992.15 456.912C7992.15 530.302 8114.65 589.796 8265.77 589.796Z" stroke="#3F3D56" stroke-miterlimit="10"/>
<path d="M5780.34 1661.34C5931.46 1661.34 6053.96 1601.84 6053.96 1528.45C6053.96 1455.06 5931.46 1395.57 5780.34 1395.57C5629.22 1395.57 5506.71 1455.06 5506.71 1528.45C5506.71 1601.84 5629.22 1661.34 5780.34 1661.34Z" fill="#00786A"/>
<path d="M5746.14 1638.54C5897.25 1638.54 6019.76 1579.05 6019.76 1505.66C6019.76 1432.27 5897.25 1372.77 5746.14 1372.77C5595.02 1372.77 5472.51 1432.27 5472.51 1505.66C5472.51 1579.05 5595.02 1638.54 5746.14 1638.54Z" stroke="#3F3D56" stroke-miterlimit="10"/>
<path d="M6726.63 1592.94C6877.75 1592.94 7000.25 1533.45 7000.25 1460.06C7000.25 1386.67 6877.75 1327.17 6726.63 1327.17C6575.51 1327.17 6453 1386.67 6453 1460.06C6453 1533.45 6575.51 1592.94 6726.63 1592.94Z" fill="#00786A"/>
<path d="M6692.42 1570.14C6843.54 1570.14 6966.05 1510.65 6966.05 1437.26C6966.05 1363.87 6843.54 1304.38 6692.42 1304.38C6541.3 1304.38 6418.8 1363.87 6418.8 1437.26C6418.8 1510.65 6541.3 1570.14 6692.42 1570.14Z" stroke="#3F3D56" stroke-miterlimit="10"/>
<path d="M7969.34 1695.54C8120.46 1695.54 8242.97 1636.04 8242.97 1562.65C8242.97 1489.26 8120.46 1429.77 7969.34 1429.77C7818.22 1429.77 7695.72 1489.26 7695.72 1562.65C7695.72 1636.04 7818.22 1695.54 7969.34 1695.54Z" fill="#00786A"/>
<path d="M7935.14 1672.74C8086.26 1672.74 8208.77 1613.24 8208.77 1539.85C8208.77 1466.46 8086.26 1406.97 7935.14 1406.97C7784.02 1406.97 7661.51 1466.46 7661.51 1539.85C7661.51 1613.24 7784.02 1672.74 7935.14 1672.74Z" stroke="#3F3D56" stroke-miterlimit="10"/>
<path d="M7308.08 1741.14C7459.2 1741.14 7581.71 1681.64 7581.71 1608.25C7581.71 1534.86 7459.2 1475.37 7308.08 1475.37C7156.96 1475.37 7034.46 1534.86 7034.46 1608.25C7034.46 1681.64 7156.96 1741.14 7308.08 1741.14Z" fill="#00786A"/>
<path d="M7273.88 1718.34C7425 1718.34 7547.5 1658.84 7547.5 1585.45C7547.5 1512.06 7425 1452.57 7273.88 1452.57C7122.76 1452.57 7000.25 1512.06 7000.25 1585.45C7000.25 1658.84 7122.76 1718.34 7273.88 1718.34Z" stroke="#3F3D56" stroke-miterlimit="10"/>
<path d="M7353.69 601.195C7504.8 601.195 7627.31 541.701 7627.31 468.311C7627.31 394.921 7504.8 335.427 7353.69 335.427C7202.57 335.427 7080.06 394.921 7080.06 468.311C7080.06 541.701 7202.57 601.195 7353.69 601.195Z" fill="#00786A"/>
<path d="M7319.48 578.397C7470.6 578.397 7593.11 518.902 7593.11 445.512C7593.11 372.122 7470.6 312.628 7319.48 312.628C7168.36 312.628 7045.86 372.122 7045.86 445.512C7045.86 518.902 7168.36 578.397 7319.48 578.397Z" stroke="#3F3D56" stroke-miterlimit="10"/>
<path d="M6179.38 1307.96C6330.49 1307.96 6453 1248.46 6453 1175.07C6453 1101.68 6330.49 1042.19 6179.38 1042.19C6028.26 1042.19 5905.75 1101.68 5905.75 1175.07C5905.75 1248.46 6028.26 1307.96 6179.38 1307.96Z" fill="#00786A"/>
<path d="M6145.17 1285.16C6296.29 1285.16 6418.8 1225.66 6418.8 1152.27C6418.8 1078.88 6296.29 1019.39 6145.17 1019.39C5994.05 1019.39 5871.55 1078.88 5871.55 1152.27C5871.55 1225.66 5994.05 1285.16 6145.17 1285.16Z" stroke="#3F3D56" stroke-miterlimit="10"/>
<path d="M6338.99 1820.93C6490.11 1820.93 6612.62 1761.44 6612.62 1688.05C6612.62 1614.66 6490.11 1555.16 6338.99 1555.16C6187.87 1555.16 6065.36 1614.66 6065.36 1688.05C6065.36 1761.44 6187.87 1820.93 6338.99 1820.93Z" fill="#00786A"/>
<path d="M6304.79 1798.13C6455.91 1798.13 6578.41 1738.64 6578.41 1665.25C6578.41 1591.86 6455.91 1532.36 6304.79 1532.36C6153.67 1532.36 6031.16 1591.86 6031.16 1665.25C6031.16 1738.64 6153.67 1798.13 6304.79 1798.13Z" stroke="#3F3D56" stroke-miterlimit="10"/>
<g opacity="0.3">
<path d="M6345.35 2595.38C6383.98 2526.29 6391.03 2456.71 6361.1 2439.99C6331.17 2423.26 6275.6 2465.72 6236.97 2534.82C6198.35 2603.92 6191.3 2673.49 6221.23 2690.22C6251.16 2706.94 6306.73 2664.48 6345.35 2595.38Z" fill="#57B894"/>
<path d="M6327.32 2605.83C6365.94 2536.73 6372.99 2467.16 6343.06 2450.43C6313.13 2433.71 6257.56 2476.16 6218.93 2545.26C6180.31 2614.36 6173.26 2683.94 6203.19 2700.66C6233.12 2717.39 6288.69 2674.93 6327.32 2605.83Z" stroke="#3F3D56" stroke-miterlimit="10"/>
</g>
<g opacity="0.3">
<path d="M7771.62 2926.64C7794.48 2901.09 7765.19 2837.59 7706.2 2784.8C7647.2 2732.01 7580.84 2709.92 7557.98 2735.47C7535.12 2761.01 7564.4 2824.51 7623.4 2877.3C7682.39 2930.09 7748.75 2952.18 7771.62 2926.64Z" fill="#57B894"/>
<path d="M7765.37 2906.75C7788.23 2881.21 7758.94 2817.71 7699.95 2764.92C7640.96 2712.13 7574.6 2690.04 7551.73 2715.58C7528.87 2741.13 7558.15 2804.63 7617.15 2857.42C7676.14 2910.21 7742.5 2932.3 7765.37 2906.75Z" stroke="#3F3D56" stroke-miterlimit="10"/>
</g>
<g opacity="0.3">
<path d="M6494.7 2208.48C6517.56 2182.93 6488.27 2119.43 6429.28 2066.64C6370.29 2013.85 6303.93 1991.76 6281.06 2017.3C6258.2 2042.85 6287.48 2106.35 6346.48 2159.14C6405.47 2211.93 6471.83 2234.02 6494.7 2208.48Z" fill="#57B894"/>
<path d="M6488.45 2188.59C6511.31 2163.05 6482.02 2099.55 6423.03 2046.75C6364.04 1993.96 6297.68 1971.88 6274.81 1997.42C6251.95 2022.97 6281.24 2086.47 6340.23 2139.26C6399.22 2192.05 6465.58 2214.14 6488.45 2188.59Z" stroke="#3F3D56" stroke-miterlimit="10"/>
</g>
</g>
<defs>
<clipPath id="clip0_121_2">
<rect width="8585" height="6339" fill="white"/>
</clipPath>
</defs>
</svg>
