<svg width="2012" height="1075" viewBox="0 0 2012 1075" fill="none" xmlns="http://www.w3.org/2000/svg">
<g opacity="0.69">
<path d="M1299.44 784.187L940.24 674.368C935.719 672.98 931.934 669.856 929.714 665.681C927.494 661.506 927.02 656.62 928.398 652.096L1077.48 164.465C1078.87 159.944 1081.99 156.159 1086.17 153.939C1090.34 151.718 1095.23 151.245 1099.75 152.623L1458.96 262.442C1463.48 263.83 1467.26 266.954 1469.48 271.129C1471.7 275.304 1472.17 280.189 1470.8 284.713L1321.71 772.345C1320.32 776.865 1317.2 780.651 1313.03 782.871C1308.85 785.091 1303.96 785.564 1299.44 784.187L1299.44 784.187Z" fill="white"/>
<path d="M1224.36 329.484C1220.06 343.567 1211.41 355.928 1199.65 364.796C1187.89 373.664 1173.63 378.585 1158.91 378.855C1158.47 378.856 1158.03 378.864 1157.59 378.856C1155.69 378.86 1153.79 378.775 1151.88 378.617C1148.43 378.33 1145 377.781 1141.63 376.976C1140.17 376.633 1138.71 376.24 1137.25 375.795C1129.74 373.506 1122.67 369.963 1116.34 365.315C1116.15 365.179 1115.97 365.044 1115.79 364.908C1105.57 357.248 1097.65 346.93 1092.89 335.079C1088.13 323.227 1086.72 310.297 1088.8 297.698C1090.89 285.098 1096.39 273.312 1104.71 263.624C1113.03 253.936 1123.85 246.717 1135.99 242.755C1148.13 238.793 1161.13 238.239 1173.56 241.154C1186 244.068 1197.39 250.34 1206.51 259.285C1215.62 268.23 1222.11 279.505 1225.25 291.882C1228.4 304.258 1228.09 317.262 1224.36 329.475L1224.36 329.484Z" fill="white"/>
<path d="M1142.54 352.805C1160.46 358.286 1179.44 348.196 1184.92 330.269C1190.4 312.342 1180.31 293.366 1162.38 287.885C1144.46 282.404 1125.48 292.494 1120 310.421C1114.52 328.348 1124.61 347.324 1142.54 352.805Z" fill="#00796B"/>
<path d="M1149.01 338.41L1149.41 337.208C1147.17 336.455 1145.23 335.705 1144.07 334.156C1143.74 333.699 1143.52 333.178 1143.42 332.628C1143.31 332.077 1143.33 331.511 1143.46 330.968C1143.54 330.633 1143.68 330.32 1143.9 330.053C1144.11 329.785 1144.39 329.571 1144.7 329.426C1145.37 329.257 1146.07 329.27 1146.73 329.467C1147.39 329.663 1147.99 330.034 1148.46 330.54L1149.32 331.307L1151.7 316.658L1150.45 316.456L1148.43 328.921C1147.83 328.467 1147.13 328.17 1146.39 328.055C1145.66 327.941 1144.9 328.013 1144.2 328.266C1143.71 328.484 1143.28 328.813 1142.94 329.226C1142.6 329.638 1142.36 330.124 1142.24 330.645C1142.05 331.375 1142.03 332.135 1142.17 332.874C1142.31 333.613 1142.61 334.312 1143.05 334.922C1144.54 336.91 1147.02 337.744 1149.01 338.41Z" fill="#2F2E41"/>
<path d="M1144.19 315.669L1137.66 313.671L1137.29 314.884L1143.82 316.881L1144.19 315.669Z" fill="#2F2E41"/>
<path d="M1164.81 321.974L1158.28 319.976L1157.91 321.189L1164.44 323.186L1164.81 321.974Z" fill="#2F2E41"/>
<path d="M1147.81 368.543C1148.02 368.17 1148.18 367.778 1148.31 367.371C1148.78 365.843 1148.62 364.193 1147.87 362.783C1147.12 361.373 1145.84 360.318 1144.31 359.848L1135.82 357.252C1134.29 356.787 1132.64 356.946 1131.23 357.696C1129.82 358.446 1128.77 359.725 1128.3 361.252C1128.17 361.662 1128.09 362.084 1128.06 362.512C1124.55 362.54 1121.06 363.112 1117.72 364.206C1117.07 364.413 1116.42 364.651 1115.79 364.916C1115.97 365.05 1116.15 365.186 1116.34 365.323C1122.67 369.971 1129.74 373.514 1137.26 375.803C1138.71 376.248 1140.17 376.642 1141.64 376.984C1145.01 377.789 1148.43 378.338 1151.89 378.625C1153.79 378.784 1155.69 378.866 1157.59 378.864C1155.08 374.779 1151.75 371.264 1147.81 368.543V368.543Z" fill="#2F2E41"/>
<path d="M1144.06 376.889C1143.26 376.706 1142.42 376.741 1141.63 376.988C1145 377.794 1148.43 378.342 1151.88 378.63L1144.06 376.889Z" fill="#2F2E41"/>
<path d="M1184.26 321.635L1134.18 283.767C1133.64 283.361 1133.29 282.759 1133.2 282.092C1133.1 281.426 1133.28 280.75 1133.68 280.214L1134.15 279.37C1142.24 268.678 1159.14 265.566 1169.84 273.649L1185.25 285.303C1195.94 293.387 1196.82 309.24 1188.73 319.932L1187.81 321.142C1187.61 321.408 1187.36 321.632 1187.07 321.801C1186.79 321.97 1186.47 322.081 1186.14 322.127C1185.81 322.173 1185.47 322.153 1185.15 322.068C1184.82 321.984 1184.52 321.836 1184.26 321.635V321.635Z" fill="#2F2E41"/>
<path d="M1186.94 323.708C1107.46 302.579 1103.61 290.605 1132.31 282.397L1140.24 274.602L1191.98 313.631L1186.94 323.708Z" fill="#2F2E41"/>
<path d="M1182.58 282.866C1183.45 281.555 1182.16 279.152 1179.68 277.499C1177.2 275.845 1174.49 275.568 1173.61 276.879C1172.74 278.19 1174.03 280.593 1176.51 282.246C1178.99 283.899 1181.7 284.177 1182.58 282.866Z" fill="#2F2E41"/>
<path d="M1136.69 377.626C1128.98 375.275 1121.71 371.635 1115.21 366.859L1114.64 366.44C1101.07 356.263 1091.55 341.604 1087.78 325.068C1084 308.533 1086.21 291.193 1094.01 276.134C1101.81 261.074 1114.71 249.27 1130.39 242.821C1146.08 236.373 1163.55 235.697 1179.69 240.915C1195.83 246.132 1209.59 256.905 1218.54 271.317C1227.48 285.729 1231.02 302.846 1228.53 319.624C1226.04 336.402 1217.68 351.753 1204.94 362.948C1192.2 374.142 1175.9 380.454 1158.94 380.761C1158.47 380.766 1158.02 380.772 1157.57 380.767C1155.68 380.77 1153.71 380.689 1151.72 380.522C1148.17 380.226 1144.65 379.662 1141.19 378.835C1139.7 378.488 1138.18 378.08 1136.69 377.626ZM1177.49 244.195C1162.22 239.529 1145.79 240.397 1131.09 246.647C1116.4 252.896 1104.38 264.126 1097.15 278.363C1089.91 292.599 1087.93 308.93 1091.55 324.483C1095.17 340.036 1104.16 353.816 1116.93 363.398L1117.46 363.796C1123.62 368.317 1130.5 371.762 1137.81 373.987C1139.21 374.417 1140.64 374.802 1142.06 375.133C1145.34 375.917 1148.68 376.451 1152.04 376.732C1153.92 376.889 1155.79 376.967 1157.58 376.964C1158.02 376.965 1158.45 376.959 1158.87 376.954C1175.02 376.659 1190.54 370.613 1202.63 359.902C1214.73 349.192 1222.6 334.518 1224.85 318.52C1227.09 302.522 1223.55 286.248 1214.87 272.624C1206.19 259 1192.94 248.919 1177.49 244.193L1177.49 244.195Z" fill="#CCCCCC"/>
<path d="M1299.44 784.187L940.24 674.368C935.719 672.98 931.934 669.856 929.714 665.681C927.494 661.506 927.02 656.62 928.398 652.096L1077.48 164.465C1078.87 159.944 1081.99 156.159 1086.17 153.939C1090.34 151.718 1095.23 151.245 1099.75 152.623L1458.96 262.442C1463.48 263.83 1467.26 266.954 1469.48 271.129C1471.7 275.304 1472.17 280.189 1470.8 284.713L1321.71 772.345C1320.32 776.865 1317.2 780.651 1313.03 782.871C1308.85 785.091 1303.96 785.564 1299.44 784.187L1299.44 784.187ZM1099.14 154.629C1095.15 153.415 1090.84 153.833 1087.16 155.791C1083.47 157.75 1080.72 161.089 1079.49 165.077L930.407 652.711C929.193 656.702 929.61 661.011 931.569 664.695C933.527 668.378 936.867 671.134 940.854 672.359L1300.06 782.178C1304.05 783.392 1308.36 782.975 1312.04 781.016C1315.72 779.058 1318.48 775.718 1319.7 771.731L1468.79 284.099C1470 280.108 1469.58 275.799 1467.63 272.115C1465.67 268.432 1462.33 265.676 1458.34 264.451L1099.14 154.629Z" fill="#CCCCCC"/>
<path d="M1350.7 367.831L1249.06 336.754C1246.92 336.102 1245.14 334.629 1244.09 332.66C1243.04 330.691 1242.82 328.387 1243.47 326.254C1244.13 324.121 1245.6 322.335 1247.57 321.288C1249.54 320.241 1251.84 320.019 1253.97 320.671L1355.62 351.748C1357.75 352.401 1359.54 353.873 1360.59 355.842C1361.63 357.811 1361.86 360.116 1361.2 362.248C1360.55 364.381 1359.08 366.167 1357.11 367.214C1355.14 368.261 1352.84 368.483 1350.7 367.831V367.831Z" fill="#E6E6E6" fill-opacity="0.59"/>
<path d="M1375.57 405.114L1240.76 363.897C1238.62 363.245 1236.84 361.773 1235.79 359.804C1234.74 357.835 1234.52 355.53 1235.17 353.398C1235.83 351.265 1237.3 349.479 1239.27 348.432C1241.24 347.385 1243.54 347.163 1245.67 347.815L1380.49 389.031C1382.62 389.683 1384.41 391.156 1385.45 393.125C1386.5 395.094 1386.72 397.398 1386.07 399.531C1385.42 401.664 1383.94 403.45 1381.98 404.497C1380.01 405.544 1377.7 405.766 1375.57 405.114Z" fill="#E6E6E6" fill-opacity="0.59"/>
<path d="M1310.43 499.01L1057.28 421.614C1055.15 420.962 1053.36 419.49 1052.32 417.521C1051.27 415.552 1051.05 413.247 1051.7 411.115C1052.35 408.982 1053.82 407.196 1055.79 406.149C1057.76 405.102 1060.07 404.88 1062.2 405.532L1315.35 482.927C1317.48 483.579 1319.27 485.052 1320.31 487.021C1321.36 488.99 1321.58 491.294 1320.93 493.427C1320.28 495.56 1318.81 497.346 1316.84 498.393C1314.87 499.44 1312.56 499.662 1310.43 499.01V499.01Z" fill="#E6E6E6" fill-opacity="0.59"/>
<path d="M1335.3 536.289L1048.98 448.752C1046.85 448.1 1045.07 446.628 1044.02 444.659C1042.97 442.69 1042.75 440.385 1043.4 438.253C1044.05 436.12 1045.53 434.334 1047.5 433.287C1049.46 432.24 1051.77 432.018 1053.9 432.67L1340.22 520.206C1342.35 520.858 1344.14 522.331 1345.19 524.3C1346.23 526.269 1346.46 528.573 1345.8 530.706C1345.15 532.839 1343.68 534.625 1341.71 535.672C1339.74 536.719 1337.44 536.941 1335.3 536.289Z" fill="#E6E6E6" fill-opacity="0.59"/>
<path d="M1283.06 588.524L1029.91 511.128C1027.78 510.476 1026 509.003 1024.95 507.034C1023.9 505.065 1023.68 502.761 1024.33 500.628C1024.98 498.496 1026.46 496.709 1028.43 495.662C1030.39 494.615 1032.7 494.393 1034.83 495.045L1287.98 572.441C1290.11 573.093 1291.9 574.566 1292.95 576.535C1293.99 578.504 1294.22 580.808 1293.56 582.941C1292.91 585.073 1291.44 586.86 1289.47 587.907C1287.5 588.954 1285.2 589.176 1283.06 588.524V588.524Z" fill="#E6E6E6" fill-opacity="0.59"/>
<path d="M1307.94 625.802L1021.62 538.265C1019.48 537.613 1017.7 536.141 1016.65 534.172C1015.6 532.202 1015.38 529.898 1016.03 527.765C1016.69 525.633 1018.16 523.846 1020.13 522.799C1022.1 521.752 1024.4 521.531 1026.53 522.183L1312.85 609.719C1314.99 610.371 1316.77 611.844 1317.82 613.813C1318.87 615.782 1319.09 618.086 1318.44 620.219C1317.78 622.352 1316.31 624.138 1314.34 625.185C1312.37 626.232 1310.07 626.454 1307.94 625.802Z" fill="#E6E6E6" fill-opacity="0.59"/>
<path d="M1255.7 678.036L1002.55 600.641C1000.41 599.989 998.628 598.516 997.581 596.547C996.534 594.578 996.313 592.274 996.965 590.141C997.617 588.008 999.089 586.222 1001.06 585.175C1003.03 584.128 1005.33 583.906 1007.46 584.558L1260.61 661.954C1262.75 662.606 1264.53 664.078 1265.58 666.047C1266.63 668.016 1266.85 670.321 1266.2 672.453C1265.54 674.586 1264.07 676.372 1262.1 677.419C1260.13 678.466 1257.83 678.688 1255.7 678.036Z" fill="#E6E6E6" fill-opacity="0.59"/>
<path d="M1280.57 715.314L994.251 627.778C992.118 627.126 990.332 625.653 989.285 623.684C988.238 621.715 988.016 619.411 988.668 617.278C989.32 615.145 990.792 613.359 992.761 612.312C994.731 611.265 997.035 611.043 999.168 611.695L1285.49 699.232C1287.62 699.884 1289.41 701.356 1290.45 703.325C1291.5 705.295 1291.72 707.599 1291.07 709.732C1290.42 711.864 1288.94 713.651 1286.98 714.698C1285.01 715.745 1282.7 715.966 1280.57 715.314Z" fill="#E6E6E6" fill-opacity="0.59"/>
<path d="M1823.06 828.348L1441.29 711.628C1436.48 710.152 1432.46 706.831 1430.1 702.394C1427.74 697.957 1427.24 692.765 1428.7 687.957L1587.16 169.684C1588.63 164.879 1591.95 160.856 1596.39 158.496C1600.83 156.137 1606.02 155.634 1610.83 157.098L1992.6 273.818C1997.41 275.293 2001.43 278.613 2003.79 283.051C2006.15 287.489 2006.65 292.681 2005.19 297.489L1846.73 815.766C1845.26 820.571 1841.94 824.594 1837.5 826.954C1833.06 829.313 1827.87 829.816 1823.06 828.352L1823.06 828.348Z" fill="white"/>
<path d="M1823.29 828.638L1441.24 711.833C1436.43 710.356 1432.41 707.033 1430.05 702.593C1427.69 698.152 1427.18 692.956 1428.65 688.145L1587.21 169.497C1588.69 164.689 1592.01 160.662 1596.45 158.301C1600.89 155.94 1606.09 155.437 1610.9 156.902L1992.95 273.706C1997.76 275.182 2001.79 278.505 2004.15 282.946C2006.51 287.387 2007.01 292.583 2005.55 297.395L1846.98 816.047C1845.5 820.855 1842.18 824.881 1837.74 827.242C1833.3 829.604 1828.1 830.107 1823.29 828.642L1823.29 828.638ZM1610.25 159.038C1606 157.746 1601.42 158.191 1597.5 160.274C1593.58 162.357 1590.65 165.908 1589.35 170.15L1430.78 688.798C1429.49 693.043 1429.93 697.626 1432.02 701.544C1434.1 705.461 1437.65 708.393 1441.89 709.696L1823.95 826.501C1828.19 827.793 1832.77 827.348 1836.69 825.265C1840.61 823.182 1843.54 819.631 1844.84 815.389L2003.41 296.741C2004.7 292.496 2004.26 287.913 2002.18 283.995C2000.09 280.077 1996.54 277.146 1992.3 275.843L1610.25 159.038Z" fill="#CCCCCC"/>
<path d="M1729.72 349.414C1725.69 362.609 1717.83 374.311 1707.15 383.041C1696.46 391.772 1683.43 397.137 1669.69 398.46C1655.96 399.782 1642.14 397.002 1629.99 390.471C1617.83 383.94 1607.89 373.952 1601.41 361.769C1594.93 349.586 1592.21 335.756 1593.59 322.027C1594.98 308.298 1600.4 295.288 1609.18 284.641C1617.95 273.994 1629.69 266.189 1642.9 262.213C1656.11 258.236 1670.21 258.267 1683.4 262.301C1692.17 264.979 1700.31 269.357 1707.38 275.185C1714.45 281.012 1720.3 288.175 1724.61 296.264C1728.91 304.353 1731.57 313.211 1732.45 322.33C1733.33 331.449 1732.4 340.652 1729.72 349.414V349.414Z" fill="white"/>
<path d="M1690.35 349.861C1676.58 392.306 1613.11 372.896 1625.43 330.013C1639.21 287.567 1702.67 306.978 1690.35 349.861Z" fill="#00796B"/>
<path d="M1652.56 352.787L1652.9 351.564C1660.92 355.237 1665.89 345.42 1656.27 346.721L1662.49 333.248L1663.64 333.779L1658.35 345.243C1667.63 346.631 1660.96 356.687 1652.56 352.787Z" fill="#2F2E41"/>
<path d="M1675.8 338.621L1669.27 336.624L1668.9 337.836L1675.43 339.833L1675.8 338.621Z" fill="#2F2E41"/>
<path d="M1655.18 332.317L1648.65 330.319L1648.28 331.532L1654.81 333.529L1655.18 332.317Z" fill="#2F2E41"/>
<path d="M1654.54 388.536C1658.44 380.331 1647.86 378.953 1642.56 377.24C1641.7 376.981 1640.8 376.916 1639.91 377.051C1639.02 377.185 1638.17 377.517 1637.43 378.02C1636.69 378.523 1636.07 379.186 1635.61 379.96C1635.16 380.734 1634.88 381.6 1634.8 382.495C1630.29 382.509 1625.83 383.448 1621.7 385.253C1634.03 394.288 1648.98 399.041 1664.27 398.786C1661.81 394.704 1658.49 391.207 1654.54 388.536V388.536Z" fill="#2F2E41"/>
<path d="M1647.33 319.919C1654.41 318.281 1660.89 323.179 1666.65 326.537C1677.33 333.765 1695.25 334.282 1700.98 320.676C1706.47 308.072 1690.83 295.33 1681.14 306.583L1682.87 306.874C1672.76 273.687 1640.23 264.882 1628.87 302.788C1628.44 303.936 1630.27 304.489 1630.69 303.344C1636.83 280.837 1656.24 270.106 1672.73 290.814C1676.27 295.886 1679.06 301.444 1681.02 307.314C1682.45 310.413 1686.12 300.072 1695.68 305.998C1705.77 313.93 1697.03 329.176 1685.7 329.65C1671.08 332.243 1661.23 315.539 1646.89 318.073C1646.65 318.134 1646.44 318.288 1646.31 318.502C1646.18 318.716 1646.14 318.972 1646.19 319.215C1646.25 319.459 1646.4 319.669 1646.61 319.802C1646.83 319.935 1647.08 319.979 1647.33 319.925L1647.33 319.919Z" fill="#2F2E41"/>
<path d="M1642.06 397.552C1624.83 392.272 1610.23 380.692 1601.16 365.124C1592.1 349.555 1589.23 331.141 1593.14 313.554C1597.05 295.967 1607.45 280.5 1622.25 270.237C1637.06 259.975 1655.19 255.671 1673.03 258.185C1690.87 260.699 1707.11 269.845 1718.51 283.799C1729.9 297.754 1735.62 315.491 1734.51 333.473C1733.41 351.455 1725.57 368.361 1712.56 380.819C1699.54 393.276 1682.31 400.37 1664.3 400.686C1656.76 400.817 1649.26 399.76 1642.06 397.552V397.552ZM1682.85 264.122C1670.01 260.195 1656.3 260.163 1643.44 264.03C1630.59 267.898 1619.17 275.49 1610.63 285.848C1602.09 296.206 1596.81 308.863 1595.47 322.22C1594.12 335.577 1596.77 349.032 1603.07 360.885C1609.37 372.738 1619.05 382.457 1630.87 388.81C1642.7 395.164 1656.14 397.869 1669.5 396.582C1682.87 395.295 1695.55 390.074 1705.94 381.58C1716.34 373.085 1723.98 361.699 1727.9 348.861C1733.16 331.649 1731.37 313.054 1722.92 297.163C1714.47 281.272 1700.06 269.387 1682.85 264.122Z" fill="#CCCCCC"/>
<path d="M1855.69 388.368L1754.04 357.293C1751.91 356.641 1750.13 355.168 1749.08 353.199C1748.03 351.23 1747.81 348.926 1748.46 346.793C1749.11 344.661 1750.59 342.874 1752.56 341.827C1754.52 340.78 1756.83 340.558 1758.96 341.21L1860.6 372.285C1862.74 372.937 1864.52 374.41 1865.57 376.379C1866.62 378.348 1866.84 380.652 1866.19 382.785C1865.53 384.918 1864.06 386.704 1862.09 387.751C1860.12 388.798 1857.82 389.02 1855.69 388.368L1855.69 388.368Z" fill="#E6E6E6" fill-opacity="0.59"/>
<path d="M1880.56 425.648L1745.75 384.431C1743.62 383.779 1741.83 382.307 1740.78 380.338C1739.74 378.368 1739.51 376.064 1740.17 373.931C1740.82 371.799 1742.29 370.012 1744.26 368.965C1746.23 367.918 1748.53 367.697 1750.66 368.349L1885.48 409.565C1887.61 410.217 1889.4 411.69 1890.44 413.659C1891.49 415.628 1891.71 417.932 1891.06 420.065C1890.41 422.198 1888.94 423.984 1886.97 425.031C1885 426.078 1882.69 426.3 1880.56 425.648V425.648Z" fill="#E6E6E6" fill-opacity="0.59"/>
<path d="M1815.42 519.548L1562.27 442.153C1560.14 441.501 1558.35 440.028 1557.31 438.059C1556.26 436.09 1556.04 433.786 1556.69 431.653C1557.34 429.52 1558.81 427.734 1560.78 426.687C1562.75 425.64 1565.06 425.418 1567.19 426.07L1820.34 503.466C1822.47 504.118 1824.26 505.59 1825.3 507.559C1826.35 509.528 1826.57 511.833 1825.92 513.965C1825.27 516.098 1823.8 517.884 1821.83 518.931C1819.86 519.978 1817.55 520.2 1815.42 519.548Z" fill="#E6E6E6" fill-opacity="0.59"/>
<path d="M1840.29 556.829L1553.97 469.292C1551.84 468.64 1550.05 467.167 1549.01 465.198C1547.96 463.229 1547.74 460.925 1548.39 458.792C1549.04 456.66 1550.52 454.873 1552.48 453.826C1554.45 452.779 1556.76 452.557 1558.89 453.209L1845.21 540.746C1847.34 541.398 1849.13 542.871 1850.18 544.84C1851.22 546.809 1851.44 549.113 1850.79 551.246C1850.14 553.378 1848.67 555.165 1846.7 556.212C1844.73 557.259 1842.43 557.481 1840.29 556.829Z" fill="#E6E6E6" fill-opacity="0.59"/>
<path d="M1788.05 609.061L1534.91 531.666C1532.77 531.014 1530.99 529.542 1529.94 527.572C1528.89 525.603 1528.67 523.299 1529.32 521.166C1529.97 519.034 1531.45 517.247 1533.42 516.2C1535.39 515.153 1537.69 514.931 1539.82 515.583L1792.97 592.979C1795.1 593.631 1796.89 595.103 1797.94 597.072C1798.98 599.041 1799.21 601.346 1798.55 603.479C1797.9 605.611 1796.43 607.398 1794.46 608.444C1792.49 609.491 1790.19 609.713 1788.05 609.061Z" fill="#E6E6E6" fill-opacity="0.59"/>
<path d="M1812.93 646.341L1526.61 558.805C1524.47 558.153 1522.69 556.68 1521.64 554.711C1520.59 552.742 1520.37 550.438 1521.02 548.305C1521.68 546.172 1523.15 544.386 1525.12 543.339C1527.09 542.292 1529.39 542.07 1531.52 542.722L1817.84 630.259C1819.98 630.911 1821.76 632.383 1822.81 634.352C1823.86 636.321 1824.08 638.626 1823.43 640.758C1822.77 642.891 1821.3 644.677 1819.33 645.724C1817.36 646.771 1815.06 646.993 1812.93 646.341Z" fill="#E6E6E6" fill-opacity="0.59"/>
<path d="M1760.69 698.576L1507.54 621.181C1505.41 620.529 1503.62 619.056 1502.57 617.087C1501.53 615.118 1501.3 612.814 1501.96 610.681C1502.61 608.548 1504.08 606.762 1506.05 605.715C1508.02 604.668 1510.32 604.446 1512.46 605.098L1765.6 682.493C1767.74 683.145 1769.52 684.618 1770.57 686.587C1771.62 688.556 1771.84 690.86 1771.19 692.993C1770.53 695.126 1769.06 696.912 1767.09 697.959C1765.12 699.006 1762.82 699.228 1760.69 698.576Z" fill="#E6E6E6" fill-opacity="0.59"/>
<path d="M1785.56 735.854L1499.24 648.318C1497.11 647.666 1495.32 646.193 1494.27 644.224C1493.23 642.255 1493.01 639.951 1493.66 637.818C1494.31 635.685 1495.78 633.899 1497.75 632.852C1499.72 631.805 1502.02 631.583 1504.16 632.235L1790.48 719.772C1792.61 720.424 1794.4 721.896 1795.44 723.865C1796.49 725.835 1796.71 728.139 1796.06 730.272C1795.41 732.404 1793.93 734.191 1791.97 735.238C1790 736.284 1787.69 736.506 1785.56 735.854Z" fill="#E6E6E6" fill-opacity="0.59"/>
<path d="M1523.59 948.169L1164.39 838.35C1159.87 836.963 1156.09 833.838 1153.87 829.663C1151.65 825.488 1151.17 820.602 1152.55 816.079L1301.63 328.446C1303.02 323.925 1306.15 320.139 1310.32 317.919C1314.5 315.699 1319.38 315.226 1323.91 316.604L1683.11 426.423C1687.63 427.81 1691.41 430.935 1693.63 435.11C1695.85 439.285 1696.33 444.171 1694.95 448.694L1545.87 936.326C1544.48 940.847 1541.35 944.633 1537.18 946.853C1533 949.073 1528.12 949.547 1523.59 948.169V948.169Z" fill="white"/>
<path d="M1315.48 451.299C1312.79 460.076 1311.86 469.3 1312.74 478.44C1313.63 487.579 1316.32 496.452 1320.65 504.547C1321.01 505.222 1321.39 505.901 1321.77 506.569C1324.1 510.601 1326.82 514.39 1329.9 517.88C1330.49 518.551 1331.08 519.204 1331.7 519.85C1334.87 523.183 1338.37 526.191 1342.14 528.831C1342.79 529.289 1343.45 529.738 1344.12 530.168C1356.26 538.05 1370.54 541.98 1385 541.419C1385.28 541.405 1385.56 541.392 1385.84 541.378C1398.59 540.712 1410.91 536.562 1421.46 529.38C1432.01 522.198 1440.39 512.259 1445.68 500.645C1450.98 489.031 1452.99 476.187 1451.49 463.512C1449.99 450.836 1445.04 438.815 1437.18 428.756C1429.33 418.697 1418.86 410.986 1406.93 406.463C1394.99 401.939 1382.04 400.777 1369.49 403.101C1356.94 405.426 1345.27 411.149 1335.75 419.648C1326.22 428.146 1319.21 439.094 1315.48 451.299L1315.48 451.299Z" fill="white"/>
<path d="M1358.11 500.088C1356.56 505.267 1353.13 509.678 1348.49 512.452C1343.91 515.167 1338.04 516.102 1333.2 513.494C1328.75 511.093 1326.16 505.765 1328.18 500.897C1328.59 499.835 1329.23 498.875 1330.05 498.085C1330.87 497.295 1331.85 496.693 1332.93 496.322C1334.01 495.951 1335.15 495.819 1336.29 495.936C1337.42 496.053 1338.51 496.416 1339.49 496.999C1343.64 499.546 1343.45 506.593 1338.76 508.493C1337.64 508.949 1336.73 507.274 1337.87 506.814C1338.59 506.472 1339.21 505.956 1339.68 505.312C1340.14 504.669 1340.44 503.919 1340.54 503.13C1340.64 502.342 1340.55 501.54 1340.26 500.799C1339.97 500.058 1339.5 499.402 1338.89 498.889C1338.15 498.373 1337.3 498.033 1336.4 497.895C1335.51 497.757 1334.59 497.824 1333.73 498.091C1332.86 498.359 1332.07 498.819 1331.41 499.438C1330.75 500.058 1330.23 500.819 1329.91 501.665C1328.32 505.804 1330.59 509.98 1334.33 511.945C1338.38 514.071 1343.32 513.174 1347.16 511.027C1351.57 508.521 1354.85 504.401 1356.29 499.532C1356.37 499.299 1356.54 499.107 1356.76 498.995C1356.98 498.884 1357.23 498.862 1357.47 498.934C1357.7 499.006 1357.9 499.166 1358.02 499.382C1358.14 499.597 1358.17 499.85 1358.11 500.088L1358.11 500.088Z" fill="#2F2E41"/>
<path d="M1372.34 517.087C1390.27 522.567 1409.25 512.478 1414.73 494.551C1420.21 476.623 1410.12 457.648 1392.19 452.167C1374.26 446.686 1355.29 456.775 1349.81 474.703C1344.33 492.63 1354.42 511.606 1372.34 517.087Z" fill="#00796B"/>
<path d="M1376.37 497.97L1376.71 496.747C1378.99 497.374 1381.02 497.841 1382.85 497.206C1383.37 497.008 1383.85 496.7 1384.24 496.302C1384.63 495.905 1384.94 495.427 1385.13 494.901C1385.26 494.582 1385.31 494.239 1385.28 493.897C1385.25 493.556 1385.15 493.225 1384.97 492.932C1384.51 492.417 1383.92 492.035 1383.26 491.827C1382.6 491.62 1381.9 491.593 1381.23 491.751L1380.08 491.904L1386.3 478.431L1387.45 478.964L1382.16 490.428C1382.91 490.384 1383.65 490.528 1384.33 490.846C1385 491.164 1385.59 491.647 1386.03 492.25C1386.31 492.704 1386.49 493.217 1386.54 493.75C1386.59 494.282 1386.52 494.819 1386.33 495.319C1386.07 496.027 1385.67 496.67 1385.14 497.203C1384.61 497.737 1383.97 498.148 1383.26 498.409C1380.91 499.219 1378.39 498.526 1376.37 497.97Z" fill="#2F2E41"/>
<path d="M1399.62 483.805L1393.08 481.808L1392.71 483.02L1399.25 485.018L1399.62 483.805Z" fill="#2F2E41"/>
<path d="M1379 477.501L1372.46 475.503L1372.09 476.716L1378.63 478.713L1379 477.501Z" fill="#2F2E41"/>
<path d="M1344.13 530.168C1356.26 538.05 1370.54 541.981 1385 541.419C1385.28 541.405 1385.57 541.392 1385.84 541.378C1383.49 538.061 1380.56 535.197 1377.19 532.922C1377.74 532.069 1378.03 531.08 1378.05 530.067C1378.04 528.775 1377.62 527.52 1376.84 526.489C1376.06 525.458 1374.97 524.705 1373.73 524.343L1365.82 521.925C1364.59 521.532 1363.27 521.546 1362.05 521.965C1360.83 522.385 1359.78 523.188 1359.05 524.254C1358.5 525.103 1358.19 526.091 1358.17 527.106C1354.59 527.108 1351.03 527.679 1347.62 528.797C1346.94 529.02 1346.27 529.264 1345.61 529.53C1345.11 529.729 1344.61 529.946 1344.13 530.168Z" fill="#2F2E41"/>
<path d="M1408.75 488.958C1407.08 494.428 1408.38 499.788 1411.64 501.648C1411.97 501.837 1412.32 501.99 1412.69 502.103C1416.7 503.328 1421.46 499.433 1423.3 493.411C1424.34 490.333 1424.28 486.99 1423.13 483.953C1422.76 483.056 1422.21 482.242 1421.52 481.558C1420.91 480.961 1420.17 480.519 1419.36 480.268C1418.24 479.941 1417.04 479.974 1415.94 480.364C1412.94 481.354 1410.08 484.597 1408.75 488.958Z" fill="#3F3D56"/>
<path d="M1343.85 469.117C1342.41 473.824 1343.18 478.447 1345.5 480.834C1346.13 481.496 1346.92 481.986 1347.79 482.26C1347.99 482.319 1348.18 482.366 1348.38 482.401C1352.26 483.101 1356.66 479.299 1358.41 473.567C1359.81 468.977 1359.12 464.459 1356.93 462.032C1356.27 461.281 1355.42 460.725 1354.47 460.425C1353.65 460.179 1352.79 460.131 1351.96 460.287C1351 460.47 1350.09 460.841 1349.27 461.377C1346.63 463.253 1344.71 465.988 1343.85 469.117L1343.85 469.117Z" fill="#3F3D56"/>
<path d="M1346.27 479.926C1346.41 479.97 1346.57 479.979 1346.72 479.953C1346.86 479.926 1347 479.864 1347.12 479.773C1347.25 479.681 1347.34 479.562 1347.41 479.426C1347.47 479.289 1347.5 479.139 1347.5 478.988C1347.34 473.286 1348.5 467.624 1350.89 462.443C1353.27 457.262 1356.82 452.701 1361.26 449.114C1365.69 445.527 1370.89 443.011 1376.46 441.762C1382.03 440.513 1387.81 440.564 1393.35 441.911C1398.89 443.258 1404.05 445.865 1408.42 449.53C1412.79 453.194 1416.26 457.817 1418.55 463.04C1420.85 468.262 1421.91 473.943 1421.65 479.642C1421.39 485.34 1419.82 490.902 1417.06 495.896C1417 496.006 1416.95 496.128 1416.93 496.256C1416.91 496.384 1416.92 496.514 1416.95 496.639C1416.98 496.765 1417.04 496.882 1417.12 496.984C1417.2 497.085 1417.3 497.17 1417.41 497.232C1417.53 497.295 1417.65 497.333 1417.78 497.345C1417.91 497.358 1418.04 497.344 1418.16 497.304C1418.29 497.265 1418.4 497.2 1418.5 497.115C1418.6 497.03 1418.67 496.926 1418.73 496.81C1421.63 491.56 1423.28 485.712 1423.55 479.72C1423.83 473.728 1422.71 467.754 1420.3 462.263C1417.89 456.771 1414.24 451.909 1409.65 448.056C1405.05 444.203 1399.63 441.461 1393.8 440.045C1387.97 438.628 1381.9 438.575 1376.04 439.889C1370.19 441.203 1364.72 443.849 1360.06 447.622C1355.39 451.394 1351.66 456.191 1349.16 461.639C1346.65 467.088 1345.43 473.041 1345.6 479.037C1345.61 479.236 1345.67 479.428 1345.8 479.586C1345.92 479.744 1346.08 479.86 1346.27 479.918L1346.27 479.926Z" fill="#3F3D56"/>
<path d="M1405.01 468.583C1405.28 469.627 1405.18 470.731 1404.74 471.716C1404.3 472.7 1403.54 473.505 1402.58 473.999C1400.21 475.434 1397.37 474.698 1395.04 473.582C1392.43 472.336 1389.92 470.165 1386.88 470.181C1384.29 470.199 1381.95 471.823 1379.33 471.611C1377.01 471.423 1374.6 469.995 1374.55 467.442C1374.52 466.219 1376.42 466.275 1376.45 467.495C1376.48 469.147 1378.62 469.769 1379.97 469.726C1382.13 469.659 1384.14 468.499 1386.3 468.312C1388.81 468.304 1391.26 469.061 1393.33 470.484C1395.35 471.642 1397.64 473.133 1400.08 472.879C1401.89 472.692 1403.83 470.949 1403.15 469.021C1402.75 467.863 1404.6 467.441 1405 468.582L1405.01 468.583Z" fill="#2F2E41"/>
<path d="M1361.24 540.23C1354.83 538.273 1348.71 535.423 1343.09 531.762C1342.43 531.337 1341.74 530.874 1341.05 530.388C1337.18 527.675 1333.59 524.586 1330.33 521.164C1329.71 520.523 1329.11 519.86 1328.47 519.137C1325.31 515.552 1322.51 511.66 1320.13 507.519C1319.73 506.836 1319.35 506.142 1318.98 505.452C1311.67 491.766 1309.01 476.081 1311.38 460.751C1313.76 445.422 1321.04 431.277 1332.14 420.441C1343.24 409.605 1357.55 402.663 1372.94 400.658C1388.32 398.653 1403.94 401.693 1417.44 409.322C1430.95 416.951 1441.61 428.757 1447.84 442.965C1454.06 457.174 1455.51 473.018 1451.96 488.119C1448.41 503.219 1440.05 516.759 1428.15 526.706C1416.25 536.652 1401.44 542.468 1385.95 543.279C1385.67 543.295 1385.38 543.307 1385.09 543.32C1377.03 543.644 1368.96 542.599 1361.25 540.231L1361.24 540.23ZM1402.04 406.8C1389.19 402.874 1375.47 402.847 1362.61 406.723C1349.76 410.6 1338.34 418.204 1329.8 428.575C1321.27 438.945 1316 451.615 1314.67 464.98C1313.34 478.344 1316.01 491.803 1322.33 503.652C1322.68 504.3 1323.05 504.966 1323.42 505.619C1325.68 509.541 1328.33 513.227 1331.32 516.622C1331.92 517.306 1332.5 517.932 1333.08 518.536C1336.17 521.777 1339.57 524.704 1343.23 527.273C1343.88 527.729 1344.53 528.163 1345.15 528.567C1356.96 536.237 1370.86 540.061 1384.93 539.513L1385.75 539.474C1401.68 538.635 1416.8 532.212 1428.47 521.331C1440.14 510.45 1447.6 495.807 1449.54 479.974C1451.49 464.14 1447.79 448.127 1439.11 434.746C1430.42 421.365 1417.3 411.472 1402.04 406.802L1402.04 406.8Z" fill="#CCCCCC"/>
<path d="M1523.59 948.169L1164.39 838.35C1159.87 836.963 1156.09 833.838 1153.87 829.663C1151.65 825.488 1151.17 820.602 1152.55 816.079L1301.63 328.446C1303.02 323.925 1306.15 320.139 1310.32 317.919C1314.5 315.699 1319.38 315.226 1323.91 316.604L1683.11 426.423C1687.63 427.81 1691.41 430.935 1693.63 435.11C1695.85 439.285 1696.33 444.171 1694.95 448.694L1545.87 936.326C1544.48 940.847 1541.35 944.633 1537.18 946.853C1533 949.073 1528.12 949.547 1523.59 948.169V948.169ZM1323.29 318.61C1319.3 317.396 1314.99 317.814 1311.31 319.772C1307.62 321.731 1304.87 325.07 1303.64 329.057L1154.56 816.692C1153.34 820.683 1153.76 824.992 1155.72 828.675C1157.68 832.359 1161.02 835.115 1165.01 836.34L1524.21 946.159C1528.2 947.373 1532.51 946.956 1536.19 944.997C1539.88 943.039 1542.63 939.699 1543.86 935.712L1692.94 448.08C1694.15 444.089 1693.74 439.78 1691.78 436.096C1689.82 432.413 1686.48 429.657 1682.49 428.432L1323.29 318.61Z" fill="#3F3D56"/>
<path d="M1574.85 531.81L1473.21 500.735C1471.08 500.083 1469.29 498.61 1468.24 496.641C1467.2 494.672 1466.97 492.368 1467.63 490.235C1468.28 488.102 1469.75 486.316 1471.72 485.269C1473.69 484.222 1475.99 484 1478.12 484.652L1579.77 515.727C1581.9 516.379 1583.69 517.852 1584.73 519.821C1585.78 521.79 1586 524.094 1585.35 526.227C1584.7 528.36 1583.22 530.146 1581.26 531.193C1579.29 532.24 1576.98 532.462 1574.85 531.81L1574.85 531.81Z" fill="#00796B"/>
<path d="M1599.72 569.091L1464.91 527.874C1462.78 527.222 1460.99 525.75 1459.94 523.78C1458.9 521.811 1458.67 519.507 1459.33 517.374C1459.98 515.242 1461.45 513.455 1463.42 512.408C1465.39 511.361 1467.69 511.139 1469.83 511.791L1604.64 553.008C1606.77 553.66 1608.56 555.133 1609.61 557.102C1610.65 559.071 1610.87 561.375 1610.22 563.508C1609.57 565.64 1608.1 567.427 1606.13 568.474C1604.16 569.521 1601.86 569.743 1599.72 569.091V569.091Z" fill="#00796B"/>
<path d="M1534.58 662.992L1281.43 585.595C1279.3 584.943 1277.51 583.471 1276.46 581.502C1275.42 579.533 1275.2 577.228 1275.85 575.095C1276.5 572.963 1277.97 571.176 1279.94 570.13C1281.91 569.083 1284.21 568.861 1286.35 569.513L1539.5 646.909C1541.63 647.561 1543.42 649.034 1544.47 651.003C1545.51 652.972 1545.73 655.276 1545.08 657.409C1544.43 659.542 1542.96 661.328 1540.99 662.375C1539.02 663.422 1536.72 663.644 1534.58 662.992V662.992Z" fill="#CCCCCC"/>
<path d="M1559.45 700.271L1273.13 612.734C1271 612.082 1269.21 610.609 1268.17 608.64C1267.12 606.671 1266.9 604.367 1267.55 602.234C1268.2 600.102 1269.67 598.315 1271.64 597.268C1273.61 596.221 1275.92 595.999 1278.05 596.651L1564.37 684.189C1566.5 684.841 1568.29 686.313 1569.34 688.282C1570.38 690.251 1570.61 692.556 1569.95 694.688C1569.3 696.821 1567.83 698.607 1565.86 699.654C1563.89 700.701 1561.59 700.923 1559.45 700.271V700.271Z" fill="#CCCCCC"/>
<path d="M1507.22 752.504L1254.06 675.107C1251.93 674.455 1250.14 672.983 1249.1 671.014C1248.05 669.045 1247.83 666.74 1248.48 664.608C1249.13 662.475 1250.61 660.689 1252.57 659.642C1254.54 658.595 1256.85 658.373 1258.98 659.025L1512.13 736.421C1514.27 737.073 1516.05 738.546 1517.1 740.515C1518.15 742.484 1518.37 744.788 1517.72 746.921C1517.06 749.054 1515.59 750.84 1513.62 751.887C1511.65 752.934 1509.35 753.156 1507.22 752.504V752.504Z" fill="#CCCCCC"/>
<path d="M1532.09 789.784L1245.77 702.247C1243.63 701.595 1241.85 700.122 1240.8 698.153C1239.75 696.184 1239.53 693.88 1240.18 691.747C1240.84 689.614 1242.31 687.828 1244.28 686.781C1246.25 685.734 1248.55 685.512 1250.68 686.164L1537 773.701C1539.14 774.353 1540.92 775.826 1541.97 777.795C1543.02 779.764 1543.24 782.068 1542.59 784.201C1541.94 786.334 1540.46 788.12 1538.49 789.167C1536.52 790.214 1534.22 790.436 1532.09 789.784V789.784Z" fill="#CCCCCC"/>
<path d="M1479.85 842.014L1226.7 764.617C1224.57 763.965 1222.78 762.493 1221.73 760.524C1220.68 758.554 1220.46 756.25 1221.12 754.117C1221.77 751.985 1223.24 750.198 1225.21 749.152C1227.18 748.105 1229.48 747.883 1231.61 748.535L1484.77 825.931C1486.9 826.583 1488.69 828.056 1489.73 830.025C1490.78 831.994 1491 834.298 1490.35 836.431C1489.7 838.564 1488.23 840.35 1486.26 841.397C1484.29 842.444 1481.98 842.666 1479.85 842.014V842.014Z" fill="#CCCCCC"/>
<path d="M1504.72 879.298L1218.4 791.76C1216.27 791.108 1214.48 789.636 1213.43 787.667C1212.39 785.698 1212.16 783.393 1212.82 781.261C1213.47 779.128 1214.94 777.342 1216.91 776.295C1218.88 775.248 1221.18 775.026 1223.32 775.678L1509.64 863.215C1511.77 863.867 1513.56 865.34 1514.6 867.309C1515.65 869.278 1515.87 871.582 1515.22 873.715C1514.57 875.847 1513.1 877.634 1511.13 878.681C1509.16 879.728 1506.85 879.95 1504.72 879.298V879.298Z" fill="#CCCCCC"/>
<path d="M1553.37 835.856C1542.96 832.626 1532 831.485 1521.14 832.498C1510.28 833.512 1499.73 836.659 1490.09 841.761C1480.45 846.862 1471.91 853.817 1464.97 862.226C1458.02 870.635 1452.8 880.333 1449.61 890.764C1446.43 901.194 1445.33 912.151 1446.38 923.007C1447.44 933.863 1450.63 944.403 1455.77 954.023C1460.91 963.643 1467.9 972.153 1476.33 979.066C1484.77 985.979 1494.49 991.158 1504.93 994.305C1515.35 997.535 1526.3 998.676 1537.16 997.663C1548.02 996.65 1558.57 993.502 1568.21 988.401C1577.85 983.299 1586.39 976.344 1593.34 967.935C1600.28 959.526 1605.5 949.828 1608.69 939.398C1611.88 928.968 1612.98 918.01 1611.92 907.155C1610.86 896.299 1607.68 885.759 1602.54 876.139C1597.4 866.519 1590.41 858.008 1581.97 851.095C1573.53 844.183 1563.82 839.004 1553.37 835.856Z" fill="#00796B"/>
<path d="M1511.58 945.686C1509.49 945.052 1507.67 943.757 1506.38 941.996L1506.3 941.886L1489.61 918.559C1488.82 917.478 1488.25 916.251 1487.94 914.95C1487.63 913.649 1487.58 912.299 1487.8 910.979C1488.01 909.658 1488.48 908.393 1489.19 907.257C1489.9 906.12 1490.82 905.135 1491.91 904.358C1493 903.58 1494.23 903.026 1495.53 902.728C1496.84 902.43 1498.19 902.393 1499.51 902.619C1500.82 902.846 1502.08 903.332 1503.21 904.048C1504.34 904.765 1505.32 905.698 1506.09 906.794L1516.89 921.929L1563.54 888.621C1565.72 887.061 1568.44 886.433 1571.08 886.875C1573.73 887.317 1576.09 888.792 1577.65 890.976L1577.36 891.2L1577.66 890.978C1579.21 893.164 1579.84 895.877 1579.4 898.523C1578.95 901.169 1577.48 903.531 1575.3 905.093L1520.44 944.249C1519.17 945.15 1517.71 945.747 1516.18 945.993C1514.64 946.24 1513.07 946.129 1511.58 945.669L1511.58 945.686Z" fill="white"/>
<path d="M510.395 62.565L480.642 78.7994L114.078 278.804L84.3229 295.037C69.8832 302.935 59.1663 316.238 54.5237 332.027C49.8811 347.817 51.692 364.804 59.5591 379.26L332.538 879.553C340.435 893.993 353.738 904.71 369.528 909.352C385.318 913.995 402.304 912.184 416.761 904.317L416.838 904.274L842.75 671.878L842.827 671.836C857.267 663.938 867.984 650.635 872.626 634.846C877.269 619.056 875.458 602.069 867.591 587.613L594.612 87.3223C586.714 72.8838 573.41 62.1682 557.62 57.5269C541.831 52.8855 524.845 54.6974 510.389 62.565H510.395Z" fill="#F2F2F2"/>
<path d="M488.773 5.86077L450.418 26.7949L63.4018 238.029L25.0482 258.963C13.8579 265.086 5.55289 275.4 1.95537 287.642C-1.64214 299.883 -0.238329 313.052 5.85883 324.259L302.955 868.945C309.076 880.138 319.387 888.446 331.624 892.044C343.862 895.643 357.026 894.238 368.229 888.139L368.314 888.094L831.869 635.084L831.953 635.038C843.143 628.915 851.448 618.601 855.045 606.359C858.642 594.118 857.238 580.949 851.141 569.742L554.046 25.0564C547.925 13.8625 537.615 5.5547 525.377 1.95601C513.14 -1.64269 499.975 -0.238392 488.772 5.86077H488.773Z" fill="white"/>
<path d="M524.83 233.542L365.978 320.215C364.787 320.865 363.479 321.274 362.129 321.419C360.779 321.563 359.414 321.441 358.112 321.058C356.81 320.675 355.596 320.04 354.539 319.188C353.482 318.336 352.604 317.284 351.954 316.092C351.304 314.901 350.895 313.593 350.75 312.243C350.605 310.893 350.728 309.528 351.111 308.226C351.493 306.924 352.129 305.71 352.981 304.653C353.833 303.596 354.885 302.718 356.077 302.068L514.928 215.395C517.335 214.082 520.164 213.778 522.794 214.551C525.424 215.325 527.64 217.111 528.953 219.517C530.266 221.924 530.569 224.753 529.796 227.383C529.023 230.014 527.236 232.229 524.83 233.542V233.542Z" fill="#F2F2F2"/>
<path d="M578.967 243.744L382.687 350.838C380.281 352.151 377.451 352.455 374.821 351.682C372.191 350.908 369.976 349.122 368.663 346.716C367.35 344.309 367.046 341.48 367.82 338.85C368.593 336.22 370.379 334.004 372.786 332.691L569.065 225.596C571.472 224.283 574.301 223.979 576.931 224.753C579.561 225.526 581.777 227.312 583.09 229.719C584.403 232.125 584.706 234.955 583.933 237.585C583.16 240.215 581.373 242.43 578.967 243.743V243.744Z" fill="#F2F2F2"/>
<path d="M300.673 284.136L154.221 364.041C153.068 364.67 152.212 365.731 151.842 366.991C151.471 368.251 151.616 369.607 152.245 370.76L214.609 485.058C215.238 486.211 216.299 487.066 217.559 487.437C218.819 487.808 220.175 487.663 221.328 487.034L367.777 407.129C368.93 406.5 369.786 405.439 370.157 404.179C370.527 402.919 370.382 401.563 369.753 400.41L307.393 286.112C306.763 284.959 305.702 284.103 304.442 283.733C303.182 283.362 301.826 283.507 300.673 284.136Z" fill="#F2F2F2"/>
<path d="M603.647 378.567L388.186 496.128C385.779 497.441 382.95 497.744 380.32 496.971C377.69 496.198 375.474 494.412 374.161 492.005C372.848 489.599 372.545 486.769 373.318 484.139C374.091 481.509 375.878 479.294 378.284 477.981L593.747 360.42C596.153 359.107 598.983 358.804 601.613 359.577C604.243 360.35 606.458 362.136 607.771 364.543C609.084 366.949 609.387 369.779 608.614 372.409C607.841 375.039 606.055 377.254 603.648 378.567H603.647Z" fill="#F2F2F2"/>
<path d="M657.785 388.768L404.895 526.751C402.488 528.064 399.659 528.368 397.028 527.595C394.398 526.822 392.183 525.035 390.87 522.629C389.556 520.222 389.253 517.393 390.026 514.763C390.799 512.132 392.585 509.917 394.992 508.604L647.884 370.618C650.29 369.305 653.12 369.002 655.75 369.775C658.38 370.548 660.595 372.335 661.908 374.741C663.221 377.148 663.524 379.977 662.751 382.607C661.978 385.237 660.192 387.452 657.785 388.765V388.768Z" fill="#F2F2F2"/>
<path d="M306.129 592.406C330.348 592.406 349.981 572.772 349.981 548.553C349.981 524.334 330.348 504.701 306.129 504.701C281.91 504.701 262.276 524.334 262.276 548.553C262.276 572.772 281.91 592.406 306.129 592.406Z" fill="#F2F2F2"/>
<path d="M962.252 268.71H476.885C460.429 268.728 444.651 275.274 433.015 286.91C421.378 298.547 414.833 314.324 414.814 330.781V900.703C414.833 917.159 421.378 932.936 433.015 944.573C444.651 956.209 460.429 962.755 476.885 962.773H962.252C978.708 962.755 994.485 956.209 1006.12 944.573C1017.76 932.936 1024.3 917.159 1024.32 900.703V330.781C1024.3 314.324 1017.76 298.547 1006.12 286.91C994.485 275.274 978.708 268.728 962.252 268.71V268.71Z" fill="#E6E6E6" fill-opacity="0.59"/>
<path d="M962.253 283.531H476.885C465.166 283.544 453.931 288.205 445.644 296.492C437.358 304.779 432.696 316.014 432.683 327.733V897.655C432.696 909.374 437.357 920.609 445.644 928.896C453.93 937.183 465.166 941.844 476.885 941.857H962.253C973.972 941.843 985.207 937.182 993.493 928.895C1001.78 920.609 1006.44 909.374 1006.45 897.655V327.733C1006.44 316.014 1001.78 304.779 993.493 296.492C985.206 288.205 973.971 283.544 962.252 283.531H962.253Z" fill="white"/>
<path d="M893.03 425.714H712.075C709.333 425.714 706.704 424.625 704.766 422.686C702.827 420.748 701.738 418.119 701.738 415.377C701.738 412.636 702.827 410.007 704.766 408.068C706.704 406.13 709.333 405.041 712.075 405.041H893.03C895.772 405.041 898.401 406.13 900.339 408.068C902.278 410.007 903.367 412.636 903.367 415.377C903.367 418.119 902.278 420.748 900.339 422.686C898.401 424.625 895.772 425.714 893.03 425.714V425.714Z" fill="#00796B"/>
<path d="M935.667 460.6H712.072C709.331 460.6 706.702 459.511 704.763 457.572C702.825 455.634 701.736 453.005 701.736 450.264C701.736 447.522 702.825 444.893 704.763 442.955C706.702 441.016 709.331 439.927 712.072 439.927H935.667C938.408 439.927 941.037 441.016 942.976 442.955C944.914 444.893 946.003 447.522 946.003 450.264C946.003 453.005 944.914 455.634 942.976 457.572C941.037 459.511 938.408 460.6 935.667 460.6Z" fill="#00796B"/>
<path d="M550.957 442.717C551.027 453.708 546.978 464.326 539.607 472.48C532.312 480.486 521.452 485.796 510.493 483.598C500.401 481.575 492.201 472.755 493.224 462.084C493.393 459.773 494.064 457.526 495.19 455.5C496.317 453.474 497.872 451.719 499.746 450.356C501.621 448.993 503.771 448.055 506.045 447.608C508.319 447.161 510.664 447.216 512.915 447.768C522.502 450.256 526.321 464.072 518.332 470.557C516.415 472.114 513.662 469.396 515.596 467.821C520.877 463.534 519.246 454.15 512.872 451.803C505.451 449.065 497.588 454.954 497.056 462.542C496.422 471.537 503.314 478.312 511.759 479.906C520.901 481.632 529.964 476.953 536.159 470.491C543.259 462.992 547.176 453.033 547.089 442.707C547.089 442.194 547.293 441.701 547.655 441.339C548.018 440.976 548.51 440.772 549.023 440.772C549.537 440.772 550.029 440.976 550.392 441.339C550.754 441.701 550.958 442.194 550.958 442.707L550.957 442.717Z" fill="#2F2E41"/>
<path d="M550.503 502.873C555.677 499.59 561.269 497.018 567.128 495.225C566.569 493.237 566.578 491.133 567.154 489.15C567.932 486.645 569.499 484.459 571.621 482.918C573.743 481.377 576.307 480.563 578.93 480.599H595.748C598.375 480.565 600.943 481.381 603.069 482.924C605.195 484.467 606.767 486.655 607.55 489.163C608.125 491.141 608.134 493.242 607.574 495.225C613.433 497.02 619.024 499.592 624.199 502.873H550.503Z" fill="#2F2E41"/>
<path d="M892.758 590.773H647.311C644.57 590.773 641.941 589.684 640.002 587.746C638.064 585.807 636.975 583.178 636.975 580.437C636.975 577.696 638.064 575.066 640.002 573.128C641.941 571.19 644.57 570.101 647.311 570.101H892.756C895.497 570.101 898.126 571.19 900.065 573.128C902.003 575.066 903.092 577.696 903.092 580.437C903.092 583.178 902.003 585.807 900.065 587.746C898.126 589.684 895.497 590.773 892.756 590.773H892.758Z" fill="#E6E6E6" fill-opacity="0.59"/>
<path d="M935.396 625.658H647.311C644.57 625.658 641.941 624.569 640.002 622.631C638.064 620.692 636.975 618.063 636.975 615.322C636.975 612.58 638.064 609.951 640.002 608.013C641.941 606.074 644.57 604.985 647.311 604.985H935.396C938.137 604.985 940.766 606.074 942.705 608.013C944.643 609.951 945.732 612.58 945.732 615.322C945.732 618.063 944.643 620.692 942.705 622.631C940.766 624.569 938.137 625.658 935.396 625.658Z" fill="#E6E6E6" fill-opacity="0.59"/>
<path d="M892.758 716.156H647.311C644.57 716.156 641.941 715.067 640.002 713.128C638.064 711.19 636.975 708.561 636.975 705.82C636.975 703.078 638.064 700.449 640.002 698.511C641.941 696.572 644.57 695.483 647.311 695.483H892.756C895.497 695.483 898.126 696.572 900.065 698.511C902.003 700.449 903.092 703.078 903.092 705.82C903.092 708.561 902.003 711.19 900.065 713.128C898.126 715.067 895.497 716.156 892.756 716.156H892.758Z" fill="#E6E6E6" fill-opacity="0.59"/>
<path d="M935.396 751.042H647.311C644.57 751.042 641.941 749.953 640.002 748.015C638.064 746.076 636.975 743.447 636.975 740.706C636.975 737.965 638.064 735.336 640.002 733.397C641.941 731.459 644.57 730.37 647.311 730.37H935.396C938.137 730.37 940.766 731.459 942.705 733.397C944.643 735.336 945.732 737.965 945.732 740.706C945.732 743.447 944.643 746.076 942.705 748.015C940.766 749.953 938.137 751.042 935.396 751.042Z" fill="#E6E6E6" fill-opacity="0.59"/>
<path d="M550.169 641.343C574.388 641.343 594.021 621.71 594.021 597.491C594.021 573.272 574.388 553.638 550.169 553.638C525.95 553.638 506.316 573.272 506.316 597.491C506.316 621.71 525.95 641.343 550.169 641.343Z" fill="#E6E6E6" fill-opacity="0.59"/>
<path d="M550.169 767.743C574.388 767.743 594.021 748.109 594.021 723.89C594.021 699.671 574.388 680.038 550.169 680.038C525.95 680.038 506.316 699.671 506.316 723.89C506.316 748.109 525.95 767.743 550.169 767.743Z" fill="#E6E6E6" fill-opacity="0.59"/>
<path d="M892.758 842.554H647.311C644.57 842.554 641.941 841.465 640.002 839.527C638.064 837.589 636.975 834.959 636.975 832.218C636.975 829.477 638.064 826.848 640.002 824.909C641.941 822.971 644.57 821.882 647.311 821.882H892.756C895.497 821.882 898.126 822.971 900.065 824.909C902.003 826.848 903.092 829.477 903.092 832.218C903.092 834.959 902.003 837.589 900.065 839.527C898.126 841.465 895.497 842.554 892.756 842.554H892.758Z" fill="#E6E6E6" fill-opacity="0.59"/>
<path d="M935.396 877.44H647.311C644.57 877.44 641.941 876.351 640.002 874.413C638.064 872.474 636.975 869.845 636.975 867.104C636.975 864.363 638.064 861.733 640.002 859.795C641.941 857.857 644.57 856.768 647.311 856.768H935.396C938.137 856.768 940.766 857.857 942.705 859.795C944.643 861.733 945.732 864.363 945.732 867.104C945.732 869.845 944.643 872.474 942.705 874.413C940.766 876.351 938.137 877.44 935.396 877.44Z" fill="#E6E6E6" fill-opacity="0.59"/>
<path d="M550.169 894.14C574.388 894.14 594.021 874.507 594.021 850.288C594.021 826.069 574.388 806.436 550.169 806.436C525.95 806.436 506.316 826.069 506.316 850.288C506.316 874.507 525.95 894.14 550.169 894.14Z" fill="#E6E6E6" fill-opacity="0.59"/>
</g>
</svg>
