<svg width="1600" height="1200" viewBox="0 0 1600 300" fill="none" xmlns="http://www.w3.org/2000/svg">
<g opacity="0.69">
<path d="M1110.33 456.653L802.998 418.918C799.13 418.438 795.609 416.444 793.209 413.372C790.809 410.3 789.726 406.402 790.196 402.532L841.423 -14.6769C841.903 -18.5454 843.897 -22.0658 846.969 -24.4658C850.041 -26.8657 853.939 -27.9492 857.809 -27.4786L1165.14 10.2564C1169 10.7362 1172.52 12.7307 1174.92 15.8024C1177.32 18.8742 1178.41 22.7723 1177.94 26.6418L1126.71 443.851C1126.23 447.72 1124.24 451.24 1121.16 453.64C1118.09 456.04 1114.19 457.123 1110.32 456.653L1110.33 456.653Z" fill="white"/>
<path d="M984.287 98.2638C982.807 110.313 977.554 121.586 969.278 130.468C961.003 139.35 950.129 145.387 938.214 147.714C937.86 147.777 937.503 147.847 937.143 147.904C935.604 148.178 934.051 148.381 932.479 148.526C929.635 148.787 926.775 148.832 923.924 148.661C922.684 148.593 921.442 148.482 920.198 148.33C913.771 147.547 907.523 145.683 901.718 142.816C901.549 142.732 901.381 142.648 901.213 142.564C891.821 137.808 883.915 130.566 878.355 121.626C872.796 112.686 869.797 102.391 869.685 91.8641C869.573 81.3371 872.353 70.9813 877.721 61.9253C883.09 52.8692 890.84 45.4603 900.129 40.5058C909.418 35.5514 919.889 33.2415 930.4 33.8278C940.911 34.4142 951.06 37.8744 959.74 43.8312C968.421 49.7881 975.299 58.0131 979.627 67.61C983.955 77.207 985.565 87.8077 984.284 98.257L984.287 98.2638Z" fill="white"/>
<path d="M921.196 128.909C936.534 130.792 950.494 119.885 952.378 104.547C954.261 89.2088 943.354 75.2481 928.016 73.3648C912.677 71.4815 898.717 82.3889 896.833 97.727C894.95 113.065 905.857 127.026 921.196 128.909Z" fill="#00796B"/>
<path d="M924.388 116.297L924.544 115.263C922.62 114.972 920.932 114.642 919.768 113.551C919.44 113.226 919.185 112.835 919.022 112.403C918.858 111.971 918.79 111.509 918.821 111.049C918.833 110.767 918.91 110.491 919.045 110.243C919.181 109.996 919.372 109.782 919.604 109.621C920.123 109.387 920.696 109.298 921.261 109.362C921.827 109.426 922.365 109.642 922.818 109.986L923.629 110.486L923.46 98.253L922.415 98.2683L922.558 108.677C922.011 108.394 921.402 108.252 920.785 108.265C920.169 108.278 919.566 108.445 919.031 108.75C918.666 108.998 918.363 109.326 918.146 109.71C917.929 110.094 917.804 110.522 917.78 110.963C917.735 111.581 917.825 112.202 918.045 112.781C918.265 113.361 918.61 113.885 919.054 114.318C920.55 115.718 922.678 116.041 924.388 116.297Z" fill="#2F2E41"/>
<path d="M917.222 98.525L911.632 97.8386L911.505 98.876L917.095 99.5623L917.222 98.525Z" fill="#2F2E41"/>
<path d="M934.866 100.691L929.276 100.005L929.148 101.042L934.738 101.729L934.866 100.691Z" fill="#2F2E41"/>
<path d="M927.728 140.931C927.843 140.599 927.924 140.256 927.969 139.907C928.127 138.601 927.761 137.284 926.951 136.247C926.14 135.209 924.951 134.536 923.645 134.373L916.381 133.481C915.073 133.322 913.756 133.687 912.719 134.498C911.681 135.309 911.008 136.498 910.846 137.805C910.803 138.156 910.798 138.51 910.832 138.862C907.984 139.388 905.234 140.351 902.681 141.717C902.185 141.978 901.691 142.264 901.217 142.57C901.38 142.653 901.549 142.737 901.721 142.822C907.527 145.688 913.775 147.553 920.202 148.335C921.447 148.488 922.689 148.599 923.928 148.666C926.779 148.838 929.638 148.793 932.483 148.532C934.055 148.388 935.607 148.183 937.147 147.909C934.528 144.952 931.32 142.575 927.728 140.931V140.931Z" fill="#2F2E41"/>
<path d="M925.882 148.242C925.203 148.21 924.526 148.358 923.923 148.671C926.774 148.843 929.634 148.798 932.478 148.537L925.882 148.242Z" fill="#2F2E41"/>
<path d="M950.602 97.6327L904.528 74.0595C904.034 73.8068 903.661 73.3684 903.49 72.8406C903.32 72.3128 903.366 71.739 903.619 71.2453L903.877 70.494C908.909 60.6569 922.189 55.7102 932.031 60.7408L946.21 67.9952C956.047 73.0273 959.024 85.7727 953.993 95.6099L953.421 96.7233C953.296 96.9683 953.123 97.1863 952.914 97.3647C952.705 97.5431 952.462 97.6784 952.2 97.7629C951.938 97.8473 951.662 97.8793 951.388 97.857C951.114 97.8346 950.847 97.7584 950.602 97.6327V97.6327Z" fill="#2F2E41"/>
<path d="M953.08 98.9313C885.531 93.1557 880.693 83.9856 902.813 73.2151L908.141 65.7507L955.728 90.029L953.08 98.9313Z" fill="#2F2E41"/>
<path d="M943.692 66.3998C944.215 65.2102 942.817 63.4451 940.571 62.4574C938.324 61.4696 936.078 61.6332 935.555 62.8228C935.032 64.0124 936.43 65.7775 938.677 66.7653C940.924 67.7531 943.169 67.5894 943.692 66.3998Z" fill="#2F2E41"/>
<path d="M920.006 149.896C913.403 149.092 906.985 147.177 901.021 144.231L900.504 143.972C888.031 137.652 878.204 127.114 872.77 114.231C867.336 101.348 866.648 86.9553 870.827 73.6124C875.006 60.2695 883.783 48.8415 895.595 41.3606C907.408 33.8798 921.491 30.8311 935.34 32.7567C949.189 34.6823 961.906 41.4575 971.23 51.8772C980.553 62.2969 985.879 75.6858 986.26 89.6628C986.64 103.64 982.051 117.299 973.309 128.211C964.566 139.122 952.237 146.58 938.513 149.257C938.13 149.328 937.77 149.397 937.404 149.458C935.871 149.73 934.261 149.946 932.621 150.096C929.697 150.364 926.758 150.41 923.827 150.234C922.567 150.166 921.279 150.052 920.006 149.896ZM934.023 35.7351C920.958 34.1331 907.745 37.1892 896.71 44.366C885.676 51.5428 877.524 62.3807 873.691 74.9735C869.857 87.5663 870.586 101.108 875.75 113.216C880.914 125.324 890.182 135.224 901.924 141.174L902.415 141.421C908.061 144.21 914.138 146.022 920.388 146.783C921.591 146.93 922.809 147.038 924.008 147.104C926.783 147.27 929.566 147.227 932.334 146.974C933.886 146.832 935.41 146.628 936.866 146.369C937.226 146.306 937.568 146.241 937.912 146.176C950.982 143.625 962.714 136.495 970.998 126.069C979.283 115.643 983.577 102.603 983.108 89.2943C982.639 75.9855 977.439 63.2803 968.441 53.4625C959.444 43.6447 947.24 37.3581 934.022 35.7328L934.023 35.7351Z" fill="#CCCCCC"/>
<path d="M1110.33 456.653L802.998 418.918C799.13 418.438 795.609 416.444 793.209 413.372C790.809 410.3 789.726 406.402 790.196 402.532L841.423 -14.6769C841.903 -18.5454 843.897 -22.0658 846.969 -24.4658C850.041 -26.8657 853.939 -27.9492 857.809 -27.4786L1165.14 10.2564C1169 10.7362 1172.52 12.7307 1174.92 15.8024C1177.32 18.8742 1178.41 22.7723 1177.94 26.6418L1126.71 443.851C1126.23 447.72 1124.24 451.24 1121.16 453.64C1118.09 456.04 1114.19 457.123 1110.32 456.653L1110.33 456.653ZM857.598 -25.7617C854.184 -26.1763 850.746 -25.2202 848.036 -23.103C845.326 -20.9859 843.566 -17.8805 843.143 -14.4679L791.916 402.743C791.501 406.157 792.457 409.596 794.574 412.306C796.691 415.016 799.797 416.775 803.209 417.199L1110.54 454.934C1113.95 455.348 1117.39 454.392 1120.1 452.275C1122.81 450.158 1124.57 447.053 1124.99 443.64L1176.22 26.4308C1176.63 23.0171 1175.68 19.5783 1173.56 16.8684C1171.44 14.1586 1168.34 12.399 1164.92 11.9754L857.598 -25.7617Z" fill="#CCCCCC"/>
<path d="M1092.34 111.31L1005.37 100.631C1003.55 100.407 1001.89 99.4673 1000.76 98.0187C999.624 96.57 999.114 94.731 999.338 92.9064C999.562 91.0817 1000.5 89.4207 1001.95 88.2889C1003.4 87.1571 1005.24 86.6471 1007.06 86.8711L1094.03 97.5496C1095.86 97.7736 1097.52 98.7133 1098.65 100.162C1099.78 101.611 1100.29 103.45 1100.07 105.274C1099.84 107.099 1098.9 108.76 1097.45 109.892C1096.01 111.024 1094.17 111.534 1092.34 111.31V111.31Z" fill="#E6E6E6" fill-opacity="0.59"/>
<path d="M1117.86 138.017L1002.52 123.855C1000.7 123.631 999.035 122.691 997.903 121.242C996.771 119.794 996.261 117.955 996.485 116.13C996.709 114.305 997.649 112.644 999.098 111.513C1000.55 110.381 1002.39 109.871 1004.21 110.095L1119.55 124.257C1121.38 124.481 1123.04 125.421 1124.17 126.87C1125.3 128.318 1125.81 130.157 1125.59 131.982C1125.36 133.807 1124.43 135.468 1122.98 136.599C1121.53 137.731 1119.69 138.241 1117.86 138.017Z" fill="#E6E6E6" fill-opacity="0.59"/>
<path d="M1078.42 223.568L861.834 196.974C860.009 196.75 858.348 195.81 857.216 194.362C856.085 192.913 855.575 191.074 855.799 189.249C856.023 187.425 856.962 185.764 858.411 184.632C859.86 183.5 861.699 182.99 863.523 183.214L1080.11 209.808C1081.94 210.032 1083.6 210.972 1084.73 212.421C1085.86 213.869 1086.37 215.708 1086.15 217.533C1085.93 219.358 1084.99 221.019 1083.54 222.15C1082.09 223.282 1080.25 223.792 1078.42 223.568V223.568Z" fill="#E6E6E6" fill-opacity="0.59"/>
<path d="M1103.95 250.271L858.983 220.193C857.158 219.969 855.497 219.029 854.366 217.58C853.234 216.132 852.724 214.293 852.948 212.468C853.172 210.643 854.112 208.982 855.56 207.851C857.009 206.719 858.848 206.209 860.673 206.433L1105.64 236.511C1107.47 236.735 1109.13 237.675 1110.26 239.124C1111.39 240.572 1111.9 242.411 1111.68 244.236C1111.45 246.061 1110.51 247.722 1109.06 248.854C1107.62 249.985 1105.78 250.495 1103.95 250.271Z" fill="#E6E6E6" fill-opacity="0.59"/>
<path d="M1069.02 300.154L852.43 273.56C850.606 273.336 848.945 272.396 847.813 270.948C846.681 269.499 846.171 267.66 846.395 265.835C846.619 264.011 847.559 262.35 849.008 261.218C850.456 260.086 852.295 259.576 854.12 259.8L1070.71 286.394C1072.54 286.618 1074.2 287.558 1075.33 289.006C1076.46 290.455 1076.97 292.294 1076.75 294.119C1076.52 295.943 1075.58 297.604 1074.13 298.736C1072.68 299.868 1070.85 300.378 1069.02 300.154V300.154Z" fill="#E6E6E6" fill-opacity="0.59"/>
<path d="M1094.55 326.857L849.58 296.779C847.755 296.555 846.094 295.615 844.962 294.166C843.83 292.717 843.32 290.879 843.544 289.054C843.768 287.229 844.708 285.568 846.157 284.436C847.605 283.305 849.444 282.795 851.269 283.019L1096.24 313.097C1098.06 313.321 1099.72 314.261 1100.86 315.71C1101.99 317.158 1102.5 318.997 1102.27 320.822C1102.05 322.647 1101.11 324.307 1099.66 325.439C1098.21 326.571 1096.37 327.081 1094.55 326.857Z" fill="#E6E6E6" fill-opacity="0.59"/>
<path d="M1059.62 376.74L843.027 350.146C841.202 349.922 839.541 348.982 838.409 347.533C837.278 346.085 836.768 344.246 836.992 342.421C837.216 340.596 838.155 338.935 839.604 337.804C841.053 336.672 842.892 336.162 844.716 336.386L1061.31 362.98C1063.13 363.204 1064.79 364.143 1065.92 365.592C1067.06 367.041 1067.57 368.88 1067.34 370.704C1067.12 372.529 1066.18 374.19 1064.73 375.322C1063.28 376.454 1061.44 376.964 1059.62 376.74Z" fill="#E6E6E6" fill-opacity="0.59"/>
<path d="M1085.15 403.443L840.176 373.364C838.351 373.14 836.69 372.201 835.558 370.752C834.427 369.303 833.917 367.464 834.141 365.64C834.365 363.815 835.304 362.154 836.753 361.022C838.202 359.89 840.041 359.38 841.865 359.604L1086.83 389.683C1088.66 389.907 1090.32 390.847 1091.45 392.295C1092.58 393.744 1093.09 395.583 1092.87 397.408C1092.65 399.232 1091.71 400.893 1090.26 402.025C1088.81 403.157 1086.97 403.667 1085.15 403.443Z" fill="#E6E6E6" fill-opacity="0.59"/>
<path d="M1523.23 401.04L1215.9 363.305C1212.03 362.825 1208.51 360.83 1206.11 357.759C1203.71 354.687 1202.63 350.789 1203.1 346.92L1254.32 -70.2874C1254.8 -74.156 1256.8 -77.6764 1259.87 -80.0763C1262.94 -82.4763 1266.84 -83.5598 1270.71 -83.0892L1578.04 -45.3544C1581.9 -44.8748 1585.42 -42.8804 1587.82 -39.8086C1590.22 -36.7368 1591.31 -32.8385 1590.84 -28.9688L1539.61 388.242C1539.13 392.11 1537.14 395.63 1534.06 398.03C1530.99 400.43 1527.09 401.514 1523.22 401.043L1523.23 401.04Z" fill="white"/>
<path d="M1523.23 401.04L1215.9 363.305C1212.03 362.825 1208.51 360.83 1206.11 357.759C1203.71 354.687 1202.63 350.789 1203.1 346.92L1254.32 -70.2874C1254.8 -74.156 1256.8 -77.6764 1259.87 -80.0763C1262.94 -82.4763 1266.84 -83.5598 1270.71 -83.0892L1578.04 -45.3544C1581.9 -44.8748 1585.42 -42.8804 1587.82 -39.8086C1590.22 -36.7368 1591.31 -32.8385 1590.84 -28.9688L1539.61 388.242C1539.13 392.11 1537.14 395.63 1534.06 398.03C1530.99 400.43 1527.09 401.514 1523.22 401.043L1523.23 401.04ZM1270.5 -81.3704C1267.08 -81.785 1263.64 -80.8289 1260.93 -78.7118C1258.22 -76.5946 1256.46 -73.4893 1256.04 -70.0766L1204.81 347.131C1204.4 350.544 1205.36 353.983 1207.47 356.693C1209.59 359.403 1212.7 361.162 1216.11 361.586L1523.44 399.321C1526.85 399.736 1530.29 398.78 1533 396.662C1535.71 394.545 1537.47 391.44 1537.89 388.027L1589.12 -29.1799C1589.53 -32.5936 1588.58 -36.0325 1586.46 -38.7423C1584.34 -41.4521 1581.24 -43.2117 1577.82 -43.6353L1270.5 -81.3704Z" fill="#CCCCCC"/>
<path d="M1397.4 42.103C1396.01 53.3925 1391.31 64.0175 1383.89 72.6343C1376.46 81.251 1366.65 87.4726 1355.69 90.5123C1344.73 93.5519 1333.11 93.2731 1322.31 89.7111C1311.51 86.1491 1302 79.4638 1295 70.5007C1288 61.5377 1283.81 50.6993 1282.97 39.3563C1282.12 28.0133 1284.66 16.675 1290.27 6.77533C1295.87 -3.12436 1304.28 -11.1408 1314.43 -16.2604C1324.59 -21.38 1336.04 -23.3726 1347.33 -21.9865C1354.82 -21.0661 1362.07 -18.6783 1368.64 -14.9594C1375.21 -11.2405 1380.99 -6.26329 1385.64 -0.312028C1390.29 5.63923 1393.72 12.448 1395.74 19.7256C1397.76 27.0032 1398.32 34.607 1397.4 42.103V42.103Z" fill="white"/>
<path d="M1365.5 48.1017C1360.4 84.5309 1306.1 77.8582 1309.96 41.2818C1315.06 4.85142 1369.37 11.5252 1365.5 48.1017Z" fill="#00796B"/>
<path d="M1335.24 55.8872L1335.34 54.8464C1342.37 56.6797 1345 47.9991 1337.38 50.432L1340.5 38.6038L1341.51 38.8703L1338.86 48.9347C1346.59 48.7327 1342.62 57.8506 1335.24 55.8872Z" fill="#2F2E41"/>
<path d="M1352.08 41.0601L1346.49 40.3738L1346.36 41.4111L1351.95 42.0975L1352.08 41.0601Z" fill="#2F2E41"/>
<path d="M1334.44 38.8939L1328.85 38.2075L1328.72 39.2449L1334.31 39.9312L1334.44 38.8939Z" fill="#2F2E41"/>
<path d="M1341.97 84.6254C1343.96 77.4059 1335.17 77.802 1330.62 77.1698C1329.89 77.0818 1329.14 77.1589 1328.44 77.3955C1327.74 77.632 1327.1 78.022 1326.57 78.5371C1326.04 79.0522 1325.63 79.6793 1325.37 80.3729C1325.11 81.0665 1325.01 81.8089 1325.08 82.5462C1321.42 83.2034 1317.93 84.604 1314.83 86.6615C1326.14 92.2307 1338.95 93.9489 1351.33 91.5541C1348.75 88.5924 1345.55 86.228 1341.97 84.6254V84.6254Z" fill="#2F2E41"/>
<path d="M1326.29 29.9533C1331.8 27.6104 1337.76 30.6594 1342.92 32.5596C1352.63 36.8985 1367.25 34.7529 1369.95 22.8879C1372.6 11.8701 1358.08 3.7648 1351.83 14.2866L1353.27 14.2755C1340.32 -11.2201 1312.65 -13.7106 1308.85 18.6881C1308.67 19.6813 1310.23 19.8694 1310.41 18.8792C1312.17 -0.271073 1326.4 -11.762 1342.74 2.68997C1346.34 6.30029 1349.41 10.412 1351.83 14.8978C1353.44 17.2092 1354.94 8.28774 1363.55 11.7303C1372.88 16.7252 1367.96 30.3536 1358.83 32.3605C1347.34 36.5573 1336.94 24.4082 1325.67 28.5178C1325.48 28.6021 1325.33 28.7571 1325.26 28.9492C1325.18 29.1412 1325.19 29.355 1325.27 29.5443C1325.35 29.7335 1325.5 29.8831 1325.69 29.9606C1325.88 30.0382 1326.1 30.0375 1326.29 29.9588L1326.29 29.9533Z" fill="#2F2E41"/>
<path d="M1333.12 93.732C1318.38 91.911 1304.87 84.6008 1295.28 73.2595C1285.69 61.9182 1280.73 47.3793 1281.39 32.5423C1282.04 17.7054 1288.27 3.661 1298.82 -6.78984C1309.37 -17.2407 1323.48 -23.3299 1338.32 -23.843C1353.16 -24.356 1367.65 -19.2553 1378.9 -9.55805C1390.15 0.139204 1397.33 13.7203 1399.01 28.4765C1400.69 43.2327 1396.74 58.0795 1387.96 70.0559C1379.18 82.0322 1366.2 90.2579 1351.62 93.0924C1345.53 94.2775 1339.28 94.4934 1333.12 93.732V93.732ZM1347.14 -20.4287C1336.15 -21.779 1325.02 -19.8418 1315.13 -14.8621C1305.25 -9.8824 1297.07 -2.08391 1291.62 7.54712C1286.17 17.1782 1283.7 28.2091 1284.52 39.2449C1285.34 50.2807 1289.41 60.8257 1296.22 69.5462C1303.03 78.2666 1312.28 84.7709 1322.79 88.2364C1333.3 91.7019 1344.6 91.973 1355.26 89.0153C1365.93 86.0577 1375.48 80.0041 1382.7 71.6203C1389.92 63.2365 1394.5 52.899 1395.84 41.9151C1397.65 27.1895 1393.53 12.3495 1384.4 0.658318C1375.27 -11.0328 1361.86 -18.6178 1347.14 -20.4287Z" fill="#CCCCCC"/>
<path d="M1505.24 55.6961L1418.27 45.0183C1416.45 44.7943 1414.79 43.8545 1413.65 42.4059C1412.52 40.9572 1412.01 39.1182 1412.24 37.2936C1412.46 35.4689 1413.4 33.8079 1414.85 32.6761C1416.3 31.5443 1418.14 31.0343 1419.96 31.2583L1506.92 41.936C1508.75 42.16 1510.41 43.0998 1511.54 44.5484C1512.67 45.9971 1513.18 47.836 1512.96 49.6607C1512.74 51.4854 1511.8 53.1464 1510.35 54.2782C1508.9 55.41 1507.06 55.92 1505.23 55.696L1505.24 55.6961Z" fill="#E6E6E6" fill-opacity="0.59"/>
<path d="M1530.77 82.3992L1415.42 68.2368C1413.6 68.0128 1411.94 67.073 1410.8 65.6244C1409.67 64.1757 1409.16 62.3368 1409.39 60.5121C1409.61 58.6874 1410.55 57.0264 1412 55.8946C1413.45 54.7628 1415.29 54.2528 1417.11 54.4768L1532.45 68.6393C1534.28 68.8633 1535.94 69.803 1537.07 71.2517C1538.2 72.7004 1538.71 74.5393 1538.49 76.364C1538.27 78.1887 1537.33 79.8496 1535.88 80.9814C1534.43 82.1133 1532.59 82.6233 1530.77 82.3992V82.3992Z" fill="#E6E6E6" fill-opacity="0.59"/>
<path d="M1491.32 167.954L1274.74 141.361C1272.91 141.137 1271.25 140.197 1270.12 138.748C1268.99 137.299 1268.48 135.461 1268.7 133.636C1268.92 131.811 1269.86 130.15 1271.31 129.018C1272.76 127.887 1274.6 127.377 1276.42 127.601L1493.01 154.194C1494.84 154.419 1496.5 155.358 1497.63 156.807C1498.76 158.256 1499.27 160.095 1499.05 161.919C1498.83 163.744 1497.89 165.405 1496.44 166.537C1494.99 167.668 1493.15 168.178 1491.32 167.954Z" fill="#E6E6E6" fill-opacity="0.59"/>
<path d="M1516.85 194.659L1271.88 164.58C1270.06 164.356 1268.4 163.416 1267.27 161.968C1266.13 160.519 1265.62 158.68 1265.85 156.855C1266.07 155.031 1267.01 153.37 1268.46 152.238C1269.91 151.106 1271.75 150.596 1273.57 150.82L1518.54 180.899C1520.37 181.123 1522.03 182.062 1523.16 183.511C1524.29 184.96 1524.8 186.799 1524.58 188.623C1524.35 190.448 1523.41 192.109 1521.97 193.241C1520.52 194.373 1518.68 194.883 1516.85 194.659Z" fill="#E6E6E6" fill-opacity="0.59"/>
<path d="M1481.92 244.54L1265.33 217.946C1263.51 217.722 1261.85 216.783 1260.71 215.334C1259.58 213.885 1259.07 212.046 1259.3 210.222C1259.52 208.397 1260.46 206.736 1261.91 205.604C1263.36 204.472 1265.2 203.962 1267.02 204.186L1483.61 230.78C1485.44 231.004 1487.1 231.944 1488.23 233.393C1489.36 234.841 1489.87 236.68 1489.65 238.505C1489.42 240.33 1488.48 241.991 1487.03 243.122C1485.58 244.254 1483.75 244.764 1481.92 244.54Z" fill="#E6E6E6" fill-opacity="0.59"/>
<path d="M1507.45 271.244L1262.48 241.166C1260.65 240.942 1258.99 240.002 1257.86 238.553C1256.73 237.105 1256.22 235.266 1256.44 233.441C1256.67 231.616 1257.61 229.955 1259.06 228.824C1260.51 227.692 1262.34 227.182 1264.17 227.406L1509.14 257.484C1510.96 257.708 1512.62 258.648 1513.76 260.097C1514.89 261.545 1515.4 263.384 1515.17 265.209C1514.95 267.034 1514.01 268.695 1512.56 269.826C1511.11 270.958 1509.27 271.468 1507.45 271.244Z" fill="#E6E6E6" fill-opacity="0.59"/>
<path d="M1472.52 321.127L1255.93 294.533C1254.1 294.309 1252.44 293.369 1251.31 291.921C1250.18 290.472 1249.67 288.633 1249.89 286.808C1250.12 284.984 1251.06 283.323 1252.51 282.191C1253.95 281.059 1255.79 280.549 1257.62 280.773L1474.21 307.367C1476.03 307.591 1477.69 308.531 1478.82 309.98C1479.96 311.428 1480.47 313.267 1480.24 315.092C1480.02 316.917 1479.08 318.577 1477.63 319.709C1476.18 320.841 1474.34 321.351 1472.52 321.127Z" fill="#E6E6E6" fill-opacity="0.59"/>
<path d="M1498.05 347.83L1253.08 317.752C1251.25 317.528 1249.59 316.588 1248.46 315.139C1247.33 313.691 1246.82 311.852 1247.04 310.027C1247.27 308.202 1248.2 306.541 1249.65 305.409C1251.1 304.278 1252.94 303.768 1254.77 303.992L1499.74 334.07C1501.56 334.294 1503.22 335.234 1504.35 336.683C1505.48 338.131 1505.99 339.97 1505.77 341.795C1505.55 343.62 1504.61 345.281 1503.16 346.412C1501.71 347.544 1499.87 348.054 1498.05 347.83Z" fill="#E6E6E6" fill-opacity="0.59"/>
<path d="M1315.77 557.691L1008.44 519.956C1004.57 519.476 1001.05 517.482 998.653 514.41C996.253 511.338 995.17 507.44 995.64 503.57L1046.87 86.3598C1047.35 82.4912 1049.34 78.9708 1052.41 76.5709C1055.48 74.1709 1059.38 73.0874 1063.25 73.558L1370.58 111.293C1374.45 111.773 1377.97 113.767 1380.37 116.839C1382.77 119.911 1383.85 123.809 1383.38 127.679L1332.15 544.888C1331.68 548.757 1329.68 552.277 1326.61 554.677C1323.54 557.078 1319.64 558.161 1315.77 557.691V557.691Z" fill="white"/>
<path d="M1075.7 184.112C1074.76 191.623 1075.33 199.245 1077.36 206.538C1079.38 213.83 1082.84 220.649 1087.51 226.6C1087.9 227.096 1088.31 227.594 1088.72 228.081C1091.18 231.021 1093.93 233.708 1096.93 236.1C1097.5 236.561 1098.08 237.005 1098.68 237.442C1101.73 239.693 1105 241.635 1108.43 243.239C1109.03 243.517 1109.63 243.786 1110.24 244.039C1121.22 248.701 1133.37 249.848 1145.03 247.322C1145.26 247.27 1145.49 247.219 1145.71 247.168C1155.96 244.803 1165.37 239.67 1172.91 232.329C1180.44 224.988 1185.82 215.72 1188.46 205.534C1191.09 195.348 1190.89 184.634 1187.85 174.558C1184.82 164.482 1179.09 155.431 1171.27 148.39C1163.45 141.349 1153.85 136.587 1143.51 134.623C1133.18 132.66 1122.5 133.569 1112.64 137.253C1102.79 140.937 1094.13 147.254 1087.62 155.516C1081.1 163.778 1076.98 173.669 1075.69 184.113L1075.7 184.112Z" fill="white"/>
<path d="M1117.29 217.618C1116.77 222.044 1114.62 226.116 1111.25 229.032C1107.92 231.892 1103.29 233.491 1098.99 232.067C1095.03 230.755 1092.16 226.801 1093.1 222.56C1093.28 221.639 1093.66 220.768 1094.22 220.009C1094.77 219.25 1095.48 218.621 1096.3 218.165C1097.13 217.71 1098.04 217.439 1098.97 217.372C1099.91 217.304 1100.85 217.442 1101.73 217.775C1105.46 219.249 1106.32 224.997 1102.78 227.211C1101.93 227.742 1100.96 226.512 1101.82 225.975C1102.35 225.595 1102.78 225.088 1103.07 224.498C1103.36 223.909 1103.49 223.257 1103.46 222.603C1103.43 221.948 1103.23 221.311 1102.89 220.751C1102.55 220.191 1102.08 219.725 1101.51 219.396C1100.83 219.084 1100.09 218.93 1099.35 218.945C1098.6 218.961 1097.87 219.147 1097.2 219.488C1096.54 219.829 1095.96 220.316 1095.51 220.913C1095.07 221.511 1094.76 222.202 1094.62 222.935C1093.92 226.523 1096.36 229.589 1099.68 230.648C1103.27 231.794 1107.15 230.359 1109.96 228.066C1113.18 225.4 1115.25 221.587 1115.73 217.428C1115.76 217.227 1115.87 217.047 1116.03 216.925C1116.19 216.803 1116.4 216.748 1116.6 216.773C1116.8 216.798 1116.98 216.9 1117.11 217.058C1117.24 217.215 1117.3 217.416 1117.28 217.619L1117.29 217.618Z" fill="#2F2E41"/>
<path d="M1131.27 229.38C1146.61 231.264 1160.57 220.356 1162.46 205.018C1164.34 189.68 1153.43 175.719 1138.09 173.836C1122.76 171.953 1108.8 182.86 1106.91 198.198C1105.03 213.536 1115.94 227.497 1131.27 229.38Z" fill="#00796B"/>
<path d="M1131.81 213.284L1131.91 212.244C1133.84 212.427 1135.56 212.515 1136.96 211.738C1137.35 211.502 1137.69 211.184 1137.96 210.805C1138.22 210.425 1138.4 209.994 1138.48 209.539C1138.54 209.263 1138.53 208.976 1138.46 208.703C1138.38 208.43 1138.25 208.177 1138.07 207.964C1137.62 207.612 1137.08 207.387 1136.52 207.312C1135.96 207.238 1135.38 207.317 1134.86 207.541L1133.95 207.829L1137.07 196.001L1138.08 196.269L1135.43 206.333C1136.03 206.191 1136.65 206.201 1137.25 206.362C1137.84 206.524 1138.39 206.832 1138.83 207.258C1139.13 207.586 1139.34 207.978 1139.46 208.403C1139.58 208.828 1139.59 209.275 1139.51 209.708C1139.4 210.318 1139.17 210.899 1138.81 211.408C1138.46 211.917 1138 212.343 1137.46 212.655C1135.67 213.649 1133.53 213.447 1131.81 213.284Z" fill="#2F2E41"/>
<path d="M1148.65 198.458L1143.06 197.771L1142.93 198.809L1148.52 199.495L1148.65 198.458Z" fill="#2F2E41"/>
<path d="M1131.01 196.291L1125.42 195.605L1125.29 196.642L1130.88 197.329L1131.01 196.291Z" fill="#2F2E41"/>
<path d="M1110.24 244.04C1121.22 248.701 1133.37 249.848 1145.03 247.322C1145.26 247.271 1145.49 247.219 1145.71 247.168C1143.33 244.813 1140.54 242.907 1137.47 241.542C1137.8 240.772 1137.9 239.927 1137.76 239.102C1137.57 238.054 1137.05 237.096 1136.27 236.37C1135.49 235.644 1134.5 235.19 1133.44 235.074L1126.67 234.243C1125.62 234.099 1124.55 234.3 1123.62 234.815C1122.69 235.33 1121.95 236.132 1121.51 237.101C1121.18 237.871 1121.07 238.717 1121.2 239.544C1118.29 240.058 1115.48 241.031 1112.88 242.426C1112.36 242.705 1111.85 242.999 1111.35 243.31C1110.98 243.542 1110.6 243.79 1110.24 244.04Z" fill="#2F2E41"/>
<path d="M1156.8 201.334C1156.23 206.014 1158.05 210.178 1160.97 211.221C1161.26 211.328 1161.57 211.401 1161.88 211.441C1165.31 211.862 1168.62 208.018 1169.25 202.865C1169.66 200.218 1169.13 197.513 1167.76 195.212C1167.33 194.537 1166.77 193.955 1166.11 193.498C1165.53 193.101 1164.87 192.847 1164.17 192.76C1163.22 192.655 1162.25 192.853 1161.41 193.327C1159.12 194.56 1157.26 197.602 1156.8 201.334Z" fill="#3F3D56"/>
<path d="M1101.28 194.517C1100.78 198.544 1102.06 202.188 1104.29 203.794C1104.9 204.24 1105.61 204.525 1106.36 204.622C1106.52 204.642 1106.69 204.652 1106.86 204.652C1110.1 204.666 1113.13 200.95 1113.73 196.046C1114.21 192.118 1113 188.55 1110.88 186.893C1110.24 186.378 1109.47 186.048 1108.65 185.941C1107.95 185.857 1107.25 185.942 1106.59 186.188C1105.84 186.474 1105.15 186.905 1104.57 187.457C1102.69 189.359 1101.53 191.853 1101.28 194.517L1101.28 194.517Z" fill="#3F3D56"/>
<path d="M1104.79 202.945C1104.91 202.96 1105.04 202.946 1105.15 202.903C1105.27 202.86 1105.38 202.79 1105.46 202.698C1105.54 202.607 1105.61 202.496 1105.64 202.376C1105.67 202.256 1105.68 202.13 1105.65 202.008C1104.71 197.401 1104.84 192.639 1106.03 188.091C1107.23 183.544 1109.46 179.333 1112.54 175.786C1115.63 172.239 1119.49 169.452 1123.83 167.641C1128.17 165.83 1132.87 165.045 1137.56 165.345C1142.26 165.645 1146.82 167.023 1150.89 169.372C1154.96 171.722 1158.44 174.978 1161.05 178.89C1163.66 182.801 1165.33 187.261 1165.94 191.924C1166.55 196.587 1166.07 201.327 1164.55 205.776C1164.51 205.875 1164.49 205.981 1164.49 206.087C1164.49 206.194 1164.52 206.299 1164.56 206.396C1164.61 206.493 1164.67 206.579 1164.75 206.651C1164.83 206.722 1164.92 206.776 1165.02 206.811C1165.12 206.845 1165.23 206.858 1165.34 206.85C1165.44 206.841 1165.55 206.811 1165.64 206.762C1165.73 206.712 1165.82 206.644 1165.88 206.561C1165.95 206.478 1166 206.382 1166.03 206.279C1167.63 201.602 1168.14 196.618 1167.5 191.715C1166.86 186.812 1165.1 182.121 1162.36 178.008C1159.62 173.895 1155.96 170.47 1151.68 168C1147.39 165.53 1142.6 164.081 1137.67 163.765C1132.73 163.449 1127.79 164.276 1123.23 166.181C1118.66 168.085 1114.6 171.016 1111.36 174.746C1108.11 178.476 1105.77 182.904 1104.51 187.686C1103.26 192.469 1103.12 197.476 1104.12 202.319C1104.15 202.48 1104.23 202.626 1104.35 202.737C1104.47 202.848 1104.63 202.918 1104.79 202.938L1104.79 202.945Z" fill="#3F3D56"/>
<path d="M1150.85 185.329C1151.21 186.138 1151.3 187.048 1151.08 187.91C1150.86 188.772 1150.36 189.535 1149.65 190.073C1147.94 191.576 1145.52 191.387 1143.47 190.814C1141.17 190.176 1138.82 188.773 1136.36 189.221C1134.26 189.606 1132.59 191.26 1130.44 191.462C1128.53 191.642 1126.36 190.828 1125.96 188.763C1125.76 187.774 1127.31 187.546 1127.51 188.533C1127.77 189.869 1129.6 190.068 1130.69 189.841C1132.43 189.476 1133.89 188.248 1135.62 187.788C1137.66 187.421 1139.76 187.685 1141.64 188.544C1143.45 189.194 1145.52 190.077 1147.47 189.521C1148.91 189.11 1150.23 187.418 1149.4 185.95C1148.91 185.067 1150.36 184.46 1150.85 185.328L1150.85 185.329Z" fill="#2F2E41"/>
<path d="M1125.58 249.758C1120.09 249.088 1114.72 247.648 1109.62 245.482C1109.03 245.232 1108.4 244.954 1107.77 244.659C1104.24 243.01 1100.88 241.016 1097.75 238.705C1097.16 238.273 1096.57 237.821 1095.95 237.325C1092.87 234.867 1090.04 232.108 1087.51 229.088C1087.1 228.59 1086.69 228.081 1086.28 227.574C1078.4 217.509 1073.99 205.157 1073.72 192.373C1073.45 179.588 1077.34 167.062 1084.8 156.676C1092.26 146.291 1102.89 138.606 1115.09 134.776C1127.29 130.947 1140.4 131.179 1152.46 135.439C1164.52 139.699 1174.87 147.757 1181.95 158.4C1189.04 169.044 1192.48 181.7 1191.76 194.467C1191.04 207.234 1186.19 219.422 1177.95 229.201C1169.71 238.98 1158.52 245.821 1146.07 248.697C1145.84 248.749 1145.61 248.8 1145.38 248.852C1138.88 250.27 1132.18 250.576 1125.58 249.758L1125.58 249.758ZM1139.59 135.597C1128.6 134.248 1117.46 136.191 1107.58 141.178C1097.69 146.166 1089.51 153.974 1084.07 163.615C1078.62 173.255 1076.16 184.294 1076.99 195.335C1077.83 206.375 1081.92 216.92 1088.75 225.634C1089.13 226.109 1089.52 226.597 1089.92 227.074C1092.32 229.934 1094.99 232.547 1097.91 234.875C1098.49 235.344 1099.05 235.77 1099.61 236.178C1102.58 238.367 1105.76 240.256 1109.1 241.817C1109.69 242.094 1110.28 242.355 1110.84 242.593C1121.53 247.129 1133.36 248.244 1144.7 245.786L1145.36 245.636C1158.17 242.675 1169.53 235.295 1177.45 224.792C1185.36 214.288 1189.32 201.333 1188.63 188.201C1187.94 175.068 1182.65 162.598 1173.69 152.978C1164.72 143.359 1152.65 137.205 1139.6 135.598L1139.59 135.597Z" fill="#CCCCCC"/>
<path d="M1315.77 557.691L1008.44 519.956C1004.57 519.476 1001.05 517.482 998.653 514.41C996.253 511.338 995.17 507.44 995.64 503.57L1046.87 86.3598C1047.35 82.4912 1049.34 78.9708 1052.41 76.5709C1055.48 74.1709 1059.38 73.0874 1063.25 73.558L1370.58 111.293C1374.45 111.773 1377.97 113.767 1380.37 116.839C1382.77 119.911 1383.85 123.809 1383.38 127.679L1332.15 544.888C1331.68 548.757 1329.68 552.277 1326.61 554.677C1323.54 557.078 1319.64 558.161 1315.77 557.691V557.691ZM1063.04 75.2749C1059.63 74.8603 1056.19 75.8164 1053.48 77.9336C1050.77 80.0507 1049.01 83.1561 1048.59 86.5687L997.359 503.78C996.945 507.194 997.901 510.633 1000.02 513.342C1002.14 516.052 1005.24 517.812 1008.65 518.236L1315.98 555.971C1319.39 556.385 1322.83 555.429 1325.54 553.312C1328.25 551.195 1330.01 548.089 1330.44 544.677L1381.66 127.467C1382.08 124.054 1381.12 120.615 1379 117.905C1376.89 115.195 1373.78 113.436 1370.37 113.012L1063.04 75.2749Z" fill="#3F3D56"/>
<path d="M1297.78 212.345L1210.82 201.667C1208.99 201.443 1207.33 200.504 1206.2 199.055C1205.07 197.606 1204.56 195.767 1204.78 193.943C1205.01 192.118 1205.95 190.457 1207.39 189.325C1208.84 188.193 1210.68 187.683 1212.51 187.907L1299.47 198.585C1301.29 198.809 1302.95 199.749 1304.09 201.198C1305.22 202.646 1305.73 204.485 1305.5 206.31C1305.28 208.135 1304.34 209.796 1302.89 210.927C1301.44 212.059 1299.6 212.569 1297.78 212.345L1297.78 212.345Z" fill="#00796B"/>
<path d="M1323.31 239.05L1207.96 224.887C1206.14 224.663 1204.48 223.723 1203.35 222.275C1202.22 220.826 1201.71 218.987 1201.93 217.162C1202.15 215.338 1203.09 213.677 1204.54 212.545C1205.99 211.413 1207.83 210.903 1209.65 211.127L1325 225.29C1326.82 225.514 1328.48 226.453 1329.62 227.902C1330.75 229.351 1331.26 231.19 1331.03 233.014C1330.81 234.839 1329.87 236.5 1328.42 237.632C1326.97 238.764 1325.13 239.274 1323.31 239.05V239.05Z" fill="#00796B"/>
<path d="M1283.87 324.605L1067.28 298.01C1065.45 297.786 1063.79 296.847 1062.66 295.398C1061.53 293.949 1061.02 292.11 1061.24 290.286C1061.46 288.461 1062.4 286.8 1063.85 285.668C1065.3 284.536 1067.14 284.026 1068.97 284.251L1285.56 310.845C1287.38 311.069 1289.04 312.009 1290.18 313.457C1291.31 314.906 1291.82 316.745 1291.59 318.57C1291.37 320.394 1290.43 322.055 1288.98 323.187C1287.53 324.319 1285.69 324.829 1283.87 324.605V324.605Z" fill="#CCCCCC"/>
<path d="M1309.4 351.309L1064.42 321.23C1062.6 321.006 1060.94 320.066 1059.81 318.618C1058.68 317.169 1058.17 315.33 1058.39 313.506C1058.61 311.681 1059.55 310.02 1061 308.888C1062.45 307.756 1064.29 307.246 1066.11 307.47L1311.09 337.549C1312.91 337.773 1314.57 338.713 1315.7 340.161C1316.84 341.61 1317.35 343.449 1317.12 345.274C1316.9 347.098 1315.96 348.759 1314.51 349.891C1313.06 351.023 1311.22 351.533 1309.4 351.309V351.309Z" fill="#CCCCCC"/>
<path d="M1274.46 401.19L1057.87 374.596C1056.05 374.372 1054.39 373.432 1053.25 371.984C1052.12 370.535 1051.61 368.696 1051.84 366.871C1052.06 365.047 1053 363.386 1054.45 362.254C1055.9 361.122 1057.74 360.612 1059.56 360.836L1276.15 387.43C1277.98 387.654 1279.64 388.594 1280.77 390.043C1281.9 391.492 1282.41 393.331 1282.19 395.155C1281.97 396.98 1281.03 398.641 1279.58 399.773C1278.13 400.905 1276.29 401.414 1274.46 401.19V401.19Z" fill="#CCCCCC"/>
<path d="M1299.99 427.895L1055.02 397.816C1053.2 397.592 1051.54 396.652 1050.4 395.204C1049.27 393.755 1048.76 391.916 1048.99 390.091C1049.21 388.267 1050.15 386.606 1051.6 385.474C1053.05 384.342 1054.89 383.832 1056.71 384.056L1301.68 414.135C1303.51 414.359 1305.17 415.298 1306.3 416.747C1307.43 418.196 1307.94 420.035 1307.72 421.859C1307.49 423.684 1306.55 425.345 1305.11 426.477C1303.66 427.609 1301.82 428.119 1299.99 427.895V427.895Z" fill="#CCCCCC"/>
<path d="M1265.06 477.773L1048.47 451.179C1046.64 450.955 1044.98 450.015 1043.85 448.566C1042.72 447.118 1042.21 445.279 1042.43 443.454C1042.66 441.63 1043.6 439.969 1045.05 438.837C1046.49 437.705 1048.33 437.195 1050.16 437.419L1266.75 464.013C1268.58 464.237 1270.24 465.177 1271.37 466.626C1272.5 468.074 1273.01 469.913 1272.79 471.738C1272.56 473.563 1271.62 475.224 1270.17 476.355C1268.73 477.487 1266.89 477.997 1265.06 477.773V477.773Z" fill="#CCCCCC"/>
<path d="M1290.59 504.481L1045.62 474.402C1043.79 474.178 1042.13 473.238 1041 471.789C1039.87 470.341 1039.36 468.502 1039.58 466.677C1039.81 464.852 1040.75 463.191 1042.19 462.06C1043.64 460.928 1045.48 460.418 1047.31 460.642L1292.28 490.721C1294.1 490.945 1295.76 491.884 1296.9 493.333C1298.03 494.782 1298.54 496.621 1298.31 498.445C1298.09 500.27 1297.15 501.931 1295.7 503.063C1294.25 504.195 1292.41 504.705 1290.59 504.481V504.481Z" fill="#CCCCCC"/>
<path d="M1323.87 462.25C1314.95 461.119 1305.89 461.761 1297.22 464.138C1288.55 466.515 1280.43 470.581 1273.34 476.102C1266.24 481.623 1260.31 488.492 1255.87 496.313C1251.44 504.134 1248.59 512.753 1247.49 521.677C1246.4 530.601 1247.08 539.654 1249.49 548.316C1251.9 556.977 1256 565.077 1261.55 572.151C1267.09 579.226 1273.99 585.134 1281.82 589.538C1289.66 593.943 1298.29 596.756 1307.22 597.816C1316.14 598.947 1325.2 598.306 1333.87 595.929C1342.54 593.551 1350.66 589.485 1357.75 583.964C1364.85 578.443 1370.78 571.574 1375.22 563.753C1379.65 555.932 1382.5 547.313 1383.6 538.389C1384.69 529.465 1384.01 520.412 1381.6 511.751C1379.19 503.089 1375.09 494.989 1369.55 487.915C1364 480.841 1357.1 474.932 1349.27 470.528C1341.43 466.124 1332.8 463.31 1323.87 462.25Z" fill="#00796B"/>
<path d="M1305.66 557.395C1303.87 557.179 1302.21 556.388 1300.91 555.143L1300.83 555.066L1283.94 538.518C1283.15 537.753 1282.51 536.838 1282.07 535.826C1281.63 534.814 1281.4 533.725 1281.38 532.623C1281.37 531.52 1281.57 530.425 1281.98 529.402C1282.39 528.378 1283 527.446 1283.77 526.659C1284.55 525.872 1285.47 525.246 1286.48 524.817C1287.5 524.388 1288.59 524.165 1289.69 524.16C1290.8 524.156 1291.89 524.369 1292.91 524.789C1293.93 525.209 1294.85 525.827 1295.63 526.607L1306.57 537.348L1339.67 503.63C1341.22 502.051 1343.34 501.153 1345.55 501.133C1347.76 501.113 1349.89 501.972 1351.47 503.522L1351.26 503.746L1351.47 503.522C1353.05 505.074 1353.94 507.187 1353.96 509.399C1353.98 511.61 1353.13 513.739 1351.58 515.319L1312.65 554.959C1311.75 555.872 1310.65 556.566 1309.44 556.985C1308.23 557.405 1306.93 557.54 1305.66 557.38L1305.66 557.395Z" fill="white"/>
<path d="M377.874 -127.764L353.348 -114.381L51.1736 50.491L26.6451 63.8726C14.7419 70.3827 5.9075 81.349 2.08039 94.3651C-1.74671 107.381 -0.253896 121.384 6.23129 133.301L231.259 545.714C237.769 557.617 248.736 566.451 261.752 570.279C274.768 574.106 288.771 572.613 300.688 566.128L300.751 566.093L651.849 374.519L651.912 374.483C663.815 367.973 672.65 357.007 676.477 343.991C680.304 330.975 678.811 316.972 672.326 305.055L447.298 -107.356C440.787 -119.258 429.82 -128.091 416.804 -131.917C403.788 -135.743 389.786 -134.25 377.87 -127.764H377.874Z" fill="#F2F2F2"/>
<path d="M384.93 -114.834L355.879 -98.9837L62.7499 60.9541L33.7006 76.8046C25.225 81.441 18.9347 89.2503 16.2099 98.5189C13.4851 107.788 14.5484 117.759 19.1664 126.244L244.189 538.658C248.826 547.134 256.635 553.424 265.904 556.148C275.172 558.873 285.143 557.81 293.629 553.192L293.693 553.158L644.793 361.589L644.857 361.554C653.332 356.917 659.622 349.108 662.347 339.839C665.072 330.571 664.008 320.6 659.39 312.114L434.368 -100.3C429.732 -108.776 421.923 -115.066 412.654 -117.791C403.385 -120.516 393.414 -119.452 384.929 -114.834H384.93Z" fill="white"/>
<path d="M389.774 13.1794L258.825 84.6277C257.843 85.1637 256.765 85.5009 255.652 85.6201C254.54 85.7394 253.415 85.6384 252.341 85.3228C251.268 85.0072 250.267 84.4833 249.396 83.7809C248.525 83.0785 247.801 82.2114 247.265 81.2291C246.729 80.2469 246.391 79.1687 246.272 78.0561C246.153 76.9435 246.254 75.8183 246.57 74.7448C246.885 73.6713 247.409 72.6704 248.111 71.7994C248.814 70.9283 249.681 70.2042 250.663 69.6682L381.611 -1.78006C383.595 -2.86245 385.928 -3.11248 388.096 -2.47512C390.264 -1.83776 392.09 -0.365229 393.172 1.61852C394.255 3.60227 394.505 5.93474 393.867 8.10283C393.23 10.2709 391.757 12.097 389.774 13.1794V13.1794Z" fill="#F2F2F2"/>
<path d="M434.401 21.5894L272.599 109.872C270.616 110.954 268.283 111.204 266.115 110.567C263.947 109.929 262.121 108.457 261.039 106.473C259.956 104.489 259.706 102.157 260.343 99.9888C260.981 97.8207 262.453 95.9946 264.437 94.9122L426.239 6.62888C428.223 5.54648 430.555 5.29646 432.723 5.93382C434.891 6.57117 436.717 8.04371 437.8 10.0275C438.882 12.0112 439.132 14.3437 438.495 16.5118C437.857 18.6799 436.385 20.506 434.401 21.5884V21.5894Z" fill="#F2F2F2"/>
<path d="M204.992 54.8862L84.2652 120.755C83.3148 121.274 82.6094 122.148 82.3039 123.187C81.9985 124.226 82.1181 125.344 82.6363 126.294L134.045 220.514C134.564 221.465 135.439 222.17 136.478 222.476C137.516 222.781 138.634 222.662 139.584 222.143L260.309 156.275C261.259 155.756 261.965 154.881 262.27 153.842C262.575 152.804 262.456 151.686 261.938 150.735L210.531 56.5151C210.012 55.5647 209.137 54.8593 208.098 54.5538C207.06 54.2484 205.942 54.3679 204.992 54.8862V54.8862Z" fill="#F2F2F2"/>
<path d="M454.746 132.73L277.132 229.64C275.148 230.723 272.816 230.973 270.648 230.335C268.48 229.698 266.654 228.225 265.571 226.242C264.489 224.258 264.239 221.925 264.876 219.757C265.513 217.589 266.986 215.763 268.97 214.681L446.585 117.77C448.568 116.688 450.901 116.438 453.069 117.075C455.237 117.713 457.063 119.185 458.146 121.169C459.228 123.153 459.478 125.485 458.841 127.653C458.203 129.821 456.731 131.648 454.747 132.73H454.746Z" fill="#F2F2F2"/>
<path d="M499.375 141.139L290.906 254.884C288.922 255.967 286.59 256.217 284.422 255.58C282.253 254.942 280.427 253.47 279.345 251.486C278.262 249.502 278.012 247.17 278.649 245.002C279.286 242.833 280.759 241.007 282.743 239.925L491.212 126.177C493.196 125.095 495.528 124.845 497.697 125.482C499.865 126.12 501.691 127.592 502.773 129.576C503.856 131.56 504.105 133.892 503.468 136.06C502.831 138.228 501.358 140.054 499.375 141.137V141.139Z" fill="#F2F2F2"/>
<path d="M209.489 309.006C229.454 309.006 245.638 292.821 245.638 272.857C245.638 252.892 229.454 236.707 209.489 236.707C189.524 236.707 173.339 252.892 173.339 272.857C173.339 292.821 189.524 309.006 209.489 309.006Z" fill="#F2F2F2"/>
<path d="M750.359 42.1702H350.251C336.685 42.1854 323.679 47.5811 314.087 57.1735C304.494 66.766 299.098 79.7718 299.083 93.3376V563.148C299.098 576.714 304.494 589.72 314.087 599.312C323.679 608.905 336.685 614.301 350.251 614.316H750.359C763.925 614.301 776.931 608.905 786.523 599.312C796.116 589.72 801.511 576.714 801.526 563.148V93.3376C801.511 79.7718 796.116 66.766 786.523 57.1735C776.931 47.5811 763.925 42.1854 750.359 42.1702V42.1702Z" fill="#E6E6E6" fill-opacity="0.59"/>
<path d="M750.36 54.3875H350.251C340.59 54.3984 331.329 58.2409 324.498 65.0719C317.667 71.9029 313.824 81.1645 313.813 90.825V560.636C313.824 570.296 317.666 579.558 324.497 586.389C331.328 593.22 340.59 597.063 350.251 597.073H750.36C760.02 597.062 769.282 593.22 776.113 586.389C782.944 579.558 786.786 570.296 786.797 560.636V90.825C786.786 81.1645 782.943 71.9029 776.112 65.0719C769.281 58.2409 760.02 54.3984 750.359 54.3875H750.36Z" fill="white"/>
<path d="M693.297 171.595H544.127C541.868 171.595 539.7 170.697 538.102 169.099C536.505 167.501 535.607 165.334 535.607 163.074C535.607 160.814 536.505 158.647 538.102 157.049C539.7 155.451 541.868 154.553 544.127 154.553H693.297C695.557 154.553 697.724 155.451 699.322 157.049C700.92 158.647 701.818 160.814 701.818 163.074C701.818 165.334 700.92 167.501 699.322 169.099C697.724 170.697 695.557 171.595 693.297 171.595V171.595Z" fill="#00796B"/>
<path d="M728.444 200.353H544.125C541.866 200.353 539.698 199.455 538.1 197.857C536.502 196.259 535.605 194.092 535.605 191.832C535.605 189.572 536.502 187.405 538.1 185.807C539.698 184.209 541.866 183.311 544.125 183.311H728.444C730.704 183.311 732.871 184.209 734.469 185.807C736.067 187.405 736.964 189.572 736.964 191.832C736.964 194.092 736.067 196.259 734.469 197.857C732.871 199.455 730.704 200.353 728.444 200.353Z" fill="#00796B"/>
<path d="M411.311 185.611C411.369 194.671 408.031 203.425 401.955 210.146C395.941 216.745 386.989 221.123 377.955 219.311C369.636 217.644 362.876 210.372 363.72 201.576C363.859 199.671 364.412 197.819 365.341 196.149C366.269 194.479 367.551 193.032 369.096 191.908C370.642 190.784 372.414 190.011 374.288 189.643C376.163 189.275 378.096 189.319 379.952 189.775C387.855 191.826 391.003 203.215 384.417 208.561C382.837 209.844 380.567 207.604 382.162 206.306C386.515 202.772 385.171 195.036 379.917 193.102C373.799 190.844 367.317 195.699 366.878 201.954C366.356 209.369 372.037 214.954 378.999 216.268C386.535 217.691 394.006 213.833 399.113 208.507C404.965 202.324 408.195 194.115 408.123 185.603C408.123 185.18 408.291 184.774 408.59 184.475C408.889 184.176 409.295 184.008 409.718 184.008C410.141 184.008 410.546 184.176 410.845 184.475C411.144 184.774 411.312 185.18 411.312 185.603L411.311 185.611Z" fill="#2F2E41"/>
<path d="M410.937 235.201C415.202 232.495 419.812 230.374 424.642 228.896C424.181 227.258 424.188 225.523 424.663 223.888C425.304 221.823 426.596 220.021 428.345 218.751C430.095 217.48 432.208 216.81 434.37 216.839H448.235C450.4 216.812 452.517 217.484 454.27 218.756C456.022 220.028 457.318 221.832 457.963 223.899C458.438 225.53 458.445 227.261 457.983 228.896C462.813 230.376 467.422 232.496 471.688 235.201H410.937Z" fill="#2F2E41"/>
<path d="M693.073 307.66H490.74C488.48 307.66 486.313 306.762 484.715 305.165C483.117 303.567 482.219 301.399 482.219 299.14C482.219 296.88 483.117 294.712 484.715 293.115C486.313 291.517 488.48 290.619 490.74 290.619H693.071C695.33 290.619 697.498 291.517 699.096 293.115C700.694 294.712 701.591 296.88 701.591 299.14C701.591 301.399 700.694 303.567 699.096 305.165C697.498 306.762 695.33 307.66 693.071 307.66H693.073Z" fill="#E6E6E6" fill-opacity="0.59"/>
<path d="M728.221 336.417H490.74C488.48 336.417 486.313 335.519 484.715 333.921C483.117 332.323 482.219 330.156 482.219 327.896C482.219 325.637 483.117 323.469 484.715 321.871C486.313 320.273 488.48 319.376 490.74 319.376H728.221C730.48 319.376 732.648 320.273 734.246 321.871C735.844 323.469 736.741 325.637 736.741 327.896C736.741 330.156 735.844 332.323 734.246 333.921C732.648 335.519 730.48 336.417 728.221 336.417Z" fill="#E6E6E6" fill-opacity="0.59"/>
<path d="M693.073 411.019H490.74C488.48 411.019 486.313 410.121 484.715 408.523C483.117 406.925 482.219 404.758 482.219 402.498C482.219 400.238 483.117 398.071 484.715 396.473C486.313 394.875 488.48 393.978 490.74 393.978H693.071C695.33 393.978 697.498 394.875 699.096 396.473C700.694 398.071 701.591 400.238 701.591 402.498C701.591 404.758 700.694 406.925 699.096 408.523C697.498 410.121 695.33 411.019 693.071 411.019H693.073Z" fill="#E6E6E6" fill-opacity="0.59"/>
<path d="M728.221 439.777H490.74C488.48 439.777 486.313 438.879 484.715 437.281C483.117 435.683 482.219 433.516 482.219 431.256C482.219 428.996 483.117 426.829 484.715 425.231C486.313 423.633 488.48 422.735 490.74 422.735H728.221C730.48 422.735 732.648 423.633 734.246 425.231C735.844 426.829 736.741 428.996 736.741 431.256C736.741 433.516 735.844 435.683 734.246 437.281C732.648 438.879 730.48 439.777 728.221 439.777Z" fill="#E6E6E6" fill-opacity="0.59"/>
<path d="M410.662 349.347C430.626 349.347 446.811 333.162 446.811 313.198C446.811 293.233 430.626 277.048 410.662 277.048C390.697 277.048 374.512 293.233 374.512 313.198C374.512 333.162 390.697 349.347 410.662 349.347Z" fill="#E6E6E6" fill-opacity="0.59"/>
<path d="M410.662 453.544C430.626 453.544 446.811 437.359 446.811 417.394C446.811 397.429 430.626 381.245 410.662 381.245C390.697 381.245 374.512 397.429 374.512 417.394C374.512 437.359 390.697 453.544 410.662 453.544Z" fill="#E6E6E6" fill-opacity="0.59"/>
<path d="M693.073 515.214H490.74C488.48 515.214 486.313 514.316 484.715 512.718C483.117 511.121 482.219 508.953 482.219 506.693C482.219 504.434 483.117 502.266 484.715 500.668C486.313 499.071 488.48 498.173 490.74 498.173H693.071C695.33 498.173 697.498 499.071 699.096 500.668C700.694 502.266 701.591 504.434 701.591 506.693C701.591 508.953 700.694 511.121 699.096 512.718C697.498 514.316 695.33 515.214 693.071 515.214H693.073Z" fill="#E6E6E6" fill-opacity="0.59"/>
<path d="M728.221 543.972H490.74C488.48 543.972 486.313 543.075 484.715 541.477C483.117 539.879 482.219 537.711 482.219 535.452C482.219 533.192 483.117 531.025 484.715 529.427C486.313 527.829 488.48 526.931 490.74 526.931H728.221C730.48 526.931 732.648 527.829 734.246 529.427C735.844 531.025 736.741 533.192 736.741 535.452C736.741 537.711 735.844 539.879 734.246 541.477C732.648 543.075 730.48 543.972 728.221 543.972Z" fill="#E6E6E6" fill-opacity="0.59"/>
<path d="M410.662 557.739C430.626 557.739 446.811 541.554 446.811 521.589C446.811 501.625 430.626 485.44 410.662 485.44C390.697 485.44 374.512 501.625 374.512 521.589C374.512 541.554 390.697 557.739 410.662 557.739Z" fill="#E6E6E6" fill-opacity="0.59"/>
</g>
</svg>
