<svg xmlns="http://www.w3.org/2000/svg" width="633.374" height="444.54" viewBox="0 0 633.374 444.54">
  <g id="Group_28" data-name="Group 28" transform="translate(-704.626 -134.138)">
    <g id="Path_191" data-name="Path 191" transform="translate(1057.623 434.902)" fill="#00796b" stroke-miterlimit="10">
      <path d="M13.877,3.775H.7A.189.189,0,0,1,.627,3.76a.2.2,0,0,1-.062-.041.2.2,0,0,1-.043-.06.174.174,0,0,1-.016-.072L.5.672A.173.173,0,0,1,.516.6.2.2,0,0,1,.559.54.2.2,0,0,1,.62.5.189.189,0,0,1,.694.484H13.884A.189.189,0,0,1,13.958.5a.2.2,0,0,1,.062.041.2.2,0,0,1,.042.06.173.173,0,0,1,.016.072l-.006,2.916a.19.19,0,0,1-.014.072.184.184,0,0,1-.1.1A.207.207,0,0,1,13.877,3.775Z" stroke="none"/>
      <path d="M 13.8758544921875 4.258119106292725 L 0.702153205871582 4.258119106292725 C 0.6067004203796387 4.258119106292725 0.5156489610671997 4.23931884765625 0.4327710568904877 4.205364227294922 C 0.3498913943767548 4.17142391204834 0.2751384675502777 4.122282981872559 0.2123163491487503 4.061619281768799 C 0.1494918018579483 4.000937461853027 0.09855235368013382 3.92870020866394 0.06328818202018738 3.848539352416992 C 0.02802223525941372 3.768389463424683 0.00840233638882637 3.680284023284912 0.008189468644559383 3.587870121002197 L 0.00156930077355355 0.6717368960380554 C 0.001356036984361708 0.5791496634483337 0.02060013823211193 0.4908683896064758 0.05553949251770973 0.4105503559112549 C 0.09048060327768326 0.3302130699157715 0.141148641705513 0.2578252255916595 0.2037802934646606 0.1969992965459824 C 0.2664142847061157 0.1361862570047379 0.3410270810127258 0.0869368389248848 0.4238692820072174 0.05287889391183853 C 0.5067131519317627 0.01883544772863388 0.5978003740310669 0 0.6933801174163818 0 L 13.88460922241211 0 C 13.98018932342529 0 14.07128238677979 0.01883544772863388 14.15412521362305 0.05287889391183853 C 14.23696327209473 0.0869368389248848 14.31158065795898 0.1361862570047379 14.37421321868896 0.1969992965459824 C 14.43684101104736 0.2578252255916595 14.4875020980835 0.3302130699157715 14.52245712280273 0.4105503559112549 C 14.55741119384766 0.4908683896064758 14.57663536071777 0.5791496634483337 14.5764274597168 0.6717368960380554 L 14.56978034973145 3.587870121002197 C 14.56956577301025 3.681849718093872 14.55036354064941 3.77073073387146 14.51560020446777 3.851184606552124 C 14.48083591461182 3.931649208068848 14.43051242828369 4.003673553466797 14.36809730529785 4.06395959854126 C 14.30567073822021 4.12424373626709 14.23113918304443 4.17277717590332 14.1479549407959 4.206245899200439 C 14.06475734710693 4.2397141456604 13.97292041778564 4.258119106292725 13.8758544921875 4.258119106292725 Z M 1.005205512046814 3.29259204864502 L 13.57277011871338 3.29259204864502 L 13.57734203338623 0.9675140976905823 L 1.000649213790894 0.9675140976905823 L 1.005205512046814 3.29259204864502 Z" stroke="none" fill="#00796b"/>
    </g>
    <g id="Group_29" data-name="Group 29" transform="translate(-28 34)">
      <g id="undraw_air_support_re_nybl" transform="translate(895 100.138)">
        <path id="Path_145" data-name="Path 145" d="M370.34,304.805s10.481,10.831,11.411,16.937l-9.118,5.251L362.11,308.552l-5.551-24.617a4.181,4.181,0,1,1,6.971-1.784Z" transform="translate(-217.852 -56.149)" fill="#ffb6b6"/>
        <path id="Path_146" data-name="Path 146" d="M467.548,278.836a4.181,4.181,0,1,1,6.9,2.041l-6.46,24.394-11.2,18.038-8.916-5.586c1.156-6.067,12.032-16.5,12.032-16.5Z" transform="translate(-217.852 -56.149)" fill="#ffb6b6"/>
        <path id="Path_147" data-name="Path 147" d="M301.462,367.315c-.066-14.377,5.452-27.927,11.585-40.676,6.338-13.174,13.552-26.1,17.134-40.381a61.47,61.47,0,0,0,1.5-24.131c-.216-1.438-2.4-.827-2.186.6,2.2,14.589-2.551,29.118-8.462,42.275-5.862,13.048-13.169,25.459-17.743,39.065a72.144,72.144,0,0,0-4.091,23.245,1.134,1.134,0,0,0,2.267,0Z" transform="translate(-217.852 -56.149)" fill="#e6e6e6"/>
        <path id="Path_148" data-name="Path 148" d="M367.34,372.14c-.485-6.12,3.836-11.226,8.936-14.035,6.472-3.565,14.3-3.259,21.456-3.047a125.906,125.906,0,0,0,21.962-1.044A110.242,110.242,0,0,0,501.325,296.4c6.726-12.734,11.462-27.417,9.57-41.96a48.67,48.67,0,0,0-.975-5.255c-.345-1.417-2.532-.817-2.186.6,3.522,14.447-.516,29.58-6.917,42.623A109.035,109.035,0,0,1,477.138,324.2a107.173,107.173,0,0,1-35.286,21.787,110.368,110.368,0,0,1-20.959,5.563,115.42,115.42,0,0,1-21.919,1.278c-7.288-.212-15.011-.6-21.86,2.353-5.36,2.308-10.336,6.88-11.717,12.725a13.717,13.717,0,0,0-.324,4.234c.114,1.445,2.382,1.457,2.267,0Z" transform="translate(-217.852 -56.149)" fill="#e6e6e6"/>
        <path id="Path_149" data-name="Path 149" d="M598.2,162.616c-2.667-1.2-5.289-2.357-7.8-3.423-.378-.159-.756-.325-1.133-.484l-.045-.023q-3.389-1.451-6.793-2.841c-1.587-.65-3.166-1.292-4.753-1.919-.62-.257-1.239-.5-1.866-.74-1-.4-2.017-.793-3.022-1.186-.831-.325-1.67-.642-2.5-.96-.96-.37-1.919-.725-2.871-1.088q-1.7-.635-3.393-1.254a.068.068,0,0,0-.038-.008c-.854-.317-1.708-.627-2.554-.929-11.492-4.141-23.151-7.843-34.666-11.009l-1.247-.34-2.153-.589q-1.9-.51-3.823-1c-1.2-.317-2.41-.62-3.619-.922-1.065-.264-2.131-.529-3.2-.786-1.05-.257-2.1-.506-3.158-.748q-4.726-1.111-9.437-2.1a.21.21,0,0,0-.068-.008c-.756-.166-1.5-.325-2.259-.476-11.47-2.35-23.136-4.239-34.674-5.622-.567-.068-1.133-.136-1.7-.2h-.015c-.1-.015-.2-.023-.3-.03q-1.428-.17-2.856-.317c-1.254-.136-2.5-.264-3.755-.385q-4.454-.442-8.893-.771c-.748-.06-1.488-.113-2.229-.159-.854-.068-1.708-.121-2.554-.174q-1.315-.091-2.629-.159c-.332-.023-.657-.038-.982-.053-.408-.03-.824-.045-1.232-.068l-1.836-.091c-11.515-.552-23.174-.6-34.659-.136-.635.023-1.269.053-1.912.083h-.023c-.461.023-.922.038-1.39.06l-.506.023c-1.141.06-2.282.121-3.423.189-1.216.068-2.425.144-3.634.227l-2.274.159-1.5.113c-3.158.242-6.317.521-9.452.839-1.05.106-2.093.212-3.136.325-.582.06-1.156.121-1.73.189-11.515,1.3-23.181,3.136-34.666,5.448-.756.151-1.519.31-2.282.468-.015,0-.03.008-.045.008-.113.023-.234.045-.348.076-.786.159-1.579.325-2.365.5-.869.181-1.73.37-2.6.559-.725.159-1.451.325-2.176.491-1.708.385-3.423.778-5.13,1.194q-5.214,1.247-10.419,2.637c-.786.212-1.579.423-2.373.642a.023.023,0,0,0-.015.008c-.408.106-.824.219-1.232.332-11.485,3.158-23.143,6.891-34.659,11.107-.846.31-1.692.62-2.546.944a.178.178,0,0,0-.06.015q-3.434,1.281-6.906,2.629c-.839.332-1.685.665-2.531,1-.816.325-1.64.65-2.456.982-.718.287-1.428.574-2.146.869-.574.234-1.141.468-1.715.7q-2.947,1.224-5.886,2.478c-1.186.514-2.38,1.028-3.566,1.549-.385.166-.778.332-1.164.506-2.856,1.262-5.455,2.433-7.949,3.589a15.366,15.366,0,0,0-8.916,13.9v26.664A15.291,15.291,0,0,0,245.943,217.8c1.126-.332,2.252-.665,3.385-1,.944-.28,1.9-.552,2.841-.824l3.1-.884c2.365-.657,4.745-1.315,7.125-1.949l3.332-.884c1.745-.461,3.491-.907,5.236-1.352l1.451-.363c7.594-1.9,15.225-3.672,22.8-5.274.778-.166,1.556-.325,2.327-.484q4.771-1,9.49-1.889l2.267-.431h.023c.74-.144,1.481-.28,2.221-.416q3.105-.567,6.249-1.1c1.2-.212,2.41-.416,3.619-.612.121-.023.242-.045.363-.06q3.128-.521,6.271-1c1.421-.219,2.849-.438,4.277-.642,1.216-.181,2.433-.355,3.649-.529,11.53-1.617,23.174-2.909,34.613-3.816.99-.083,1.98-.159,2.969-.234,3.838-.287,7.707-.544,11.583-.756,4.79-.257,9.6-.461,14.379-.6,11.485-.355,23.128-.355,34.606,0,4.79.144,9.6.348,14.386.6,3.876.212,7.745.469,11.583.756.99.076,1.98.151,2.969.234,11.432.907,23.075,2.191,34.621,3.816.552.076,1.1.159,1.647.234.2.03.385.053.582.083.839.121,1.677.249,2.516.37q4.726.7,9.445,1.488c.809.128,1.617.264,2.418.4q2.6.442,5.168.9l2.977.544c.627.113,1.262.227,1.889.348l2.282.431c1.247.234,2.493.476,3.748.725.786.159,1.579.31,2.373.476,8.455,1.7,16.993,3.612,25.493,5.7l2.652.657.355.091c.914.227,1.828.461,2.743.7q1.961.5,3.929,1.02,1.666.431,3.332.884c3.43.914,6.861,1.866,10.268,2.841q3.117.9,6.2,1.813h.015a14.929,14.929,0,0,0,2.509.514,14.607,14.607,0,0,0,1.813.113,15.28,15.28,0,0,0,15.248-15.3V176.587a15.353,15.353,0,0,0-9.075-13.971Z" transform="translate(-217.852 -56.149)" fill="#00796b"/>
        <path id="Path_150" data-name="Path 150" d="M271.7,148.525a2.285,2.285,0,0,0-2.055-.28.178.178,0,0,0-.06.015q-3.434,1.281-6.906,2.629c-.839.332-1.685.665-2.531,1-.816.325-1.64.65-2.456.982-.718.287-1.428.574-2.146.869-.574.234-1.141.468-1.715.7q-2.947,1.224-5.886,2.478c-1.186.514-2.38,1.028-3.566,1.549a2.315,2.315,0,0,0-1.39,2.123v54.984a2.308,2.308,0,0,0,.937,1.866,2.464,2.464,0,0,0,.6.325,2.268,2.268,0,0,0,1.413.03l3.377-1,2.833-.816c1.035-.295,2.07-.589,3.113-.884,2.365-.657,4.745-1.315,7.125-1.949q1.666-.453,3.332-.884c1.745-.461,3.491-.907,5.236-1.353a2.338,2.338,0,0,0,1.126-.665l.008-.008a2.316,2.316,0,0,0,.6-1.557V150.429a2.313,2.313,0,0,0-1-1.9Z" transform="translate(-217.852 -56.149)" fill="#3f3d56"/>
        <path id="Path_151" data-name="Path 151" d="M335.426,130.225a2.267,2.267,0,0,0-1.874-.476c-.015,0-.03.008-.045.008-.113.023-.234.045-.348.076-.786.159-1.579.325-2.365.5-.869.181-1.73.37-2.6.559-.725.159-1.451.325-2.176.491-1.708.385-3.423.778-5.13,1.194q-5.225,1.247-10.419,2.637c-.725.189-1.458.385-2.184.582a1.822,1.822,0,0,0-.189.06.023.023,0,0,0-.015.008,2.326,2.326,0,0,0-1.5,2.169v62.177a2.3,2.3,0,0,0,.831,1.776,2.19,2.19,0,0,0,.6.355,2.324,2.324,0,0,0,.876.174,2.482,2.482,0,0,0,.408-.038h.023c.74-.144,1.481-.28,2.221-.416q3.105-.567,6.249-1.1c1.2-.212,2.41-.416,3.619-.612.121-.023.242-.045.363-.06q3.128-.521,6.271-1c1.421-.219,2.849-.438,4.277-.642.665-.106,1.33-.2,1.995-.295a2.262,2.262,0,0,0,1.186-.544,2.316,2.316,0,0,0,.793-1.738V132.023A2.3,2.3,0,0,0,335.426,130.225Z" transform="translate(-217.852 -56.149)" fill="#3f3d56"/>
        <path id="Path_152" data-name="Path 152" d="M399.16,122.351a2.334,2.334,0,0,0-1.587-.642h-.113c-.431.023-.869.038-1.3.06l-.506.023c-1.141.06-2.282.121-3.423.189-1.216.068-2.425.144-3.634.227l-2.274.159-1.5.113c-3.158.242-6.317.521-9.452.839-1.05.106-2.093.212-3.136.325a2.31,2.31,0,0,0-2.063,2.3v65.879a2.277,2.277,0,0,0,.74,1.685,2.242,2.242,0,0,0,.468.34,2.322,2.322,0,0,0,1.1.28c.053,0,.113-.008.174-.008l.892-.068c3.838-.287,7.707-.544,11.583-.756,4.178-.234,8.357-.416,12.512-.552a2.237,2.237,0,0,0,1.254-.408,2.3,2.3,0,0,0,.982-1.9V124.029a2.3,2.3,0,0,0-.718-1.677Z" transform="translate(-217.852 -56.149)" fill="#3f3d56"/>
        <path id="Path_153" data-name="Path 153" d="M461.427,123.968h-.015c-.1-.015-.2-.023-.3-.03q-1.428-.17-2.856-.317c-1.254-.136-2.5-.264-3.755-.385q-4.454-.442-8.893-.771c-.748-.06-1.488-.113-2.229-.159-.854-.068-1.708-.121-2.554-.174q-1.315-.091-2.629-.159c-.332-.023-.657-.038-.982-.053-.348-.023-.688-.045-1.028-.06a1.846,1.846,0,0,0-.2-.008,2.259,2.259,0,0,0-1.5.635,2.3,2.3,0,0,0-.725,1.685v66.272a2.289,2.289,0,0,0,.99,1.9,2.213,2.213,0,0,0,1.247.408c4.156.136,8.334.317,12.512.552,3.876.212,7.745.468,11.583.756l.892.068c.06,0,.113.008.174.008a2.322,2.322,0,0,0,1.1-.28,2.242,2.242,0,0,0,.468-.34,2.305,2.305,0,0,0,.74-1.685V126.265A2.323,2.323,0,0,0,461.427,123.968Z" transform="translate(-217.852 -56.149)" fill="#3f3d56"/>
        <path id="Path_154" data-name="Path 154" d="M525.523,136.413a1.717,1.717,0,0,0-.181-.06c-.657-.181-1.315-.355-1.972-.529q-1.9-.51-3.823-1c-1.2-.317-2.41-.62-3.619-.922-1.065-.264-2.131-.529-3.2-.786-1.05-.257-2.1-.506-3.158-.748q-4.726-1.111-9.437-2.1a.208.208,0,0,0-.068-.008,2.274,2.274,0,0,0-1.859.476,2.3,2.3,0,0,0-.861,1.8v63.522a2.3,2.3,0,0,0,.8,1.738,2.238,2.238,0,0,0,1.179.544c.2.03.385.053.582.083.839.121,1.677.242,2.516.37q4.726.7,9.445,1.488c.808.128,1.617.264,2.418.4q2.6.442,5.168.9l2.977.544c.627.113,1.262.227,1.889.348a2.757,2.757,0,0,0,.431.038,2.3,2.3,0,0,0,.877-.174,2.083,2.083,0,0,0,.6-.355,2.3,2.3,0,0,0,.831-1.776V138.589A2.32,2.32,0,0,0,525.523,136.413Z" transform="translate(-217.852 -56.149)" fill="#3f3d56"/>
        <path id="Path_155" data-name="Path 155" d="M589.271,158.71l-.045-.023q-3.389-1.451-6.793-2.841c-1.587-.65-3.166-1.292-4.753-1.919-.62-.257-1.239-.5-1.866-.74-1-.4-2.017-.793-3.022-1.186-.831-.325-1.67-.642-2.5-.96-.96-.37-1.919-.725-2.871-1.088q-1.7-.635-3.393-1.254a.068.068,0,0,0-.038-.008,2.248,2.248,0,0,0-2.07.287,2.312,2.312,0,0,0-.99,1.9v57.81a2.3,2.3,0,0,0,.431,1.337,2.456,2.456,0,0,0,.174.219l.008.008a2.3,2.3,0,0,0,1.126.665c.431.106.861.219,1.292.332q1.961.5,3.929,1.02,1.666.431,3.332.884c3.43.914,6.861,1.866,10.268,2.841q3.117.9,6.2,1.813h.015a2.355,2.355,0,0,0,.642.091,2.288,2.288,0,0,0,.748-.128,2.236,2.236,0,0,0,.6-.325,2.323,2.323,0,0,0,.929-1.866V160.818a2.306,2.306,0,0,0-1.36-2.108Z" transform="translate(-217.852 -56.149)" fill="#3f3d56"/>
        <path id="Path_156" data-name="Path 156" d="M249.378,216.844c9.839,6.63,20.113,12.592,30.467,18.375,11.076,6.187,22.268,12.165,33.345,18.348,11.145,6.221,22.191,12.643,32.846,19.676a226.674,226.674,0,0,1,29.291,22.548,128.578,128.578,0,0,1,22.643,27.03q1.1,1.8,2.13,3.648c.711,1.274,2.67.132,1.957-1.144a124.211,124.211,0,0,0-21.687-27.859,211.111,211.111,0,0,0-28.822-23.245c-10.586-7.246-21.621-13.812-32.783-20.123-11.13-6.293-22.4-12.325-33.592-18.512-10.532-5.824-21.011-11.776-31.1-18.347q-1.785-1.162-3.55-2.353c-1.213-.817-2.349,1.146-1.144,1.957Z" transform="translate(-217.852 -56.149)" fill="#3f3d56"/>
        <path id="Path_157" data-name="Path 157" d="M287.622,190.244a169.883,169.883,0,0,0,17.285,30.176,354.11,354.11,0,0,0,22.233,27.9c7.877,9.075,15.991,17.941,23.925,26.966,7.844,8.922,15.535,18,22.559,27.59A181.131,181.131,0,0,1,391.7,332.692q.917,1.952,1.773,3.931c.578,1.335,2.532.182,1.957-1.144A169.882,169.882,0,0,0,378.146,305.3a354.081,354.081,0,0,0-22.233-27.9c-7.878-9.075-15.991-17.941-23.926-26.966-7.844-8.922-15.535-18-22.559-27.59a181.133,181.133,0,0,1-18.076-29.812q-.917-1.952-1.773-3.931c-.578-1.335-2.532-.182-1.957,1.144Z" transform="translate(-217.852 -56.149)" fill="#3f3d56"/>
        <path id="Path_158" data-name="Path 158" d="M564.707,203.761a284.762,284.762,0,0,1-27.413,23.046c-9.974,7.507-20.218,14.644-30.411,21.847-10.177,7.191-20.318,14.445-30.09,22.183a233.6,233.6,0,0,0-26.488,24.009,123.476,123.476,0,0,0-19.66,27.385q-.928,1.811-1.778,3.66c-.607,1.316,1.346,2.469,1.957,1.144a114.953,114.953,0,0,1,18.5-27.728A214.094,214.094,0,0,1,475.1,275.083c9.606-7.8,19.639-15.051,29.727-22.206,10.2-7.235,20.483-14.361,30.53-21.81a320.633,320.633,0,0,0,27.863-22.759q1.562-1.456,3.093-2.945c1.048-1.018-.556-2.62-1.6-1.6Z" transform="translate(-217.852 -56.149)" fill="#3f3d56"/>
        <path id="Path_159" data-name="Path 159" d="M541.345,182.9a169.886,169.886,0,0,1-17.285,30.176A351.142,351.142,0,0,1,501.8,240.953c-7.885,9.069-16,17.934-23.929,26.965-7.839,8.928-15.507,18.024-22.53,27.613a181.13,181.13,0,0,0-18.076,29.812q-.917,1.952-1.773,3.931c-.574,1.325,1.378,2.48,1.957,1.144a169.884,169.884,0,0,1,17.285-30.176,351.166,351.166,0,0,1,22.259-27.882c7.885-9.069,16-17.934,23.929-26.965,7.839-8.928,15.507-18.024,22.53-27.613a181.131,181.131,0,0,0,18.076-29.812q.917-1.952,1.773-3.931c.574-1.325-1.378-2.48-1.957-1.144Z" transform="translate(-217.852 -56.149)" fill="#3f3d56"/>
        <path id="Path_160" data-name="Path 160" d="M156.155,414.543l1.429,4.956,19.8-3.152-2.109-7.316Z" fill="#ffb6b6"/>
        <path id="Path_161" data-name="Path 161" d="M368.787,472.007l4.393,15.242.193-.056a6.174,6.174,0,0,0,4.223-7.642h0l1.31-3.393-3.609-4.586-.383-1.331Z" transform="translate(-217.852 -56.149)" fill="#2f2e41"/>
        <path id="Path_162" data-name="Path 162" d="M241.16,438.888l5.033-1.131-1.968-19.95-7.428,1.67Z" fill="#ffb6b6"/>
        <path id="Path_163" data-name="Path 163" d="M458.547,500.689l15.476-3.478-.044-.2a6.174,6.174,0,0,0-7.377-4.67h0l-3.309-1.509-4.792,3.33-1.351.3Z" transform="translate(-217.852 -56.149)" fill="#2f2e41"/>
        <path id="Path_164" data-name="Path 164" d="M443.608,388.188,466.4,481.7l-11.148.988L442.9,451.391l-19.067-36.834,1.723,42.041L390.08,477.345l-8.336-11.42L410.1,450.672l-12.388-55.639,3.3-6.846Z" transform="translate(-217.852 -56.149)" fill="#2f2e41"/>
        <path id="Path_165" data-name="Path 165" d="M397.948,396.376c-3.694-5.172,3.14-13.688,3.978-15.49h0a4.523,4.523,0,0,1-3.1-4.831l.361-3.071.377-3.012-2.7-2.7-.008-.067-1.552-13.584-2.257-9.023a19.809,19.809,0,0,1,5.622-19.2l5.218-.828,6.341-6.11H420.46l3.506,3.35c6.545,1.148,7.67.773,13.292,7.52L434.7,350.311l-.637,2.886,0,3.914,1.62,1.8a5.6,5.6,0,0,1,1.329,4.847l-.213,1.065h0c1.671.716,3.266,13.443,3.647,15.221l.569,2.655c.487.642,3.7,4.927,3.7,6.1,0,.176-.13.346-.408.534-2.19,1.483-21.361,5.409-26.719,3.265C411.887,390.316,397.948,396.376,397.948,396.376Z" transform="translate(-217.852 -56.149)" fill="#e6e6e6"/>
        <path id="Path_166" data-name="Path 166" d="M377.457,334.138l4.5,5.5a20.28,20.28,0,0,0,13.735,7.348h0a8.878,8.878,0,0,0,8.386-4.182h0a8.857,8.857,0,0,0-2.473-11.838c-5.57-3.915-8.609-9.981-12.987-8.014l-.942-2.314-12.346-9.976-10.119,8.683Z" transform="translate(-217.852 -56.149)" fill="#e6e6e6"/>
        <path id="Path_167" data-name="Path 167" d="M464.493,315.94l-9.79-9.053-7.635,4.862-1.027,2.277c-4.3-2.128-12.637,8.47-18.348,12.176a8.857,8.857,0,0,0-2.91,11.738h0a8.878,8.878,0,0,0,8.225,4.491h0a20.28,20.28,0,0,0,14-6.833l4.7-5.328Z" transform="translate(-217.852 -56.149)" fill="#e6e6e6"/>
        <circle id="Ellipse_24" data-name="Ellipse 24" cx="11.356" cy="11.356" r="11.356" transform="translate(185.448 236.652)" fill="#ffb6b6"/>
        <path id="Path_168" data-name="Path 168" d="M406.415,312.163c-.1-.087-.193-.18-.29-.269,0,.009,0,.019-.008.028Z" transform="translate(-217.852 -56.149)" fill="#2f2e41"/>
        <path id="Path_169" data-name="Path 169" d="M425.318,299.9c-.06-.038-.113-.076-.174-.106a4.134,4.134,0,0,0-2.622-.884,16.8,16.8,0,0,0-2.524,1.02c-1.866.544-3.748-.786-5.682-.922h-.045a4.7,4.7,0,0,0-4.987,4.4c-.038.627.045,1.254-.03,1.874a1.919,1.919,0,0,1-.952,1.534c-.854.385-2-.189-2.728.408-.642.536-.408,1.579-.023,2.327a3.4,3.4,0,0,1,.627,2.169,1.63,1.63,0,0,1-.053.181,17.085,17.085,0,0,1-5.44-12.762,6.738,6.738,0,0,1,.635-3.053,3.187,3.187,0,0,1,2.425-1.791c.892-.076,1.813.325,2.66.038,1.043-.348,1.481-1.549,2.025-2.516a7.268,7.268,0,0,1,6.649-3.6,14.414,14.414,0,0,1,2.826.567l1.8.491a9.709,9.709,0,0,1,1.987.7,6.468,6.468,0,0,1,2.274,2.2,9.783,9.783,0,0,1,1.126,2.357,17.118,17.118,0,0,1-2.985-.106c1.133.7,2.274,1.405,3.408,2.108a9.587,9.587,0,0,1-.2,3.37Z" transform="translate(-217.852 -56.149)" fill="#2f2e41"/>
        <circle id="Ellipse_25" data-name="Ellipse 25" cx="37.35" cy="37.35" r="37.35" transform="translate(349.218 0)" fill="#ee534f"/>
        <path id="Path_170" data-name="Path 170" d="M688.018,75.815c-2.161-7.238-8.266-11.961-15.641-13-.076-.008-.159.008-.234,0a2.159,2.159,0,0,0-.317-.076,46.623,46.623,0,0,0-29.989,6.528,48.169,48.169,0,0,1-6.423,3.37,62.245,62.245,0,0,1-22.479,4.866c-.06,0-.121.008-.181.008a18.454,18.454,0,0,0-16.509,13.306,2.16,2.16,0,0,0,.967,2.365,9.525,9.525,0,0,0,3.9,1.987q4.658.986,9.339,1.806,9.146,1.6,18.383,2.584,6.12.657,12.263,1.028c8.447.529,16.933.657,25.4.393,4.186-.128,8.221-.264,12.059-2.116a17.889,17.889,0,0,0,6.914-6.037,20.366,20.366,0,0,0,2.554-17.016Z" transform="translate(-217.852 -56.149)" fill="#f2f2f2"/>
        <path id="Path_171" data-name="Path 171" d="M541.692,354.058a13.36,13.36,0,0,0-11.273-9.369c-.06-.008-.113.008-.174,0a1.983,1.983,0,0,0-.227-.053,33.571,33.571,0,0,0-21.625,4.707,42.216,42.216,0,0,1-20.839,5.939.776.776,0,0,0-.128.008,13.307,13.307,0,0,0-11.9,9.588,1.556,1.556,0,0,0,.7,1.708,6.764,6.764,0,0,0,2.811,1.428c2.237.476,4.488.907,6.74,1.307,4.39.763,8.818,1.383,13.253,1.859a196.215,196.215,0,0,0,27.148,1.028c3.015-.091,5.924-.189,8.689-1.526a12.92,12.92,0,0,0,4.994-4.352,14.7,14.7,0,0,0,1.836-12.271Z" transform="translate(-217.852 -56.149)" fill="#f2f2f2"/>
        <path id="Path_172" data-name="Path 172" d="M302.929,292.1a13.36,13.36,0,0,0-11.273-9.369c-.06-.008-.113.008-.174,0a2,2,0,0,0-.227-.053,33.571,33.571,0,0,0-21.625,4.707,42.215,42.215,0,0,1-20.839,5.939.776.776,0,0,0-.128.008,13.307,13.307,0,0,0-11.9,9.588,1.556,1.556,0,0,0,.7,1.708,6.764,6.764,0,0,0,2.811,1.428c2.236.476,4.488.907,6.74,1.307,4.39.763,8.818,1.383,13.253,1.859a196.216,196.216,0,0,0,27.148,1.028c3.015-.091,5.924-.189,8.689-1.526a12.919,12.919,0,0,0,4.994-4.352A14.7,14.7,0,0,0,302.929,292.1Z" transform="translate(-217.852 -56.149)" fill="#f2f2f2"/>
        <g id="Group_26" data-name="Group 26" opacity="0.2">
          <path id="Path_175" data-name="Path 175" d="M217.852,205.793c.223-.3.457-.58.684-.871l.012-.116Z" transform="translate(-217.852 -56.149)"/>
          <path id="Path_176" data-name="Path 176" d="M605.741,208.909a14.922,14.922,0,0,1-15.482,9.037,15.178,15.178,0,0,1-2.463-.506q-13.249-3.944-26.491-7.254-17.318-4.352-34.636-7.654-14.473-2.765-28.946-4.8-17.329-2.437-34.643-3.823-14.473-1.167-28.954-1.594-17.318-.533-34.628,0-14.473.431-28.954,1.594-17.318,1.383-34.636,3.823-14.473,2.04-28.954,4.8-17.318,3.3-34.636,7.654-13.249,3.321-26.483,7.254a15.176,15.176,0,0,1-2.463.506,14.912,14.912,0,0,1-16.645-14.817v-6.982c17.038-15.406,41.141-22.547,64.383-24.98,27.639-2.894,55.724-.423,83.212-4.526,22.411-3.347,44.678-11.062,67.179-8.379,19.607,2.327,37.477,12.376,56.812,16.4,24.254,5.04,49.861.408,73.9,6.4,9.422,2.342,18.655,6.46,25.388,13.449A32.81,32.81,0,0,1,605.741,208.909Z" transform="translate(-217.852 -56.149)"/>
        </g>
        <path id="Path_179" data-name="Path 179" d="M518.413,490.742Z" transform="translate(-217.852 -56.149)" fill="#fff"/>
        <circle id="Ellipse_27" data-name="Ellipse 27" cx="11.005" cy="11.005" r="11.005" transform="translate(93.76 315.994)" fill="#e6e6e6"/>
        <path id="Path_185" data-name="Path 185" d="M321.116,388.875a1.224,1.224,0,0,1-.979-.49l-3-4a1.224,1.224,0,1,1,1.959-1.469l1.964,2.619,5.045-7.567a1.224,1.224,0,1,1,2.037,1.358l-6,9.007a1.225,1.225,0,0,1-.985.545Z" transform="translate(-217.852 -56.149)" fill="#fff"/>
        <circle id="Ellipse_28" data-name="Ellipse 28" cx="11.005" cy="11.005" r="11.005" transform="translate(114.953 315.994)" fill="#e6e6e6"/>
        <path id="Path_186" data-name="Path 186" d="M342.309,388.875a1.224,1.224,0,0,1-.979-.49l-3-4a1.224,1.224,0,1,1,1.959-1.469l1.964,2.619,5.045-7.567a1.224,1.224,0,1,1,2.037,1.358l-6,9.007a1.225,1.225,0,0,1-.985.545Z" transform="translate(-217.852 -56.149)" fill="#fff"/>
        <circle id="Ellipse_29" data-name="Ellipse 29" cx="11.005" cy="11.005" r="11.005" transform="translate(104.071 298.238)" fill="#e6e6e6"/>
        <path id="Path_187" data-name="Path 187" d="M331.426,371.119a1.224,1.224,0,0,1-.979-.49l-3-4a1.224,1.224,0,1,1,1.959-1.469l1.964,2.619,5.045-7.567a1.224,1.224,0,0,1,2.037,1.358l-6,9.007a1.225,1.225,0,0,1-.985.545Z" transform="translate(-217.852 -56.149)" fill="#fff"/>
        <path id="Path_188" data-name="Path 188" d="M364.748,366.145l-1.625.163L355.1,387.5H311.573l-8.019-21.193-1.625-.163a3.731,3.731,0,0,0-4.1,3.713V417.9a14.281,14.281,0,0,0,14.281,14.281H354.57A14.281,14.281,0,0,0,368.851,417.9V369.858a3.731,3.731,0,0,0-4.1-3.713Z" transform="translate(-217.852 -56.149)" fill="#f2f2f2"/>
        <path id="Path_189" data-name="Path 189" d="M426.107,318.175c-.537-1.58-2.609-1.879-4.278-1.874q-5.581.016-11.149.475l.372-.43a5.544,5.544,0,0,0-3.126-.351,1.915,1.915,0,0,0-1.4,2.424c.347.72,1.318,1.177,1.249,1.973-.118,1.348-2.727.9-3.133,2.191a1.27,1.27,0,0,0,.571,1.349,3.443,3.443,0,0,0,1.482.47,30.535,30.535,0,0,0,16.3-2.1,6.815,6.815,0,0,0,2.4-1.5,2.716,2.716,0,0,0,.714-2.625Z" transform="translate(-217.852 -56.149)" fill="#e6e6e6"/>
        <path id="Path_194" data-name="Path 194" d="M541.692,354.058a13.36,13.36,0,0,0-11.273-9.369c-.06-.008-.113.008-.174,0a1.983,1.983,0,0,0-.227-.053,33.571,33.571,0,0,0-21.625,4.707,42.216,42.216,0,0,1-20.839,5.939.776.776,0,0,0-.128.008,13.307,13.307,0,0,0-11.9,9.588,1.556,1.556,0,0,0,.7,1.708,6.764,6.764,0,0,0,2.811,1.428c2.237.476,4.488.907,6.74,1.307,4.39.763,8.818,1.383,13.253,1.859a196.215,196.215,0,0,0,27.148,1.028c3.015-.091,5.924-.189,8.689-1.526a12.92,12.92,0,0,0,4.994-4.352,14.7,14.7,0,0,0,1.836-12.271Z" transform="translate(-637.852 -318.778)" fill="#f2f2f2"/>
      </g>
    </g>
    <g id="Path_54" data-name="Path 54" transform="translate(1055.459 414.454)" fill="none" stroke-miterlimit="10">
      <path d="M16.285,1.475H2.621a1.114,1.114,0,0,0-.781.318,1.085,1.085,0,0,0-.237.344,1.05,1.05,0,0,0-.086.42l.073,21.389a1.034,1.034,0,0,0,.088.415,1.079,1.079,0,0,0,.237.34,1.117,1.117,0,0,0,.778.314H16.258a1.115,1.115,0,0,0,.777-.314,1.076,1.076,0,0,0,.237-.34,1.033,1.033,0,0,0,.087-.415l.033-21.389a1.051,1.051,0,0,0-.087-.42,1.087,1.087,0,0,0-.237-.344,1.116,1.116,0,0,0-.782-.318Z" stroke="none"/>
      <path d="M 16.2558650970459 26.46640396118164 L 2.697319746017456 26.46640396118164 C 2.339564800262451 26.46640396118164 1.99825394153595 26.39581298828125 1.687434911727905 26.26822471618652 C 1.376590967178345 26.14062690734863 1.096221566200256 25.95601272583008 0.8603918552398682 25.72797584533691 C 0.6245285272598267 25.49990844726562 0.4332045912742615 25.22838973999023 0.3005046248435974 24.9270191192627 C 0.1677796989679337 24.62558746337891 0.09369566291570663 24.29428672790527 0.09235455095767975 23.94670867919922 L 0.009825455956161022 2.557449340820312 C 0.008466118015348911 2.205145359039307 0.08049188554286957 1.869190692901611 0.2118454575538635 1.563411474227905 C 0.3432237505912781 1.257574081420898 0.533947765827179 0.9819350242614746 0.7699422836303711 0.7503318786621094 C 1.005970478057861 0.518695592880249 1.287269592285156 0.3311207890510559 1.599745154380798 0.2014496624469757 C 1.912245750427246 0.0717681422829628 2.255905628204346 8.990082278614864e-06 2.616612195968628 8.990082278614864e-06 L 16.28701782226562 8.990082278614864e-06 C 16.64773368835449 8.990082278614864e-06 16.99153709411621 0.0717681422829628 17.30428886413574 0.2014496624469757 C 17.61701583862305 0.3311207890510559 17.8986759185791 0.518695592880249 18.1351432800293 0.7503318786621094 C 18.3715763092041 0.9819350242614746 18.56282043457031 1.257574200630188 18.69477844238281 1.563411474227905 C 18.82670783996582 1.869190692901611 18.89936256408691 2.205145359039307 18.89866256713867 2.557449340820312 L 18.85618591308594 23.94670867919922 C 18.85549354553223 24.29428672790527 18.78203010559082 24.62558746337891 18.64986610412598 24.9270191192627 C 18.51772499084473 25.22838973999023 18.32690620422363 25.49990844726562 18.09146308898926 25.72797584533691 C 17.85605430603027 25.95601272583008 17.57602119445801 26.14062690734863 17.26540946960449 26.26822471618652 C 16.95482063293457 26.39581298828125 16.61363220214844 26.46640396118164 16.2558650970459 26.46640396118164 Z M 3.085464477539062 23.56128120422363 L 15.86235237121582 23.56128120422363 L 15.88406562805176 2.947903633117676 L 3.025153636932373 2.947903633117676 L 3.085464477539062 23.56128120422363 Z" stroke="none" fill="#00796b"/>
    </g>
    <g id="Path_190" data-name="Path 190" transform="translate(1060.375 421.829)" fill="#00796b" stroke-miterlimit="10">
      <path d="M8.457,2.453H.624A.112.112,0,0,1,.58,2.444a.121.121,0,0,1-.037-.024.118.118,0,0,1-.025-.036.1.1,0,0,1-.009-.043L.5.6A.1.1,0,0,1,.512.557.117.117,0,0,1,.538.521.12.12,0,0,1,.574.5.112.112,0,0,1,.618.488H8.456A.112.112,0,0,1,8.5.5a.121.121,0,0,1,.037.025.117.117,0,0,1,.025.036A.1.1,0,0,1,8.571.6V2.341a.113.113,0,0,1-.008.043.109.109,0,0,1-.06.06A.122.122,0,0,1,8.457,2.453Z" stroke="none"/>
      <path d="M 8.456941604614258 2.939580678939819 L 0.6251636743545532 2.939580678939819 C 0.5402458906173706 2.939580678939819 0.4592367708683014 2.922790288925171 0.3854730427265167 2.892444372177124 C 0.3117079138755798 2.862097978591919 0.2451872229576111 2.818195581436157 0.1892487853765488 2.763971567153931 C 0.1333084255456924 2.709745645523071 0.08795028924942017 2.645196914672852 0.05651328712701797 2.57356071472168 C 0.02507483027875423 2.501921415328979 0.007558451034128666 2.423193216323853 0.007303948514163494 2.340611934661865 L 0.001939134323038161 0.59980708360672 C 0.001684342860244215 0.517132043838501 0.01872630789875984 0.4383064806461334 0.04974508285522461 0.3665718138217926 C 0.08076527714729309 0.2948340177536011 0.1257632523775101 0.2301884293556213 0.1814182251691818 0.1758770942687988 C 0.237075075507164 0.1215639188885689 0.3033888936042786 0.07758639007806778 0.3770376741886139 0.04718692228198051 C 0.4506879448890686 0.0167868547141552 0.5316722393035889 -3.415362880332395e-05 0.6166676878929138 -3.415362880332395e-05 L 8.455607414245605 -3.415362880332395e-05 C 8.540603637695312 -3.415362880332395e-05 8.621644020080566 0.01678688451647758 8.695395469665527 0.0471869520843029 C 8.769145965576172 0.07758644968271255 8.835607528686523 0.1215639486908913 8.891445159912109 0.1758771240711212 C 8.947281837463379 0.2301884591579437 8.992494583129883 0.2948340475559235 9.023755073547363 0.366571843624115 C 9.055014610290527 0.4383064806461334 9.072319984436035 0.517132043838501 9.072340965270996 0.59980708360672 L 9.072797775268555 2.340611934661865 C 9.072819709777832 2.423193216323853 9.055566787719727 2.501921415328979 9.024367332458496 2.57356071472168 C 8.993169784545898 2.645196914672852 8.948028564453125 2.709745645523071 8.892269134521484 2.763971567153931 C 8.836512565612793 2.818195581436157 8.770138740539551 2.862097978591919 8.696475028991699 2.892444372177124 C 8.62281322479248 2.922790288925171 8.54185962677002 2.939580678939819 8.456941604614258 2.939580678939819 Z M 1.008165001869202 1.965470433235168 L 8.070682525634766 1.965470433235168 L 8.070113182067871 0.9752671122550964 L 1.005421757698059 0.9752671122550964 L 1.008165001869202 1.965470433235168 Z" stroke="none" fill="#00796b"/>
    </g>
    <g id="Path_192" data-name="Path 192" transform="translate(1060.375 430.629)" fill="#00796b" stroke-miterlimit="10">
      <path d="M8.457,2.453H.624A.112.112,0,0,1,.58,2.444a.121.121,0,0,1-.037-.024.118.118,0,0,1-.025-.036.1.1,0,0,1-.009-.043L.5.6A.1.1,0,0,1,.512.557.117.117,0,0,1,.538.521.12.12,0,0,1,.574.5.112.112,0,0,1,.618.488H8.456A.112.112,0,0,1,8.5.5a.121.121,0,0,1,.037.025.117.117,0,0,1,.025.036A.1.1,0,0,1,8.571.6V2.341a.113.113,0,0,1-.008.043.109.109,0,0,1-.06.06A.122.122,0,0,1,8.457,2.453Z" stroke="none"/>
      <path d="M 8.456941604614258 2.939580678939819 L 0.6251636743545532 2.939580678939819 C 0.5402458906173706 2.939580678939819 0.4592367708683014 2.922790288925171 0.3854730427265167 2.892444372177124 C 0.3117079138755798 2.862097978591919 0.2451872229576111 2.818195581436157 0.1892487853765488 2.763971567153931 C 0.1333084255456924 2.709745645523071 0.08795028924942017 2.645196914672852 0.05651328712701797 2.57356071472168 C 0.02507483027875423 2.501921415328979 0.007558451034128666 2.423193216323853 0.007303948514163494 2.340611934661865 L 0.001939134323038161 0.59980708360672 C 0.001684342860244215 0.517132043838501 0.01872630789875984 0.4383064806461334 0.04974508285522461 0.3665718138217926 C 0.08076527714729309 0.2948340177536011 0.1257632523775101 0.2301884293556213 0.1814182251691818 0.1758770942687988 C 0.237075075507164 0.1215639188885689 0.3033888936042786 0.07758639007806778 0.3770376741886139 0.04718692228198051 C 0.4506879448890686 0.0167868547141552 0.5316722393035889 -3.415362880332395e-05 0.6166676878929138 -3.415362880332395e-05 L 8.455607414245605 -3.415362880332395e-05 C 8.540603637695312 -3.415362880332395e-05 8.621644020080566 0.01678688451647758 8.695395469665527 0.0471869520843029 C 8.769145965576172 0.07758644968271255 8.835607528686523 0.1215639486908913 8.891445159912109 0.1758771240711212 C 8.947281837463379 0.2301884591579437 8.992494583129883 0.2948340475559235 9.023755073547363 0.366571843624115 C 9.055014610290527 0.4383064806461334 9.072319984436035 0.517132043838501 9.072340965270996 0.59980708360672 L 9.072797775268555 2.340611934661865 C 9.072819709777832 2.423193216323853 9.055566787719727 2.501921415328979 9.024367332458496 2.57356071472168 C 8.993169784545898 2.645196914672852 8.948028564453125 2.709745645523071 8.892269134521484 2.763971567153931 C 8.836512565612793 2.818195581436157 8.770138740539551 2.862097978591919 8.696475028991699 2.892444372177124 C 8.62281322479248 2.922790288925171 8.54185962677002 2.939580678939819 8.456941604614258 2.939580678939819 Z M 1.008165001869202 1.965470433235168 L 8.070682525634766 1.965470433235168 L 8.070113182067871 0.9752671122550964 L 1.005421757698059 0.9752671122550964 L 1.008165001869202 1.965470433235168 Z" stroke="none" fill="#00796b"/>
    </g>
    <g id="Path_193" data-name="Path 193" transform="translate(1060.375 426.229)" fill="#00796b" stroke-miterlimit="10">
      <path d="M8.457,2.453H.624A.112.112,0,0,1,.58,2.444a.121.121,0,0,1-.037-.024.118.118,0,0,1-.025-.036.1.1,0,0,1-.009-.043L.5.6A.1.1,0,0,1,.512.557.117.117,0,0,1,.538.521.12.12,0,0,1,.574.5.112.112,0,0,1,.618.488H8.456A.112.112,0,0,1,8.5.5a.121.121,0,0,1,.037.025.117.117,0,0,1,.025.036A.1.1,0,0,1,8.571.6V2.341a.113.113,0,0,1-.008.043.109.109,0,0,1-.06.06A.122.122,0,0,1,8.457,2.453Z" stroke="none"/>
      <path d="M 8.456941604614258 2.939611196517944 L 0.6251636743545532 2.939611196517944 C 0.5402458906173706 2.939611196517944 0.4592367708683014 2.922820806503296 0.3854730427265167 2.892474889755249 C 0.3117079138755798 2.862128496170044 0.2451872229576111 2.818226099014282 0.1892487853765488 2.764002084732056 C 0.1333084255456924 2.709776401519775 0.08795028924942017 2.645227670669556 0.05651328712701797 2.573591232299805 C 0.02507483027875423 2.501951932907104 0.007558451034128666 2.423223733901978 0.007303948514163494 2.340642690658569 L 0.001939134323038161 0.5998377203941345 C 0.001684342860244215 0.5171626210212708 0.01872630789875984 0.4383370876312256 0.04974508285522461 0.3666024208068848 C 0.08076527714729309 0.2948646247386932 0.1257632523775101 0.2302190363407135 0.1814182251691818 0.1759076863527298 C 0.237075075507164 0.1215945184230804 0.3033888936042786 0.07761698961257935 0.3770376741886139 0.04721751809120178 C 0.4506879448890686 0.01681745238602161 0.5316722393035889 -3.555802322807722e-06 0.6166676878929138 -3.555802322807722e-06 L 8.455607414245605 -3.555802322807722e-06 C 8.540603637695312 -3.555802322807722e-06 8.621644020080566 0.016817482188344 8.695395469665527 0.04721755161881447 C 8.769145965576172 0.07761704921722412 8.835607528686523 0.1215945482254028 8.891445159912109 0.1759077161550522 C 8.947281837463379 0.2302190661430359 8.992494583129883 0.2948646545410156 9.023755073547363 0.3666024506092072 C 9.055014610290527 0.4383370876312256 9.072319984436035 0.5171626210212708 9.072340965270996 0.5998377203941345 L 9.072797775268555 2.340642690658569 C 9.072819709777832 2.423223733901978 9.055566787719727 2.501951932907104 9.024367332458496 2.573591232299805 C 8.993169784545898 2.645227670669556 8.948028564453125 2.709776401519775 8.892269134521484 2.764002084732056 C 8.836512565612793 2.818226099014282 8.770138740539551 2.862128496170044 8.696475028991699 2.892474889755249 C 8.62281322479248 2.922820806503296 8.54185962677002 2.939611196517944 8.456941604614258 2.939611196517944 Z M 1.008165001869202 1.965500950813293 L 8.070682525634766 1.965500950813293 L 8.070113182067871 0.9752976894378662 L 1.005421757698059 0.9752976894378662 L 1.008165001869202 1.965500950813293 Z" stroke="none" fill="#00796b"/>
    </g>
  </g>
</svg>
