<svg width="3681" height="1750" viewBox="0 0 3681 1750" fill="none" xmlns="http://www.w3.org/2000/svg">
<g opacity="0.69">
<path d="M2566.26 1365.77L1855.95 1278.56C1847.01 1277.45 1838.87 1272.84 1833.32 1265.74C1827.78 1258.64 1825.27 1249.63 1826.36 1240.68L1944.76 276.399C1945.87 267.458 1950.48 259.321 1957.58 253.775C1964.68 248.228 1973.69 245.723 1982.63 246.811L2692.95 334.027C2701.89 335.136 2710.02 339.746 2715.57 346.845C2721.12 353.945 2723.62 362.955 2722.53 371.898L2604.13 1336.18C2603.02 1345.12 2598.41 1353.26 2591.31 1358.81C2584.22 1364.35 2575.2 1366.86 2566.26 1365.77L2566.26 1365.77Z" fill="white"/>
<path d="M2274.96 537.436C2271.54 565.285 2259.39 591.339 2240.27 611.869C2221.14 632.398 2196.01 646.35 2168.47 651.728C2167.65 651.875 2166.82 652.036 2165.99 652.167C2162.43 652.802 2158.85 653.27 2155.21 653.606C2148.64 654.209 2142.03 654.313 2135.44 653.917C2132.57 653.76 2129.7 653.505 2126.83 653.152C2111.97 651.342 2097.53 647.034 2084.12 640.408C2083.73 640.214 2083.34 640.02 2082.95 639.826C2061.24 628.834 2042.97 612.094 2030.12 591.431C2017.27 570.768 2010.34 546.975 2010.08 522.644C2009.82 498.314 2016.25 474.379 2028.65 453.448C2041.06 432.516 2058.98 415.392 2080.44 403.941C2101.91 392.49 2126.11 387.151 2150.41 388.507C2174.7 389.862 2198.16 397.859 2218.22 411.627C2238.28 425.395 2254.18 444.405 2264.19 466.587C2274.19 488.768 2277.91 513.269 2274.95 537.42L2274.96 537.436Z" fill="white"/>
<path d="M2129.13 608.266C2164.58 612.619 2196.85 587.409 2201.2 551.958C2205.56 516.508 2180.35 484.241 2144.9 479.888C2109.45 475.535 2077.18 500.745 2072.83 536.195C2068.47 571.646 2093.68 603.913 2129.13 608.266Z" fill="#00796B"/>
<path d="M2136.51 579.115L2136.87 576.726C2132.43 576.053 2128.53 575.29 2125.83 572.768C2125.08 572.018 2124.49 571.113 2124.11 570.115C2123.73 569.118 2123.57 568.05 2123.65 566.986C2123.67 566.333 2123.85 565.696 2124.16 565.124C2124.48 564.551 2124.92 564.059 2125.45 563.685C2126.65 563.145 2127.98 562.938 2129.29 563.087C2130.59 563.236 2131.84 563.734 2132.88 564.53L2134.76 565.684L2134.37 537.411L2131.95 537.446L2132.28 561.503C2131.02 560.848 2129.61 560.521 2128.19 560.551C2126.76 560.581 2125.37 560.966 2124.13 561.673C2123.29 562.244 2122.59 563.003 2122.09 563.891C2121.58 564.778 2121.29 565.769 2121.24 566.787C2121.13 568.216 2121.34 569.65 2121.85 570.99C2122.36 572.329 2123.16 573.541 2124.18 574.541C2127.64 577.778 2132.56 578.523 2136.51 579.115Z" fill="#2F2E41"/>
<path d="M2119.95 538.039L2107.03 536.453L2106.74 538.851L2119.66 540.437L2119.95 538.039Z" fill="#2F2E41"/>
<path d="M2160.73 543.046L2147.81 541.46L2147.51 543.858L2160.43 545.444L2160.73 543.046Z" fill="#2F2E41"/>
<path d="M2144.23 636.051C2144.5 635.284 2144.69 634.491 2144.79 633.686C2145.16 630.665 2144.31 627.623 2142.44 625.225C2140.56 622.827 2137.81 621.27 2134.8 620.894L2118 618.832C2114.98 618.464 2111.94 619.309 2109.54 621.183C2107.14 623.057 2105.59 625.806 2105.21 628.826C2105.11 629.637 2105.1 630.456 2105.18 631.268C2098.6 632.484 2092.24 634.71 2086.34 637.868C2085.2 638.47 2084.05 639.132 2082.96 639.839C2083.33 640.032 2083.72 640.226 2084.12 640.421C2097.54 647.047 2111.98 651.356 2126.84 653.165C2129.72 653.518 2132.59 653.773 2135.45 653.93C2142.04 654.326 2148.65 654.222 2155.22 653.619C2158.85 653.286 2162.44 652.813 2166 652.18C2159.95 645.345 2152.53 639.851 2144.23 636.051V636.051Z" fill="#2F2E41"/>
<path d="M2139.97 652.95C2138.4 652.874 2136.83 653.216 2135.44 653.941C2142.03 654.337 2148.64 654.234 2155.21 653.631L2139.97 652.95Z" fill="#2F2E41"/>
<path d="M2197.1 535.977L2090.61 481.493C2089.47 480.909 2088.61 479.896 2088.21 478.676C2087.82 477.456 2087.92 476.13 2088.51 474.989L2089.11 473.252C2100.74 450.516 2131.43 439.083 2154.18 450.71L2186.95 467.477C2209.69 479.107 2216.57 508.566 2204.94 531.302L2203.61 533.875C2203.33 534.442 2202.93 534.945 2202.44 535.358C2201.96 535.77 2201.4 536.083 2200.79 536.278C2200.19 536.473 2199.55 536.547 2198.92 536.496C2198.28 536.444 2197.67 536.268 2197.1 535.977V535.977Z" fill="#2F2E41"/>
<path d="M2202.83 538.979C2046.7 525.63 2035.52 504.435 2086.65 479.542L2098.96 462.29L2208.95 518.403L2202.83 538.979Z" fill="#2F2E41"/>
<path d="M2181.13 463.789C2182.34 461.04 2179.11 456.96 2173.91 454.677C2168.72 452.394 2163.53 452.773 2162.32 455.522C2161.11 458.272 2164.34 462.351 2169.54 464.634C2174.73 466.917 2179.92 466.539 2181.13 463.789Z" fill="#2F2E41"/>
<path d="M2126.38 656.771C2111.12 654.914 2096.29 650.487 2082.51 643.679L2081.31 643.079C2052.48 628.473 2029.77 604.117 2017.21 574.34C2004.65 544.564 2003.06 511.299 2012.72 480.46C2022.38 449.621 2042.66 423.207 2069.97 405.917C2097.27 388.627 2129.82 381.58 2161.83 386.031C2193.83 390.482 2223.23 406.141 2244.78 430.224C2266.33 454.306 2278.63 485.252 2279.51 517.556C2280.39 549.861 2269.79 581.431 2249.58 606.651C2229.38 631.871 2200.88 649.107 2169.16 655.294C2168.27 655.46 2167.44 655.618 2166.6 655.759C2163.05 656.388 2159.33 656.887 2155.54 657.234C2148.78 657.853 2141.99 657.959 2135.22 657.553C2132.3 657.396 2129.33 657.132 2126.38 656.771ZM2158.78 392.915C2128.58 389.212 2098.05 396.276 2072.54 412.863C2047.04 429.451 2028.2 454.5 2019.34 483.605C2010.48 512.711 2012.16 544.009 2024.1 571.994C2036.03 599.98 2057.45 622.861 2084.59 636.614L2085.73 637.184C2098.78 643.629 2112.82 647.819 2127.27 649.576C2130.05 649.917 2132.86 650.166 2135.63 650.318C2142.05 650.703 2148.48 650.602 2154.88 650.017C2158.46 649.69 2161.99 649.219 2165.35 648.619C2166.18 648.474 2166.98 648.324 2167.77 648.173C2197.98 642.277 2225.09 625.799 2244.24 601.701C2263.39 577.603 2273.31 547.465 2272.23 516.705C2271.15 485.945 2259.13 456.579 2238.33 433.888C2217.54 411.196 2189.33 396.666 2158.78 392.91L2158.78 392.915Z" fill="#CCCCCC"/>
<path d="M2566.26 1365.77L1855.95 1278.56C1847.01 1277.45 1838.87 1272.84 1833.32 1265.74C1827.78 1258.64 1825.27 1249.63 1826.36 1240.68L1944.76 276.399C1945.87 267.458 1950.48 259.321 1957.58 253.775C1964.68 248.228 1973.69 245.723 1982.63 246.811L2692.95 334.027C2701.89 335.136 2710.02 339.746 2715.57 346.845C2721.12 353.945 2723.62 362.955 2722.53 371.898L2604.13 1336.18C2603.02 1345.12 2598.41 1353.26 2591.31 1358.81C2584.22 1364.35 2575.2 1366.86 2566.26 1365.77L2566.26 1365.77ZM1982.14 250.779C1974.25 249.821 1966.3 252.031 1960.04 256.924C1953.78 261.817 1949.71 268.995 1948.73 276.882L1830.33 1241.17C1829.37 1249.06 1831.58 1257.01 1836.48 1263.27C1841.37 1269.54 1848.55 1273.6 1856.44 1274.58L2566.75 1361.8C2574.64 1362.76 2582.59 1360.55 2588.85 1355.65C2595.12 1350.76 2599.18 1343.58 2600.16 1335.69L2718.56 371.41C2719.52 363.52 2717.31 355.572 2712.42 349.309C2707.52 343.046 2700.35 338.979 2692.46 338L1982.14 250.779Z" fill="#CCCCCC"/>
<path d="M2524.7 567.588L2323.69 542.907C2319.47 542.39 2315.63 540.218 2313.02 536.869C2310.4 533.521 2309.22 529.271 2309.74 525.053C2310.26 520.836 2312.43 516.997 2315.78 514.381C2319.13 511.765 2323.38 510.586 2327.6 511.104L2528.6 535.785C2532.82 536.303 2536.66 538.475 2539.28 541.823C2541.89 545.171 2543.07 549.422 2542.55 553.639C2542.04 557.856 2539.86 561.695 2536.52 564.311C2533.17 566.927 2528.92 568.106 2524.7 567.588V567.588Z" fill="#E6E6E6" fill-opacity="0.59"/>
<path d="M2583.69 629.317L2317.1 596.584C2312.88 596.066 2309.04 593.894 2306.43 590.546C2303.81 587.197 2302.63 582.947 2303.15 578.73C2303.67 574.512 2305.84 570.673 2309.19 568.057C2312.54 565.441 2316.79 564.263 2321 564.781L2587.59 597.514C2591.81 598.032 2595.65 600.204 2598.27 603.552C2600.88 606.9 2602.06 611.15 2601.54 615.368C2601.02 619.585 2598.85 623.424 2595.5 626.04C2592.16 628.656 2587.91 629.835 2583.69 629.317Z" fill="#E6E6E6" fill-opacity="0.59"/>
<path d="M2492.53 827.048L1991.93 765.582C1987.72 765.064 1983.88 762.892 1981.26 759.544C1978.64 756.196 1977.47 751.946 1977.98 747.728C1978.5 743.511 1980.67 739.672 1984.02 737.056C1987.37 734.44 1991.62 733.261 1995.84 733.779L2496.44 795.245C2500.65 795.763 2504.49 797.935 2507.11 801.283C2509.73 804.631 2510.9 808.882 2510.39 813.099C2509.87 817.316 2507.7 821.155 2504.35 823.771C2501 826.387 2496.75 827.566 2492.53 827.048V827.048Z" fill="#E6E6E6" fill-opacity="0.59"/>
<path d="M2551.54 888.767L1985.34 819.247C1981.13 818.729 1977.29 816.557 1974.67 813.209C1972.06 809.861 1970.88 805.611 1971.39 801.393C1971.91 797.176 1974.08 793.337 1977.43 790.721C1980.78 788.105 1985.03 786.926 1989.25 787.444L2555.44 856.964C2559.66 857.482 2563.5 859.653 2566.11 863.002C2568.73 866.35 2569.91 870.6 2569.39 874.818C2568.87 879.035 2566.7 882.874 2563.35 885.49C2560 888.106 2555.75 889.285 2551.54 888.767Z" fill="#E6E6E6" fill-opacity="0.59"/>
<path d="M2470.8 1004.06L1970.2 942.593C1965.98 942.076 1962.14 939.904 1959.53 936.555C1956.91 933.207 1955.73 928.957 1956.25 924.739C1956.77 920.522 1958.94 916.683 1962.29 914.067C1965.64 911.451 1969.89 910.273 1974.1 910.79L2474.7 972.256C2478.92 972.774 2482.76 974.946 2485.38 978.294C2487.99 981.643 2489.17 985.893 2488.65 990.11C2488.13 994.328 2485.96 998.167 2482.61 1000.78C2479.27 1003.4 2475.02 1004.58 2470.8 1004.06V1004.06Z" fill="#E6E6E6" fill-opacity="0.59"/>
<path d="M2529.8 1065.78L1963.61 996.257C1959.39 995.74 1955.55 993.568 1952.94 990.219C1950.32 986.871 1949.14 982.621 1949.66 978.404C1950.18 974.186 1952.35 970.347 1955.7 967.731C1959.05 965.115 1963.3 963.937 1967.51 964.454L2533.71 1033.97C2537.92 1034.49 2541.76 1036.66 2544.38 1040.01C2546.99 1043.36 2548.17 1047.61 2547.65 1051.83C2547.14 1056.05 2544.97 1059.88 2541.62 1062.5C2538.27 1065.12 2534.02 1066.29 2529.8 1065.78Z" fill="#E6E6E6" fill-opacity="0.59"/>
<path d="M2449.06 1181.07L1948.46 1119.6C1944.25 1119.09 1940.41 1116.91 1937.79 1113.57C1935.18 1110.22 1934 1105.97 1934.52 1101.75C1935.03 1097.53 1937.21 1093.69 1940.55 1091.08C1943.9 1088.46 1948.15 1087.28 1952.37 1087.8L2452.97 1149.27C2457.19 1149.78 2461.03 1151.96 2463.64 1155.3C2466.26 1158.65 2467.44 1162.9 2466.92 1167.12C2466.4 1171.34 2464.23 1175.18 2460.88 1177.79C2457.53 1180.41 2453.28 1181.59 2449.06 1181.07Z" fill="#E6E6E6" fill-opacity="0.59"/>
<path d="M2508.07 1242.79L1941.88 1173.27C1937.66 1172.75 1933.82 1170.58 1931.2 1167.23C1928.59 1163.88 1927.41 1159.63 1927.93 1155.41C1928.44 1151.2 1930.62 1147.36 1933.96 1144.74C1937.31 1142.13 1941.56 1140.95 1945.78 1141.46L2511.97 1210.98C2516.19 1211.5 2520.03 1213.67 2522.64 1217.02C2525.26 1220.37 2526.44 1224.62 2525.92 1228.84C2525.4 1233.06 2523.23 1236.89 2519.88 1239.51C2516.53 1242.13 2512.28 1243.31 2508.07 1242.79Z" fill="#E6E6E6" fill-opacity="0.59"/>
<path d="M3520.59 1237.23L2810.27 1150.02C2801.33 1148.91 2793.19 1144.3 2787.65 1137.2C2782.1 1130.1 2779.6 1121.09 2780.69 1112.15L2899.09 147.868C2900.19 138.926 2904.8 130.79 2911.9 125.243C2919 119.696 2928.01 117.192 2936.96 118.279L3647.27 205.495C3656.21 206.603 3664.35 211.213 3669.89 218.313C3675.44 225.412 3677.95 234.422 3676.86 243.366L3558.46 1207.65C3557.35 1216.59 3552.74 1224.73 3545.64 1230.28C3538.54 1235.82 3529.53 1238.33 3520.59 1237.24L3520.59 1237.23Z" fill="white"/>
<path d="M3520.59 1237.23L2810.27 1150.02C2801.33 1148.91 2793.19 1144.3 2787.65 1137.2C2782.1 1130.1 2779.6 1121.09 2780.69 1112.15L2899.09 147.868C2900.19 138.926 2904.8 130.79 2911.9 125.243C2919 119.696 2928.01 117.192 2936.96 118.279L3647.27 205.495C3656.21 206.603 3664.35 211.213 3669.89 218.313C3675.44 225.412 3677.95 234.422 3676.86 243.366L3558.46 1207.65C3557.35 1216.59 3552.74 1224.73 3545.64 1230.28C3538.54 1235.82 3529.53 1238.33 3520.59 1237.24L3520.59 1237.23ZM2936.46 122.252C2928.57 121.294 2920.63 123.503 2914.36 128.397C2908.1 133.29 2904.03 140.467 2903.05 148.355L2784.65 1112.63C2783.7 1120.52 2785.91 1128.47 2790.8 1134.74C2795.69 1141 2802.87 1145.07 2810.76 1146.04L3521.08 1233.26C3528.97 1234.22 3536.91 1232.01 3543.18 1227.12C3549.44 1222.22 3553.51 1215.05 3554.49 1207.16L3672.89 242.878C3673.84 234.988 3671.63 227.04 3666.74 220.777C3661.85 214.514 3654.67 210.447 3646.78 209.468L2936.46 122.252Z" fill="#CCCCCC"/>
<path d="M3229.77 407.633C3226.57 433.726 3215.7 458.284 3198.54 478.199C3181.38 498.115 3158.7 512.495 3133.36 519.52C3108.03 526.546 3081.18 525.901 3056.22 517.669C3031.25 509.436 3009.29 493.984 2993.1 473.268C2976.92 452.552 2967.24 427.502 2965.29 401.285C2963.34 375.068 2969.21 348.862 2982.15 325.981C2995.1 303.101 3014.54 284.572 3038.02 272.74C3061.49 260.907 3087.95 256.301 3114.04 259.505C3131.37 261.632 3148.1 267.151 3163.3 275.747C3178.49 284.342 3191.84 295.846 3202.59 309.601C3213.33 323.356 3221.26 339.093 3225.93 355.913C3230.59 372.734 3231.9 390.308 3229.77 407.633V407.633Z" fill="white"/>
<path d="M3156.05 421.497C3144.25 505.695 3018.74 490.273 3027.67 405.735C3039.47 321.534 3164.98 336.959 3156.05 421.497Z" fill="#00796B"/>
<path d="M3086.1 439.492L3086.33 437.086C3102.59 441.324 3108.67 421.26 3091.05 426.883L3098.27 399.545L3100.61 400.161L3094.46 423.423C3112.34 422.956 3103.16 444.03 3086.1 439.492Z" fill="#2F2E41"/>
<path d="M3125.03 405.223L3112.11 403.636L3111.81 406.034L3124.73 407.62L3125.03 405.223Z" fill="#2F2E41"/>
<path d="M3084.25 400.216L3071.33 398.629L3071.03 401.027L3083.95 402.613L3084.25 400.216Z" fill="#2F2E41"/>
<path d="M3101.65 505.914C3106.25 489.228 3085.94 490.143 3075.43 488.682C3073.74 488.479 3072.01 488.657 3070.39 489.204C3068.77 489.75 3067.29 490.652 3066.06 491.842C3064.84 493.033 3063.89 494.482 3063.29 496.085C3062.69 497.688 3062.46 499.404 3062.61 501.109C3054.15 502.627 3046.09 505.865 3038.93 510.62C3065.07 523.492 3094.69 527.463 3123.29 521.928C3117.32 515.083 3109.94 509.618 3101.65 505.914V505.914Z" fill="#2F2E41"/>
<path d="M3065.41 379.551C3078.15 374.136 3091.93 381.183 3103.86 385.575C3126.3 395.603 3160.09 390.644 3166.33 363.221C3172.46 337.756 3138.89 319.023 3124.44 343.341L3127.78 343.316C3097.84 284.388 3033.88 278.632 3025.11 353.514C3024.69 355.81 3028.29 356.245 3028.71 353.956C3032.78 309.695 3065.66 283.136 3103.44 316.538C3111.76 324.883 3118.84 334.386 3124.46 344.754C3128.16 350.096 3131.64 329.476 3151.54 337.433C3173.09 348.978 3161.73 380.477 3140.63 385.115C3114.07 394.815 3090.04 366.735 3063.98 376.233C3063.54 376.428 3063.2 376.786 3063.03 377.23C3062.85 377.674 3062.86 378.168 3063.05 378.606C3063.24 379.043 3063.59 379.389 3064.04 379.568C3064.48 379.747 3064.97 379.746 3065.41 379.564L3065.41 379.551Z" fill="#2F2E41"/>
<path d="M3081.2 526.961C3047.14 522.752 3015.91 505.857 2993.75 479.644C2971.59 453.431 2960.12 419.827 2961.64 385.535C2963.15 351.243 2977.54 318.783 3001.93 294.628C3026.32 270.473 3058.91 256.399 3093.22 255.213C3127.52 254.028 3161.02 265.817 3187.01 288.23C3213.01 310.643 3229.61 342.032 3233.49 376.138C3237.37 410.243 3228.25 444.559 3207.95 472.239C3187.65 499.92 3157.67 518.932 3123.97 525.483C3109.88 528.222 3095.45 528.721 3081.2 526.961V526.961ZM3113.6 263.105C3088.22 259.984 3062.48 264.461 3039.63 275.971C3016.79 287.48 2997.88 305.505 2985.28 327.765C2972.68 350.024 2966.97 375.52 2968.87 401.027C2970.76 426.534 2980.18 450.906 2995.92 471.061C3011.67 491.217 3033.04 506.25 3057.33 514.259C3081.62 522.269 3107.74 522.896 3132.39 516.06C3157.03 509.224 3179.1 495.232 3195.79 475.855C3212.49 456.478 3223.06 432.585 3226.17 407.198C3230.35 373.163 3220.83 338.864 3199.72 311.843C3178.61 284.821 3147.64 267.29 3113.6 263.105Z" fill="#CCCCCC"/>
<path d="M3479.01 439.051L3278.01 414.371C3273.8 413.853 3269.96 411.681 3267.34 408.333C3264.73 404.985 3263.55 400.735 3264.06 396.517C3264.58 392.3 3266.75 388.461 3270.1 385.845C3273.45 383.229 3277.7 382.05 3281.92 382.568L3482.91 407.247C3487.13 407.765 3490.97 409.937 3493.58 413.285C3496.2 416.633 3497.38 420.884 3496.86 425.101C3496.34 429.318 3494.17 433.157 3490.82 435.773C3487.48 438.389 3483.22 439.568 3479.01 439.05L3479.01 439.051Z" fill="#E6E6E6" fill-opacity="0.59"/>
<path d="M3538.01 500.768L3271.42 468.035C3267.21 467.517 3263.37 465.345 3260.75 461.997C3258.14 458.649 3256.96 454.399 3257.48 450.181C3257.99 445.964 3260.17 442.125 3263.51 439.509C3266.86 436.893 3271.11 435.714 3275.33 436.232L3541.92 468.965C3546.14 469.483 3549.98 471.655 3552.59 475.003C3555.21 478.352 3556.39 482.602 3555.87 486.819C3555.35 491.037 3553.18 494.876 3549.83 497.492C3546.48 500.108 3542.23 501.286 3538.01 500.768V500.768Z" fill="#E6E6E6" fill-opacity="0.59"/>
<path d="M3446.86 698.51L2946.26 637.044C2942.04 636.526 2938.2 634.354 2935.59 631.006C2932.97 627.658 2931.79 623.407 2932.31 619.19C2932.83 614.973 2935 611.134 2938.35 608.518C2941.7 605.902 2945.95 604.723 2950.17 605.241L3450.76 666.707C3454.98 667.224 3458.82 669.396 3461.43 672.745C3464.05 676.093 3465.23 680.343 3464.71 684.561C3464.19 688.778 3462.02 692.617 3458.67 695.233C3455.32 697.849 3451.07 699.028 3446.86 698.51Z" fill="#E6E6E6" fill-opacity="0.59"/>
<path d="M3505.86 760.231L2939.67 690.711C2935.45 690.193 2931.61 688.021 2929 684.673C2926.38 681.325 2925.2 677.074 2925.72 672.857C2926.24 668.64 2928.41 664.801 2931.76 662.185C2935.11 659.569 2939.36 658.39 2943.57 658.908L3509.76 728.428C3513.98 728.945 3517.82 731.117 3520.44 734.466C3523.05 737.814 3524.23 742.064 3523.71 746.282C3523.2 750.499 3521.02 754.338 3517.68 756.954C3514.33 759.57 3510.08 760.748 3505.86 760.231Z" fill="#E6E6E6" fill-opacity="0.59"/>
<path d="M3425.12 875.52L2924.53 814.055C2920.31 813.537 2916.47 811.365 2913.85 808.017C2911.24 804.669 2910.06 800.418 2910.58 796.201C2911.1 791.983 2913.27 788.145 2916.62 785.529C2919.96 782.913 2924.21 781.734 2928.43 782.252L3429.03 843.717C3433.25 844.235 3437.08 846.407 3439.7 849.755C3442.32 853.104 3443.5 857.354 3442.98 861.571C3442.46 865.789 3440.29 869.628 3436.94 872.244C3433.59 874.86 3429.34 876.038 3425.12 875.52Z" fill="#E6E6E6" fill-opacity="0.59"/>
<path d="M3484.13 937.241L2917.93 867.721C2913.72 867.203 2909.88 865.031 2907.26 861.683C2904.65 858.335 2903.47 854.085 2903.98 849.867C2904.5 845.65 2906.67 841.811 2910.02 839.195C2913.37 836.579 2917.62 835.4 2921.84 835.918L3488.03 905.438C3492.25 905.956 3496.09 908.128 3498.7 911.476C3501.32 914.824 3502.5 919.074 3501.98 923.292C3501.46 927.509 3499.29 931.348 3495.94 933.964C3492.59 936.58 3488.34 937.759 3484.13 937.241Z" fill="#E6E6E6" fill-opacity="0.59"/>
<path d="M3403.39 1052.53L2902.79 991.068C2898.57 990.55 2894.74 988.378 2892.12 985.03C2889.5 981.682 2888.32 977.431 2888.84 973.214C2889.36 968.997 2891.53 965.158 2894.88 962.542C2898.23 959.926 2902.48 958.747 2906.7 959.265L3407.29 1020.73C3411.51 1021.25 3415.35 1023.42 3417.97 1026.77C3420.58 1030.12 3421.76 1034.37 3421.24 1038.58C3420.73 1042.8 3418.55 1046.64 3415.2 1049.26C3411.86 1051.87 3407.61 1053.05 3403.39 1052.53Z" fill="#E6E6E6" fill-opacity="0.59"/>
<path d="M3462.39 1114.25L2896.2 1044.73C2891.98 1044.21 2888.14 1042.04 2885.53 1038.69C2882.91 1035.35 2881.73 1031.1 2882.25 1026.88C2882.77 1022.66 2884.94 1018.82 2888.29 1016.21C2891.64 1013.59 2895.89 1012.41 2900.11 1012.93L3466.3 1082.45C3470.51 1082.97 3474.35 1085.14 3476.97 1088.49C3479.58 1091.83 3480.76 1096.09 3480.25 1100.3C3479.73 1104.52 3477.56 1108.36 3474.21 1110.97C3470.86 1113.59 3466.61 1114.77 3462.39 1114.25Z" fill="#E6E6E6" fill-opacity="0.59"/>
<path d="M3041.1 1599.3L2330.78 1512.08C2321.84 1510.97 2313.71 1506.36 2308.16 1499.26C2302.61 1492.16 2300.11 1483.15 2301.2 1474.21L2419.6 509.922C2420.7 500.981 2425.31 492.844 2432.41 487.297C2439.51 481.75 2448.52 479.246 2457.47 480.334L3167.78 567.55C3176.72 568.658 3184.86 573.268 3190.41 580.367C3195.95 587.467 3198.46 596.477 3197.37 605.421L3078.97 1569.71C3077.86 1578.65 3073.25 1586.78 3066.15 1592.33C3059.05 1597.88 3050.04 1600.38 3041.1 1599.3V1599.3Z" fill="white"/>
<path d="M2486.23 735.854C2484.07 753.215 2485.38 770.831 2490.06 787.686C2494.75 804.541 2502.73 820.301 2513.54 834.057C2514.44 835.203 2515.37 836.352 2516.32 837.478C2522.01 844.275 2528.37 850.484 2535.3 856.013C2536.63 857.078 2537.96 858.106 2539.34 859.114C2546.39 864.317 2553.95 868.805 2561.89 872.512C2563.26 873.156 2564.66 873.778 2566.06 874.363C2591.44 885.137 2619.53 887.788 2646.48 881.95C2647 881.831 2647.53 881.712 2648.04 881.595C2671.74 876.128 2693.48 864.265 2710.91 847.298C2728.33 830.331 2740.76 808.91 2746.85 785.367C2752.94 761.824 2752.46 737.061 2745.46 713.773C2738.45 690.485 2725.19 669.566 2707.12 653.291C2689.05 637.017 2666.86 626.012 2642.97 621.473C2619.08 616.934 2594.4 619.037 2571.62 627.551C2548.84 636.065 2528.83 650.665 2513.78 669.762C2498.72 688.858 2489.19 711.719 2486.22 735.856L2486.23 735.854Z" fill="white"/>
<path d="M2582.36 813.296C2581.17 823.525 2576.19 832.937 2568.4 839.676C2560.7 846.287 2550 849.983 2540.06 846.691C2530.9 843.658 2524.28 834.519 2526.45 824.719C2526.87 822.589 2527.76 820.577 2529.04 818.823C2530.31 817.068 2531.96 815.614 2533.86 814.561C2535.76 813.508 2537.86 812.882 2540.03 812.726C2542.19 812.571 2544.37 812.889 2546.4 813.659C2555.03 817.066 2557 830.351 2548.83 835.468C2546.87 836.696 2544.62 833.852 2546.6 832.612C2547.83 831.734 2548.83 830.56 2549.49 829.198C2550.15 827.836 2550.47 826.33 2550.4 824.816C2550.32 823.303 2549.88 821.832 2549.09 820.537C2548.3 819.242 2547.21 818.166 2545.9 817.405C2544.33 816.683 2542.62 816.327 2540.89 816.364C2539.17 816.4 2537.47 816.829 2535.94 817.617C2534.4 818.405 2533.07 819.532 2532.03 820.912C2531 822.293 2530.29 823.891 2529.96 825.585C2528.35 833.877 2533.98 840.963 2541.66 843.411C2549.96 846.06 2558.92 842.744 2565.42 837.445C2572.87 831.282 2577.65 822.469 2578.75 812.856C2578.83 812.392 2579.08 811.976 2579.45 811.694C2579.83 811.412 2580.3 811.286 2580.76 811.343C2581.23 811.4 2581.65 811.636 2581.95 812C2582.25 812.365 2582.39 812.83 2582.35 813.298L2582.36 813.296Z" fill="#2F2E41"/>
<path d="M2614.68 840.482C2650.13 844.835 2682.4 819.625 2686.75 784.175C2691.11 748.724 2665.9 716.457 2630.45 712.104C2595 707.751 2562.73 732.961 2558.38 768.412C2554.02 803.862 2579.23 836.129 2614.68 840.482Z" fill="#00796B"/>
<path d="M2615.92 803.28L2616.14 800.874C2620.62 801.298 2624.59 801.501 2627.81 799.705C2628.73 799.161 2629.52 798.425 2630.13 797.548C2630.74 796.672 2631.15 795.674 2631.34 794.624C2631.47 793.984 2631.45 793.323 2631.28 792.692C2631.12 792.06 2630.81 791.476 2630.38 790.983C2629.35 790.169 2628.11 789.649 2626.81 789.477C2625.5 789.305 2624.17 789.488 2622.97 790.006L2620.87 790.672L2628.09 763.334L2630.42 763.952L2624.28 787.214C2625.67 786.885 2627.11 786.908 2628.49 787.282C2629.86 787.655 2631.12 788.366 2632.15 789.351C2632.83 790.11 2633.33 791.016 2633.6 791.998C2633.87 792.98 2633.91 794.012 2633.72 795.013C2633.47 796.425 2632.92 797.766 2632.11 798.943C2631.29 800.119 2630.22 801.103 2628.99 801.825C2624.85 804.122 2619.9 803.655 2615.92 803.28Z" fill="#2F2E41"/>
<path d="M2654.85 769.012L2641.93 767.425L2641.63 769.823L2654.55 771.409L2654.85 769.012Z" fill="#2F2E41"/>
<path d="M2614.07 764.004L2601.15 762.418L2600.86 764.816L2613.78 766.402L2614.07 764.004Z" fill="#2F2E41"/>
<path d="M2566.07 874.364C2591.45 885.138 2619.54 887.788 2646.48 881.95C2647.01 881.831 2647.54 881.712 2648.05 881.595C2642.54 876.15 2636.09 871.745 2629.01 868.591C2629.76 866.811 2629.99 864.857 2629.68 862.952C2629.24 860.53 2628.02 858.315 2626.22 856.638C2624.42 854.96 2622.13 853.909 2619.68 853.64L2604.04 851.72C2601.61 851.388 2599.13 851.852 2596.98 853.042C2594.83 854.233 2593.12 856.087 2592.12 858.327C2591.35 860.105 2591.1 862.061 2591.4 863.973C2584.68 865.161 2578.19 867.41 2572.17 870.634C2570.96 871.278 2569.78 871.958 2568.64 872.676C2567.77 873.213 2566.9 873.786 2566.07 874.364Z" fill="#2F2E41"/>
<path d="M2673.68 775.659C2672.35 786.476 2676.58 796.101 2683.31 798.512C2683.99 798.758 2684.7 798.928 2685.42 799.019C2693.35 799.993 2701 791.108 2702.46 779.198C2703.4 773.08 2702.18 766.828 2699.01 761.51C2698.02 759.95 2696.72 758.604 2695.2 757.549C2693.87 756.629 2692.33 756.044 2690.72 755.843C2688.51 755.599 2686.28 756.057 2684.34 757.154C2679.04 760.003 2674.74 767.034 2673.68 775.659Z" fill="#3F3D56"/>
<path d="M2545.35 759.902C2544.21 769.21 2547.17 777.632 2552.31 781.344C2553.72 782.376 2555.36 783.034 2557.09 783.258C2557.48 783.305 2557.86 783.329 2558.25 783.328C2565.75 783.36 2572.74 774.771 2574.14 763.437C2575.25 754.358 2572.45 746.112 2567.54 742.283C2566.06 741.091 2564.28 740.329 2562.39 740.081C2560.78 739.888 2559.15 740.084 2557.64 740.653C2555.9 741.313 2554.31 742.31 2552.97 743.586C2548.62 747.981 2545.93 753.747 2545.35 759.902L2545.35 759.902Z" fill="#3F3D56"/>
<path d="M2553.46 779.382C2553.75 779.418 2554.04 779.385 2554.31 779.286C2554.58 779.186 2554.82 779.024 2555.02 778.813C2555.21 778.601 2555.36 778.346 2555.43 778.068C2555.51 777.791 2555.52 777.499 2555.46 777.216C2553.28 766.57 2553.58 755.563 2556.34 745.052C2559.11 734.541 2564.26 724.808 2571.39 716.611C2578.53 708.413 2587.46 701.971 2597.49 697.786C2607.52 693.601 2618.38 691.784 2629.22 692.478C2640.07 693.172 2650.61 696.358 2660.02 701.787C2669.44 707.217 2677.47 714.744 2683.51 723.784C2689.54 732.824 2693.41 743.133 2694.81 753.911C2696.21 764.688 2695.1 775.644 2691.58 785.925C2691.49 786.154 2691.45 786.399 2691.45 786.645C2691.46 786.892 2691.51 787.134 2691.62 787.358C2691.72 787.582 2691.87 787.782 2692.05 787.947C2692.23 788.112 2692.45 788.238 2692.68 788.317C2692.92 788.396 2693.16 788.427 2693.41 788.408C2693.65 788.388 2693.89 788.319 2694.11 788.204C2694.33 788.089 2694.52 787.931 2694.68 787.739C2694.83 787.548 2694.94 787.327 2695.01 787.089C2698.72 776.279 2699.88 764.76 2698.41 753.427C2696.94 742.094 2692.87 731.253 2686.53 721.747C2680.19 712.241 2671.74 704.325 2661.84 698.616C2651.94 692.906 2640.86 689.556 2629.45 688.827C2618.05 688.097 2606.63 690.008 2596.08 694.41C2585.54 698.812 2576.15 705.586 2568.65 714.207C2561.15 722.828 2555.73 733.063 2552.83 744.116C2549.93 755.169 2549.61 766.742 2551.91 777.937C2551.99 778.308 2552.18 778.645 2552.46 778.902C2552.74 779.158 2553.09 779.32 2553.47 779.366L2553.46 779.382Z" fill="#3F3D56"/>
<path d="M2659.92 738.666C2660.77 740.536 2660.96 742.64 2660.46 744.632C2659.96 746.625 2658.8 748.388 2657.16 749.632C2653.2 753.107 2647.61 752.669 2642.88 751.344C2637.56 749.87 2632.13 746.628 2626.44 747.662C2621.59 748.552 2617.73 752.375 2612.75 752.842C2608.33 753.257 2603.34 751.377 2602.39 746.603C2601.93 744.318 2605.53 743.792 2605.98 746.073C2606.59 749.161 2610.81 749.62 2613.32 749.095C2617.36 748.253 2620.73 745.414 2624.72 744.35C2629.43 743.502 2634.28 744.112 2638.64 746.097C2642.82 747.601 2647.61 749.64 2652.11 748.356C2655.44 747.406 2658.49 743.496 2656.59 740.101C2655.45 738.062 2658.79 736.658 2659.92 738.666L2659.92 738.666Z" fill="#2F2E41"/>
<path d="M2601.51 887.579C2588.82 886.031 2576.41 882.704 2564.64 877.697C2563.26 877.118 2561.82 876.477 2560.36 875.794C2552.2 871.985 2544.44 867.375 2537.19 862.034C2535.83 861.034 2534.47 859.991 2533.04 858.845C2525.92 853.164 2519.39 846.786 2513.54 839.806C2512.58 838.655 2511.63 837.479 2510.7 836.307C2492.47 813.045 2482.28 784.495 2481.66 754.947C2481.04 725.399 2490.03 696.448 2507.27 672.443C2524.51 648.439 2549.08 630.677 2577.27 621.826C2605.47 612.975 2635.78 613.513 2663.65 623.359C2691.51 633.205 2715.43 651.827 2731.81 676.428C2748.19 701.029 2756.14 730.281 2754.48 759.788C2752.81 789.296 2741.62 817.466 2722.57 840.067C2703.53 862.669 2677.67 878.48 2648.87 885.127C2648.36 885.247 2647.82 885.367 2647.28 885.487C2632.26 888.763 2616.78 889.47 2601.52 887.58L2601.51 887.579ZM2633.91 623.723C2608.51 620.606 2582.76 625.095 2559.91 636.622C2537.07 648.15 2518.16 666.197 2505.57 688.479C2492.99 710.761 2487.3 736.276 2489.23 761.793C2491.15 787.31 2500.61 811.682 2516.39 831.822C2517.27 832.92 2518.18 834.049 2519.1 835.15C2524.64 841.761 2530.82 847.801 2537.56 853.181C2538.92 854.266 2540.2 855.251 2541.49 856.193C2548.35 861.253 2555.7 865.619 2563.43 869.226C2564.8 869.867 2566.15 870.469 2567.46 871.019C2592.16 881.504 2619.49 884.082 2645.71 878.399L2647.24 878.054C2676.85 871.209 2703.11 854.152 2721.4 829.876C2739.69 805.6 2748.84 775.657 2747.25 745.305C2745.66 714.952 2733.43 686.129 2712.71 663.895C2691.98 641.662 2664.09 627.44 2633.92 623.725L2633.91 623.723Z" fill="#CCCCCC"/>
<path d="M3041.1 1599.3L2330.78 1512.08C2321.84 1510.97 2313.71 1506.36 2308.16 1499.26C2302.61 1492.16 2300.11 1483.15 2301.2 1474.21L2419.6 509.922C2420.7 500.981 2425.31 492.844 2432.41 487.297C2439.51 481.75 2448.52 479.246 2457.47 480.334L3167.78 567.55C3176.72 568.658 3184.86 573.268 3190.41 580.367C3195.95 587.467 3198.46 596.477 3197.37 605.421L3078.97 1569.71C3077.86 1578.65 3073.25 1586.78 3066.15 1592.33C3059.05 1597.88 3050.04 1600.38 3041.1 1599.3V1599.3ZM2456.98 484.302C2449.09 483.344 2441.14 485.554 2434.88 490.447C2428.61 495.34 2424.55 502.518 2423.57 510.405L2305.17 1474.69C2304.21 1482.58 2306.42 1490.53 2311.31 1496.8C2316.21 1503.06 2323.38 1507.13 2331.27 1508.1L3041.59 1595.32C3049.48 1596.28 3057.43 1594.07 3063.69 1589.18C3069.95 1584.28 3074.02 1577.1 3075 1569.22L3193.4 604.933C3194.36 597.043 3192.15 589.095 3187.25 582.832C3182.36 576.569 3175.18 572.502 3167.29 571.523L2456.98 484.302Z" fill="#3F3D56"/>
<path d="M2999.52 801.109L2798.53 776.43C2794.31 775.912 2790.47 773.74 2787.86 770.392C2785.24 767.044 2784.06 762.793 2784.58 758.576C2785.1 754.358 2787.27 750.52 2790.62 747.904C2793.96 745.288 2798.22 744.109 2802.43 744.627L3003.43 769.306C3007.64 769.824 3011.48 771.996 3014.1 775.344C3016.71 778.692 3017.89 782.942 3017.38 787.16C3016.86 791.377 3014.69 795.216 3011.34 797.832C3007.99 800.448 3003.74 801.627 2999.52 801.109L2999.52 801.109Z" fill="#00796B"/>
<path d="M3058.53 862.831L2791.94 830.097C2787.72 829.579 2783.88 827.408 2781.26 824.059C2778.65 820.711 2777.47 816.461 2777.99 812.243C2778.5 808.026 2780.68 804.187 2784.02 801.571C2787.37 798.955 2791.62 797.776 2795.84 798.294L3062.43 831.027C3066.65 831.545 3070.49 833.717 3073.1 837.066C3075.72 840.414 3076.9 844.664 3076.38 848.881C3075.86 853.099 3073.69 856.938 3070.34 859.554C3066.99 862.17 3062.74 863.348 3058.53 862.831V862.831Z" fill="#00796B"/>
<path d="M2967.37 1060.57L2466.76 999.105C2462.55 998.587 2458.71 996.415 2456.09 993.067C2453.48 989.719 2452.3 985.468 2452.82 981.251C2453.33 977.034 2455.51 973.195 2458.85 970.579C2462.2 967.963 2466.45 966.784 2470.67 967.302L2971.27 1028.77C2975.49 1029.29 2979.33 1031.46 2981.95 1034.81C2984.56 1038.15 2985.74 1042.41 2985.22 1046.62C2984.71 1050.84 2982.53 1054.68 2979.19 1057.29C2975.84 1059.91 2971.59 1061.09 2967.37 1060.57V1060.57Z" fill="#CCCCCC"/>
<path d="M3026.37 1122.29L2460.18 1052.77C2455.96 1052.25 2452.12 1050.08 2449.5 1046.73C2446.89 1043.39 2445.71 1039.14 2446.23 1034.92C2446.74 1030.7 2448.92 1026.86 2452.26 1024.25C2455.61 1021.63 2459.86 1020.45 2464.08 1020.97L3030.28 1090.49C3034.49 1091.01 3038.33 1093.18 3040.95 1096.53C3043.56 1099.88 3044.74 1104.13 3044.23 1108.34C3043.71 1112.56 3041.54 1116.4 3038.19 1119.02C3034.84 1121.63 3030.59 1122.81 3026.37 1122.29V1122.29Z" fill="#CCCCCC"/>
<path d="M2945.64 1237.58L2445.03 1176.12C2440.81 1175.6 2436.97 1173.43 2434.36 1170.08C2431.74 1166.73 2430.56 1162.48 2431.08 1158.26C2431.6 1154.04 2433.77 1150.2 2437.12 1147.59C2440.47 1144.97 2444.72 1143.79 2448.94 1144.31L2949.54 1205.78C2953.76 1206.3 2957.6 1208.47 2960.21 1211.82C2962.83 1215.16 2964.01 1219.42 2963.49 1223.63C2962.97 1227.85 2960.8 1231.69 2957.45 1234.3C2954.1 1236.92 2949.85 1238.1 2945.64 1237.58V1237.58Z" fill="#CCCCCC"/>
<path d="M3004.64 1299.3L2438.44 1229.78C2434.22 1229.26 2430.38 1227.09 2427.77 1223.74C2425.15 1220.4 2423.97 1216.15 2424.49 1211.93C2425.01 1207.71 2427.18 1203.87 2430.53 1201.26C2433.88 1198.64 2438.13 1197.46 2442.35 1197.98L3008.54 1267.5C3012.76 1268.02 3016.6 1270.19 3019.21 1273.54C3021.83 1276.89 3023.01 1281.14 3022.49 1285.35C3021.97 1289.57 3019.8 1293.41 3016.45 1296.03C3013.1 1298.64 3008.85 1299.82 3004.64 1299.3V1299.3Z" fill="#CCCCCC"/>
<path d="M2923.9 1414.59L2423.3 1353.12C2419.08 1352.6 2415.24 1350.43 2412.62 1347.08C2410.01 1343.73 2408.83 1339.48 2409.35 1335.26C2409.87 1331.05 2412.04 1327.21 2415.39 1324.59C2418.73 1321.98 2422.98 1320.8 2427.2 1321.32L2927.81 1382.78C2932.02 1383.3 2935.86 1385.47 2938.48 1388.82C2941.09 1392.17 2942.27 1396.42 2941.76 1400.64C2941.24 1404.85 2939.07 1408.69 2935.72 1411.31C2932.37 1413.92 2928.12 1415.1 2923.9 1414.59V1414.59Z" fill="#CCCCCC"/>
<path d="M2982.9 1476.31L2416.71 1406.79C2412.49 1406.28 2408.65 1404.1 2406.03 1400.76C2403.42 1397.41 2402.24 1393.16 2402.76 1388.94C2403.28 1384.72 2405.45 1380.88 2408.8 1378.27C2412.14 1375.65 2416.39 1374.47 2420.61 1374.99L2986.81 1444.51C2991.03 1445.03 2994.86 1447.2 2997.48 1450.55C3000.1 1453.9 3001.27 1458.15 3000.76 1462.36C3000.24 1466.58 2998.07 1470.42 2994.72 1473.04C2991.37 1475.65 2987.12 1476.83 2982.9 1476.31V1476.31Z" fill="#CCCCCC"/>
<path d="M3059.82 1378.71C3039.2 1376.09 3018.27 1377.58 2998.23 1383.07C2978.19 1388.56 2959.43 1397.96 2943.03 1410.72C2926.63 1423.48 2912.91 1439.36 2902.66 1457.44C2892.41 1475.51 2885.83 1495.43 2883.3 1516.06C2880.77 1536.69 2882.33 1557.61 2887.9 1577.63C2893.48 1597.65 2902.95 1616.37 2915.78 1632.72C2928.6 1649.07 2944.53 1662.73 2962.65 1672.91C2980.76 1683.08 3000.71 1689.59 3021.35 1692.04C3041.96 1694.65 3062.89 1693.17 3082.93 1687.67C3102.97 1682.18 3121.73 1672.78 3138.13 1660.02C3154.53 1647.26 3168.25 1631.39 3178.5 1613.31C3188.75 1595.23 3195.34 1575.31 3197.87 1554.68C3200.4 1534.06 3198.84 1513.14 3193.26 1493.12C3187.69 1473.1 3178.22 1454.38 3165.39 1438.02C3152.57 1421.67 3136.64 1408.02 3118.52 1397.84C3100.4 1387.66 3080.45 1381.16 3059.82 1378.71Z" fill="#00796B"/>
<path d="M3017.73 1598.61C3013.6 1598.11 3009.75 1596.29 3006.76 1593.41L3006.57 1593.23L2967.53 1554.98C2965.7 1553.21 2964.23 1551.1 2963.22 1548.76C2962.2 1546.42 2961.66 1543.91 2961.63 1541.36C2961.59 1538.81 2962.06 1536.28 2963.01 1533.91C2963.96 1531.55 2965.37 1529.39 2967.15 1527.57C2968.94 1525.76 2971.07 1524.31 2973.41 1523.32C2975.76 1522.33 2978.28 1521.81 2980.83 1521.8C2983.38 1521.79 2985.91 1522.28 2988.26 1523.25C2990.62 1524.22 2992.76 1525.65 2994.56 1527.45L3019.84 1552.28L3096.35 1474.35C3099.93 1470.7 3104.81 1468.62 3109.93 1468.58C3115.04 1468.53 3119.96 1470.52 3123.61 1474.1L3123.13 1474.62L3123.62 1474.1C3127.26 1477.69 3129.33 1482.57 3129.38 1487.68C3129.43 1492.79 3127.44 1497.71 3123.87 1501.36L3033.89 1592.98C3031.8 1595.09 3029.27 1596.7 3026.47 1597.67C3023.67 1598.64 3020.68 1598.95 3017.74 1598.58L3017.73 1598.61Z" fill="white"/>
<path d="M873.37 15.0237L816.683 45.9548L118.276 427.02L61.5841 457.948C34.0726 472.995 13.6538 498.341 4.80835 528.425C-4.03713 558.509 -0.586823 590.873 14.4022 618.416L534.503 1571.61C549.55 1599.13 574.896 1619.54 604.98 1628.39C635.064 1637.24 667.428 1633.79 694.971 1618.8L695.118 1618.72L1506.6 1175.94L1506.75 1175.85C1534.26 1160.81 1554.68 1135.46 1563.52 1105.38C1572.37 1075.29 1568.92 1042.93 1553.93 1015.39L1033.83 62.1932C1018.78 34.6839 993.432 14.2678 963.348 5.42464C933.265 -3.41848 900.901 0.033697 873.36 15.0237H873.37Z" fill="#F2F2F2"/>
<path d="M889.677 44.9092L822.534 81.5439L145.032 451.204L77.8913 487.839C58.3018 498.555 43.7632 516.604 37.4655 538.026C31.1678 559.449 33.6253 582.494 44.2988 602.107L564.388 1555.31C575.104 1574.9 593.154 1589.44 614.576 1595.73C635.998 1602.03 659.044 1599.57 678.656 1588.9L678.804 1588.82L1490.29 1146.05L1490.44 1145.97C1510.03 1135.26 1524.57 1117.21 1530.86 1095.78C1537.16 1074.36 1534.7 1051.32 1524.03 1031.7L1003.94 78.5017C993.227 58.9122 975.178 44.3736 953.756 38.0759C932.333 31.7781 909.287 34.2356 889.675 44.9092H889.677Z" fill="white"/>
<path d="M900.873 340.782L598.216 505.919C595.946 507.157 593.454 507.937 590.882 508.212C588.311 508.488 585.71 508.255 583.229 507.525C580.748 506.796 578.435 505.585 576.421 503.961C574.408 502.338 572.734 500.334 571.496 498.064C570.257 495.793 569.478 493.301 569.202 490.73C568.926 488.158 569.16 485.558 569.889 483.077C570.619 480.595 571.83 478.282 573.453 476.269C575.077 474.256 577.081 472.582 579.351 471.343L882.008 306.207C886.593 303.705 891.984 303.127 896.995 304.6C902.006 306.073 906.226 309.477 908.728 314.062C911.23 318.647 911.808 324.038 910.334 329.049C908.861 334.06 905.458 338.281 900.873 340.782V340.782Z" fill="#F2F2F2"/>
<path d="M1004.02 360.221L630.051 564.265C625.466 566.767 620.075 567.345 615.064 565.871C610.053 564.398 605.833 560.995 603.331 556.41C600.829 551.825 600.251 546.434 601.725 541.423C603.198 536.412 606.601 532.191 611.186 529.69L985.154 325.643C989.739 323.141 995.13 322.563 1000.14 324.036C1005.15 325.509 1009.37 328.913 1011.87 333.498C1014.38 338.083 1014.95 343.474 1013.48 348.485C1012.01 353.496 1008.6 357.717 1004.02 360.218V360.221Z" fill="#F2F2F2"/>
<path d="M473.791 437.178L194.76 589.419C192.563 590.618 190.933 592.64 190.227 595.041C189.521 597.442 189.797 600.024 190.995 602.222L309.815 819.99C311.014 822.187 313.036 823.817 315.437 824.523C317.838 825.229 320.421 824.953 322.618 823.755L601.644 671.515C603.841 670.316 605.471 668.294 606.177 665.893C606.883 663.492 606.607 660.909 605.409 658.712L486.594 440.943C485.395 438.747 483.373 437.116 480.972 436.41C478.571 435.704 475.988 435.981 473.791 437.178V437.178Z" fill="#F2F2F2"/>
<path d="M1051.04 617.097L640.528 841.083C635.943 843.584 630.552 844.162 625.541 842.689C620.529 841.216 616.309 837.813 613.807 833.228C611.305 828.643 610.728 823.252 612.201 818.241C613.674 813.23 617.077 809.009 621.662 806.507L1032.18 582.521C1036.76 580.02 1042.15 579.442 1047.17 580.915C1052.18 582.388 1056.4 585.791 1058.9 590.376C1061.4 594.961 1061.98 600.352 1060.51 605.363C1059.03 610.374 1055.63 614.595 1051.04 617.097H1051.04Z" fill="#F2F2F2"/>
<path d="M1154.19 636.532L672.363 899.428C667.778 901.93 662.387 902.508 657.376 901.035C652.364 899.562 648.143 896.159 645.641 891.574C643.139 886.989 642.561 881.598 644.034 876.587C645.507 871.576 648.91 867.355 653.495 864.853L1135.33 601.951C1139.91 599.45 1145.3 598.872 1150.31 600.345C1155.32 601.818 1159.54 605.221 1162.05 609.806C1164.55 614.391 1165.13 619.782 1163.65 624.794C1162.18 629.805 1158.78 634.025 1154.19 636.527V636.532Z" fill="#F2F2F2"/>
<path d="M484.186 1024.52C530.33 1024.52 567.737 987.112 567.737 940.968C567.737 894.824 530.33 857.417 484.186 857.417C438.042 857.417 400.635 894.824 400.635 940.968C400.635 987.112 438.042 1024.52 484.186 1024.52Z" fill="#F2F2F2"/>
<path d="M1734.28 407.788H809.525C778.17 407.823 748.111 420.294 725.94 442.465C703.769 464.636 691.298 494.696 691.263 526.05V1611.91C691.298 1643.26 703.769 1673.32 725.94 1695.5C748.111 1717.67 778.17 1730.14 809.525 1730.17H1734.28C1765.64 1730.14 1795.7 1717.67 1817.87 1695.5C1840.04 1673.32 1852.51 1643.26 1852.55 1611.91V526.05C1852.51 494.696 1840.04 464.636 1817.87 442.465C1795.7 420.294 1765.64 407.823 1734.28 407.788V407.788Z" fill="#E6E6E6" fill-opacity="0.59"/>
<path d="M1734.29 436.026H809.525C787.197 436.051 765.79 444.932 750.002 460.72C734.214 476.509 725.333 497.915 725.307 520.243V1606.1C725.332 1628.43 734.213 1649.84 750.001 1665.63C765.79 1681.42 787.196 1690.3 809.525 1690.32H1734.29C1756.61 1690.3 1778.02 1681.41 1793.81 1665.63C1809.6 1649.84 1818.48 1628.43 1818.5 1606.1V520.243C1818.48 497.915 1809.59 476.509 1793.81 460.72C1778.02 444.932 1756.61 436.051 1734.28 436.026H1734.29Z" fill="white"/>
<path d="M1602.4 706.924H1257.63C1252.4 706.924 1247.39 704.849 1243.7 701.155C1240.01 697.462 1237.93 692.453 1237.93 687.23C1237.93 682.007 1240.01 676.998 1243.7 673.305C1247.39 669.611 1252.4 667.537 1257.63 667.537H1602.4C1607.62 667.537 1612.63 669.611 1616.32 673.305C1620.02 676.998 1622.09 682.007 1622.09 687.23C1622.09 692.453 1620.02 697.462 1616.32 701.155C1612.63 704.849 1607.62 706.924 1602.4 706.924V706.924Z" fill="#00796B"/>
<path d="M1683.63 773.391H1257.62C1252.4 773.391 1247.39 771.316 1243.7 767.623C1240 763.93 1237.93 758.92 1237.93 753.697C1237.93 748.474 1240 743.465 1243.7 739.772C1247.39 736.079 1252.4 734.004 1257.62 734.004H1683.63C1688.86 734.004 1693.86 736.079 1697.56 739.772C1701.25 743.465 1703.33 748.474 1703.33 753.697C1703.33 758.92 1701.25 763.93 1697.56 767.623C1693.86 771.316 1688.86 773.391 1683.63 773.391Z" fill="#00796B"/>
<path d="M950.652 739.32C950.786 760.26 943.071 780.492 929.027 796.026C915.128 811.279 894.437 821.396 873.557 817.209C854.33 813.356 838.706 796.55 840.655 776.22C840.977 771.815 842.255 767.534 844.401 763.675C846.548 759.815 849.51 756.47 853.082 753.873C856.654 751.276 860.749 749.49 865.083 748.638C869.416 747.787 873.883 747.891 878.172 748.943C896.438 753.683 903.714 780.007 888.493 792.362C884.841 795.328 879.595 790.151 883.281 787.15C893.341 778.982 890.235 761.102 878.091 756.632C863.951 751.415 848.971 762.635 847.956 777.092C846.749 794.23 859.879 807.139 875.97 810.176C893.388 813.464 910.656 804.548 922.459 792.237C935.985 777.948 943.449 758.975 943.283 739.3C943.283 738.322 943.671 737.385 944.362 736.693C945.054 736.002 945.991 735.614 946.969 735.614C947.946 735.614 948.884 736.002 949.575 736.693C950.266 737.385 950.655 738.322 950.655 739.3L950.652 739.32Z" fill="#2F2E41"/>
<path d="M949.787 853.934C959.645 847.679 970.299 842.778 981.463 839.362C980.398 835.575 980.415 831.565 981.512 827.788C982.994 823.015 985.979 818.85 990.023 815.914C994.067 812.977 998.951 811.427 1003.95 811.495H1035.99C1041 811.432 1045.89 812.986 1049.94 815.925C1053.99 818.865 1056.99 823.034 1058.48 827.812C1059.57 831.582 1059.59 835.584 1058.52 839.362C1069.69 842.782 1080.34 847.684 1090.2 853.934H949.787Z" fill="#2F2E41"/>
<path d="M1601.88 1021.41H1134.23C1129.01 1021.41 1124 1019.33 1120.31 1015.64C1116.62 1011.95 1114.54 1006.94 1114.54 1001.71C1114.54 996.491 1116.62 991.482 1120.31 987.789C1124 984.096 1129.01 982.021 1134.23 982.021H1601.87C1607.1 982.021 1612.11 984.096 1615.8 987.789C1619.49 991.482 1621.57 996.491 1621.57 1001.71C1621.57 1006.94 1619.49 1011.95 1615.8 1015.64C1612.11 1019.33 1607.1 1021.41 1601.87 1021.41H1601.88Z" fill="#E6E6E6" fill-opacity="0.59"/>
<path d="M1683.12 1087.87H1134.23C1129.01 1087.87 1124 1085.8 1120.31 1082.1C1116.62 1078.41 1114.54 1073.4 1114.54 1068.18C1114.54 1062.96 1116.62 1057.95 1120.31 1054.25C1124 1050.56 1129.01 1048.49 1134.23 1048.49H1683.12C1688.34 1048.49 1693.35 1050.56 1697.04 1054.25C1700.73 1057.95 1702.81 1062.96 1702.81 1068.18C1702.81 1073.4 1700.73 1078.41 1697.04 1082.1C1693.35 1085.8 1688.34 1087.87 1683.12 1087.87Z" fill="#E6E6E6" fill-opacity="0.59"/>
<path d="M1601.88 1260.3H1134.23C1129.01 1260.3 1124 1258.22 1120.31 1254.53C1116.62 1250.84 1114.54 1245.83 1114.54 1240.6C1114.54 1235.38 1116.62 1230.37 1120.31 1226.68C1124 1222.99 1129.01 1220.91 1134.23 1220.91H1601.87C1607.1 1220.91 1612.11 1222.99 1615.8 1226.68C1619.49 1230.37 1621.57 1235.38 1621.57 1240.6C1621.57 1245.83 1619.49 1250.84 1615.8 1254.53C1612.11 1258.22 1607.1 1260.3 1601.87 1260.3H1601.88Z" fill="#E6E6E6" fill-opacity="0.59"/>
<path d="M1683.12 1326.76H1134.23C1129.01 1326.76 1124 1324.69 1120.31 1321C1116.62 1317.3 1114.54 1312.29 1114.54 1307.07C1114.54 1301.85 1116.62 1296.84 1120.31 1293.15C1124 1289.45 1129.01 1287.38 1134.23 1287.38H1683.12C1688.34 1287.38 1693.35 1289.45 1697.04 1293.15C1700.73 1296.84 1702.81 1301.85 1702.81 1307.07C1702.81 1312.29 1700.73 1317.3 1697.04 1321C1693.35 1324.69 1688.34 1326.76 1683.12 1326.76Z" fill="#E6E6E6" fill-opacity="0.59"/>
<path d="M949.151 1117.76C995.295 1117.76 1032.7 1080.35 1032.7 1034.21C1032.7 988.062 995.295 950.655 949.151 950.655C903.007 950.655 865.6 988.062 865.6 1034.21C865.6 1080.35 903.007 1117.76 949.151 1117.76Z" fill="#E6E6E6" fill-opacity="0.59"/>
<path d="M949.151 1358.58C995.295 1358.58 1032.7 1321.18 1032.7 1275.03C1032.7 1228.89 995.295 1191.48 949.151 1191.48C903.007 1191.48 865.6 1228.89 865.6 1275.03C865.6 1321.18 903.007 1358.58 949.151 1358.58Z" fill="#E6E6E6" fill-opacity="0.59"/>
<path d="M1601.88 1501.12H1134.23C1129.01 1501.12 1124 1499.05 1120.31 1495.35C1116.62 1491.66 1114.54 1486.65 1114.54 1481.43C1114.54 1476.2 1116.62 1471.2 1120.31 1467.5C1124 1463.81 1129.01 1461.73 1134.23 1461.73H1601.87C1607.1 1461.73 1612.11 1463.81 1615.8 1467.5C1619.49 1471.2 1621.57 1476.2 1621.57 1481.43C1621.57 1486.65 1619.49 1491.66 1615.8 1495.35C1612.11 1499.05 1607.1 1501.12 1601.87 1501.12H1601.88Z" fill="#E6E6E6" fill-opacity="0.59"/>
<path d="M1683.12 1567.59H1134.23C1129.01 1567.59 1124 1565.51 1120.31 1561.82C1116.62 1558.13 1114.54 1553.12 1114.54 1547.9C1114.54 1542.67 1116.62 1537.66 1120.31 1533.97C1124 1530.28 1129.01 1528.2 1134.23 1528.2H1683.12C1688.34 1528.2 1693.35 1530.28 1697.04 1533.97C1700.73 1537.66 1702.81 1542.67 1702.81 1547.9C1702.81 1553.12 1700.73 1558.13 1697.04 1561.82C1693.35 1565.51 1688.34 1567.59 1683.12 1567.59Z" fill="#E6E6E6" fill-opacity="0.59"/>
<path d="M949.151 1599.41C995.295 1599.41 1032.7 1562 1032.7 1515.86C1032.7 1469.71 995.295 1432.31 949.151 1432.31C903.007 1432.31 865.6 1469.71 865.6 1515.86C865.6 1562 903.007 1599.41 949.151 1599.41Z" fill="#E6E6E6" fill-opacity="0.59"/>
</g>
</svg>
